<svg width="752" height="570" viewBox="0 0 752 570" fill="none" xmlns="http://www.w3.org/2000/svg">
<path d="M298.622 156.073L296.055 158.64L307.862 241.811H360.224L365.871 210.494C379.902 207.756 393.078 203.991 405.398 199.199C417.719 194.065 428.328 187.391 437.226 179.176C446.466 170.962 453.653 161.036 458.786 149.399C464.262 137.42 467 123.216 467 106.787C467 89.6737 463.92 74.4429 457.76 61.0945C451.942 47.7461 443.557 36.6225 432.606 27.7236C421.654 18.4824 408.478 11.6371 393.078 7.18759C378.02 2.39586 361.251 0 342.77 0C314.707 0 290.409 5.134 269.875 15.402C249.683 25.67 232.058 39.0183 217 55.4471L264.228 107.3C276.206 95.3211 288.355 86.4222 300.676 80.6037C313.338 74.7852 326.856 71.8759 341.23 71.8759C356.288 71.8759 367.924 75.1274 376.138 81.6305C384.351 87.7913 388.458 96.8613 388.458 108.841C388.458 122.874 381.613 133.997 367.924 142.212C354.235 150.084 331.134 154.704 298.622 156.073ZM374.084 364V281.856H290.922V364H374.084Z" fill="#D9EAF2"/>
<path d="M505.687 279.139L501.839 280.17L467.422 365.701L517.195 394.438L539.748 367.771C554.589 372.869 569.18 376.522 583.52 378.729C598.049 380.61 611.796 380.089 624.762 377.165C638.053 374.429 650.332 368.939 661.597 360.695C673.376 352.314 683.773 340.316 692.789 324.701C702.18 308.436 707.61 292.269 709.079 276.201C710.874 260.32 709.008 245.146 703.481 230.678C698.142 215.884 689.374 202.146 677.176 189.465C665.492 176.647 650.866 165.166 633.299 155.024C606.624 139.623 580.709 131.167 555.555 129.657C530.727 128.336 506.648 131.35 483.319 138.701L499.758 213.906C517.718 209.093 534.15 207.303 549.054 208.534C564.283 209.953 578.73 214.607 592.393 222.495C606.707 230.759 615.983 240.236 620.222 250.924C624.649 261.288 623.576 272.162 617.002 283.548C609.301 296.886 596.691 303.703 579.171 303.997C561.838 303.967 537.344 295.681 505.687 279.139ZM463.318 518.182L508.395 440.107L429.344 394.466L384.267 472.542L463.318 518.182Z" fill="#D9EAF2"/>
<path d="M117.115 301.732L116.376 304.494L157.174 356.562L192.884 335.944L184.405 312.364C192.897 304.972 200.401 297.216 206.917 289.097C213.298 280.745 217.906 272.016 220.74 262.911C223.808 253.671 224.801 244.072 223.721 234.115C222.739 223.79 219.014 213.026 212.545 201.822C205.807 190.152 197.71 180.979 188.253 174.301C179.03 167.489 168.932 163.205 157.96 161.449C146.852 159.459 135.171 159.979 122.916 163.009C110.76 165.671 98.3797 170.64 85.7759 177.917C66.6368 188.967 52.0865 202.035 42.1249 217.123C32.3967 232.076 25.6319 248.118 21.8304 265.251L74.4557 282.015C77.9083 269.13 82.6905 258.277 88.8022 249.458C95.1473 240.504 103.221 233.198 113.024 227.538C123.294 221.609 132.51 219.244 140.672 220.445C148.699 221.412 155.071 225.98 159.788 234.149C165.313 243.719 165.024 254 158.922 264.991C152.685 275.75 138.75 287.997 117.115 301.732ZM250.445 413.812L218.104 357.795L161.387 390.54L193.728 446.557L250.445 413.812Z" fill="#D9EAF2"/>
</svg>
