<svg width="24" height="24" viewBox="0 0 24 24" fill="none" xmlns="http://www.w3.org/2000/svg">
<g clip-path="url(#clip0_2451_2308)">
<mask id="mask0_2451_2308" style="mask-type:luminance" maskUnits="userSpaceOnUse" x="0" y="0" width="24" height="24">
<path d="M24 0H0V24H24V0Z" fill="white"/>
</mask>
<g mask="url(#mask0_2451_2308)">
<mask id="mask1_2451_2308" style="mask-type:luminance" maskUnits="userSpaceOnUse" x="0" y="0" width="24" height="24">
<path d="M24 0H0V24H24V0Z" fill="white"/>
</mask>
<g mask="url(#mask1_2451_2308)">
<path d="M7.16602 6.16113L15.5411 17.8837H16.824L8.44853 6.16113H7.16602Z" fill="white"/>
<path fill-rule="evenodd" clip-rule="evenodd" d="M1.7309 0H22.2691C23.2251 0 24 0.774902 24 1.7309V22.2691C24 23.2251 23.2251 24 22.2691 24H1.7309C0.774902 24 0 23.2251 0 22.2691V1.7309C0 0.774902 0.774902 0 1.7309 0ZM4.51894 4.75H9.29912L12.8051 9.74319L17.1981 4.75H19.0986L13.6509 10.9461L19.481 19.25H14.7009L10.9915 13.9674L6.34789 19.25H4.44727L10.1484 12.7662L4.51894 4.75Z" fill="white"/>
</g>
</g>
</g>
<defs>
<clipPath id="clip0_2451_2308">
<rect width="24" height="24" fill="white"/>
</clipPath>
</defs>
</svg>
