<svg width="339" height="752" viewBox="0 0 339 752" fill="none" xmlns="http://www.w3.org/2000/svg">
<g clip-path="url(#clip0_3581_1312)">
<rect width="339" height="752" fill="#053249"/>
<path d="M114 606V595.227C114 570.27 119.213 550.027 129.639 534.496C140.065 518.965 154.446 503.3 172.782 487.5C154.446 471.7 140.065 456.035 129.639 440.504C119.213 424.973 114 404.73 114 379.773V369H135.571V379.773C135.571 381.748 135.616 383.588 135.706 385.294C135.796 386.999 135.931 388.75 136.111 390.545H242.889C243.069 388.75 243.204 386.999 243.294 385.294C243.384 383.588 243.429 381.748 243.429 379.773V369H265V379.773C265 404.73 259.787 424.973 249.361 440.504C238.935 456.035 224.554 471.7 206.218 487.5C224.554 503.3 238.935 518.965 249.361 534.496C259.787 550.027 265 570.27 265 595.227V606H243.429V595.227C243.429 593.252 243.384 591.412 243.294 589.706C243.204 588.001 243.069 586.25 242.889 584.455H136.111C135.931 586.25 135.796 588.001 135.706 589.706C135.616 591.412 135.571 593.252 135.571 595.227V606H114ZM151.211 433.636H227.789C230.126 430.225 232.149 426.814 233.856 423.402C235.564 419.991 237.137 416.22 238.575 412.091H140.425C141.863 416.041 143.436 419.766 145.144 423.268C146.851 426.769 148.874 430.225 151.211 433.636ZM189.5 473.495C193.095 470.443 196.601 467.391 200.016 464.339C203.432 461.286 206.667 458.234 209.723 455.182H169.277C172.333 458.234 175.568 461.286 178.984 464.339C182.399 467.391 185.905 470.443 189.5 473.495ZM169.277 519.818H209.723C206.667 516.766 203.432 513.714 200.016 510.661C196.601 507.609 193.095 504.557 189.5 501.505C185.905 504.557 182.399 507.609 178.984 510.661C175.568 513.714 172.333 516.766 169.277 519.818ZM140.425 562.909H238.575C237.137 558.959 235.564 555.234 233.856 551.732C232.149 548.231 230.126 544.775 227.789 541.364H151.211C148.874 544.775 146.851 548.186 145.144 551.598C143.436 555.009 141.863 558.78 140.425 562.909Z" fill="white"/>
<path d="M114 829V818.227C114 793.27 119.213 773.027 129.639 757.496C140.065 741.965 154.446 726.3 172.782 710.5C154.446 694.7 140.065 679.035 129.639 663.504C119.213 647.973 114 627.73 114 602.773V592H135.571V602.773C135.571 604.748 135.616 606.588 135.706 608.294C135.796 609.999 135.931 611.75 136.111 613.545H242.889C243.069 611.75 243.204 609.999 243.294 608.294C243.384 606.588 243.429 604.748 243.429 602.773V592H265V602.773C265 627.73 259.787 647.973 249.361 663.504C238.935 679.035 224.554 694.7 206.218 710.5C224.554 726.3 238.935 741.965 249.361 757.496C259.787 773.027 265 793.27 265 818.227V829H243.429V818.227C243.429 816.252 243.384 814.412 243.294 812.706C243.204 811.001 243.069 809.25 242.889 807.455H136.111C135.931 809.25 135.796 811.001 135.706 812.706C135.616 814.412 135.571 816.252 135.571 818.227V829H114ZM151.211 656.636H227.789C230.126 653.225 232.149 649.814 233.856 646.402C235.564 642.991 237.137 639.22 238.575 635.091H140.425C141.863 639.041 143.436 642.766 145.144 646.268C146.851 649.769 148.874 653.225 151.211 656.636ZM189.5 696.495C193.095 693.443 196.601 690.391 200.016 687.339C203.432 684.286 206.667 681.234 209.723 678.182H169.277C172.333 681.234 175.568 684.286 178.984 687.339C182.399 690.391 185.905 693.443 189.5 696.495ZM169.277 742.818H209.723C206.667 739.766 203.432 736.714 200.016 733.661C196.601 730.609 193.095 727.557 189.5 724.505C185.905 727.557 182.399 730.609 178.984 733.661C175.568 736.714 172.333 739.766 169.277 742.818ZM140.425 785.909H238.575C237.137 781.959 235.564 778.234 233.856 774.732C232.149 771.231 230.126 767.775 227.789 764.364H151.211C148.874 767.775 146.851 771.186 145.144 774.598C143.436 778.009 141.863 781.78 140.425 785.909Z" fill="white"/>
<path d="M114 383V372.227C114 347.27 119.213 327.027 129.639 311.496C140.065 295.965 154.446 280.3 172.782 264.5C154.446 248.7 140.065 233.035 129.639 217.504C119.213 201.973 114 181.73 114 156.773V146H135.571V156.773C135.571 158.748 135.616 160.588 135.706 162.294C135.796 163.999 135.931 165.75 136.111 167.545H242.889C243.069 165.75 243.204 163.999 243.294 162.294C243.384 160.588 243.429 158.748 243.429 156.773V146H265V156.773C265 181.73 259.787 201.973 249.361 217.504C238.935 233.035 224.554 248.7 206.218 264.5C224.554 280.3 238.935 295.965 249.361 311.496C259.787 327.027 265 347.27 265 372.227V383H243.429V372.227C243.429 370.252 243.384 368.412 243.294 366.706C243.204 365.001 243.069 363.25 242.889 361.455H136.111C135.931 363.25 135.796 365.001 135.706 366.706C135.616 368.412 135.571 370.252 135.571 372.227V383H114ZM151.211 210.636H227.789C230.126 207.225 232.149 203.814 233.856 200.402C235.564 196.991 237.137 193.22 238.575 189.091H140.425C141.863 193.041 143.436 196.766 145.144 200.268C146.851 203.769 148.874 207.225 151.211 210.636ZM189.5 250.495C193.095 247.443 196.601 244.391 200.016 241.339C203.432 238.286 206.667 235.234 209.723 232.182H169.277C172.333 235.234 175.568 238.286 178.984 241.339C182.399 244.391 185.905 247.443 189.5 250.495ZM169.277 296.818H209.723C206.667 293.766 203.432 290.714 200.016 287.661C196.601 284.609 193.095 281.557 189.5 278.505C185.905 281.557 182.399 284.609 178.984 287.661C175.568 290.714 172.333 293.766 169.277 296.818ZM140.425 339.909H238.575C237.137 335.959 235.564 332.234 233.856 328.732C232.149 325.231 230.126 321.775 227.789 318.364H151.211C148.874 321.775 146.851 325.186 145.144 328.598C143.436 332.009 141.863 335.78 140.425 339.909Z" fill="white"/>
<path d="M114 160V149.227C114 124.27 119.213 104.027 129.639 88.496C140.065 72.9653 154.446 57.3 172.782 41.5C154.446 25.7 140.065 10.0347 129.639 -5.49602C119.213 -21.0267 114 -41.2705 114 -66.2273V-77H135.571V-66.2273C135.571 -64.2523 135.616 -62.4119 135.706 -60.7062C135.796 -59.0006 135.931 -57.25 136.111 -55.4545H242.889C243.069 -57.25 243.204 -59.0006 243.294 -60.7062C243.384 -62.4119 243.429 -64.2523 243.429 -66.2273V-77H265V-66.2273C265 -41.2705 259.787 -21.0267 249.361 -5.49602C238.935 10.0347 224.554 25.7 206.218 41.5C224.554 57.3 238.935 72.9653 249.361 88.496C259.787 104.027 265 124.27 265 149.227V160H243.429V149.227C243.429 147.252 243.384 145.412 243.294 143.706C243.204 142.001 243.069 140.25 242.889 138.455H136.111C135.931 140.25 135.796 142.001 135.706 143.706C135.616 145.412 135.571 147.252 135.571 149.227V160H114ZM151.211 -12.3636H227.789C230.126 -15.775 232.149 -19.1864 233.856 -22.5977C235.564 -26.0091 237.137 -29.7795 238.575 -33.9091H140.425C141.863 -29.9591 143.436 -26.2335 145.144 -22.7324C146.851 -19.2312 148.874 -15.775 151.211 -12.3636ZM189.5 27.4955C193.095 24.4432 196.601 21.3909 200.016 18.3386C203.432 15.2864 206.667 12.2341 209.723 9.18182H169.277C172.333 12.2341 175.568 15.2864 178.984 18.3386C182.399 21.3909 185.905 24.4432 189.5 27.4955ZM169.277 73.8182H209.723C206.667 70.7659 203.432 67.7136 200.016 64.6614C196.601 61.6091 193.095 58.5568 189.5 55.5045C185.905 58.5568 182.399 61.6091 178.984 64.6614C175.568 67.7136 172.333 70.7659 169.277 73.8182ZM140.425 116.909H238.575C237.137 112.959 235.564 109.234 233.856 105.732C232.149 102.231 230.126 98.775 227.789 95.3636H151.211C148.874 98.775 146.851 102.186 145.144 105.598C143.436 109.009 141.863 112.78 140.425 116.909Z" fill="white"/>
<circle cx="193" cy="375" r="70" fill="#053249"/>
<path d="M121.558 356L137.142 322H192V356H121.558Z" fill="#EA6D43" stroke="black" stroke-width="2"/>
<path d="M194 394H264.402L247.874 428H194V394Z" fill="#34718E" stroke="black" stroke-width="2"/>
<mask id="path-8-inside-1_3581_1312" fill="white">
<path fill-rule="evenodd" clip-rule="evenodd" d="M177 339L193 357H266L248.5 321H193L177 339Z"/>
</mask>
<path fill-rule="evenodd" clip-rule="evenodd" d="M177 339L193 357H266L248.5 321H193L177 339Z" fill="#F0C640"/>
<path d="M193 357L191.505 358.329L192.102 359H193V357ZM177 339L175.505 337.671L174.324 339L175.505 340.329L177 339ZM266 357V359H269.196L267.799 356.126L266 357ZM248.5 321L250.299 320.126L249.752 319H248.5V321ZM193 321V319H192.102L191.505 319.671L193 321ZM194.495 355.671L178.495 337.671L175.505 340.329L191.505 358.329L194.495 355.671ZM266 355H193V359H266V355ZM246.701 321.874L264.201 357.874L267.799 356.126L250.299 320.126L246.701 321.874ZM193 323H248.5V319H193V323ZM178.495 340.329L194.495 322.329L191.505 319.671L175.505 337.671L178.495 340.329Z" fill="black" mask="url(#path-8-inside-1_3581_1312)"/>
<mask id="path-10-inside-2_3581_1312" fill="white">
<path fill-rule="evenodd" clip-rule="evenodd" d="M193 393H120L137 429H193C196.866 429 200 420.941 200 411C200 401.059 196.866 393 193 393Z"/>
</mask>
<path fill-rule="evenodd" clip-rule="evenodd" d="M193 393H120L137 429H193C196.866 429 200 420.941 200 411C200 401.059 196.866 393 193 393Z" fill="#6CAE3E"/>
<path d="M120 393V391H116.844L118.192 393.854L120 393ZM137 429L135.192 429.854L135.733 431H137V429ZM120 395H193V391H120V395ZM138.808 428.146L121.808 392.146L118.192 393.854L135.192 429.854L138.808 428.146ZM193 427H137V431H193V427ZM198 411C198 415.787 197.242 420.03 196.086 423.003C195.505 424.496 194.863 425.568 194.252 426.232C193.643 426.894 193.218 427 193 427V431C194.715 431 196.131 430.098 197.197 428.939C198.261 427.782 199.128 426.217 199.814 424.453C201.191 420.911 202 416.154 202 411H198ZM193 395C193.218 395 193.643 395.106 194.252 395.768C194.863 396.432 195.505 397.504 196.086 398.997C197.242 401.97 198 406.213 198 411H202C202 405.846 201.191 401.089 199.814 397.547C199.128 395.783 198.261 394.218 197.197 393.061C196.131 391.902 194.715 391 193 391V395Z" fill="black" mask="url(#path-10-inside-2_3581_1312)"/>
<path d="M133 423.707L37.7071 519L49 530.293L144.293 435L133 423.707Z" fill="#AEAEAE" stroke="#AEAEAE"/>
<circle cx="84" cy="84" r="77" transform="matrix(-1 0 0 1 277 291)" stroke="#AEAEAE" stroke-width="14"/>
<path d="M168.73 408.06C168.565 407.543 168.344 407.08 168.065 406.67C167.793 406.256 167.466 405.903 167.085 405.614C166.705 405.318 166.27 405.094 165.781 404.94C165.298 404.787 164.767 404.71 164.188 404.71C163.205 404.71 162.318 404.963 161.528 405.469C160.739 405.974 160.114 406.716 159.653 407.693C159.199 408.665 158.972 409.855 158.972 411.264C158.972 412.679 159.202 413.875 159.662 414.852C160.122 415.83 160.753 416.571 161.554 417.077C162.355 417.582 163.267 417.835 164.29 417.835C165.239 417.835 166.065 417.642 166.77 417.256C167.48 416.869 168.028 416.324 168.415 415.619C168.807 414.909 169.003 414.074 169.003 413.114L169.685 413.241H164.69V411.068H171.551V413.054C171.551 414.52 171.239 415.793 170.614 416.872C169.994 417.946 169.136 418.776 168.04 419.361C166.949 419.946 165.699 420.239 164.29 420.239C162.71 420.239 161.324 419.875 160.131 419.148C158.943 418.42 158.017 417.389 157.352 416.054C156.688 414.713 156.355 413.122 156.355 411.281C156.355 409.889 156.548 408.639 156.935 407.531C157.321 406.423 157.864 405.483 158.562 404.71C159.267 403.932 160.094 403.338 161.043 402.929C161.997 402.514 163.04 402.307 164.17 402.307C165.114 402.307 165.991 402.446 166.804 402.724C167.622 403.003 168.349 403.398 168.986 403.909C169.628 404.42 170.159 405.028 170.58 405.733C171 406.432 171.284 407.207 171.432 408.06H168.73Z" fill="white"/>
<path d="M226.415 408.222H223.756C223.653 407.653 223.463 407.153 223.185 406.722C222.906 406.29 222.565 405.923 222.162 405.622C221.759 405.321 221.307 405.094 220.807 404.94C220.313 404.787 219.787 404.71 219.23 404.71C218.224 404.71 217.324 404.963 216.528 405.469C215.739 405.974 215.114 406.716 214.653 407.693C214.199 408.67 213.972 409.864 213.972 411.273C213.972 412.693 214.199 413.892 214.653 414.869C215.114 415.847 215.741 416.585 216.537 417.085C217.332 417.585 218.227 417.835 219.222 417.835C219.773 417.835 220.295 417.761 220.79 417.614C221.29 417.46 221.741 417.236 222.145 416.94C222.548 416.645 222.889 416.284 223.168 415.858C223.452 415.426 223.648 414.932 223.756 414.375L226.415 414.384C226.273 415.241 225.997 416.031 225.588 416.753C225.185 417.469 224.665 418.088 224.028 418.611C223.398 419.128 222.676 419.528 221.864 419.812C221.051 420.097 220.165 420.239 219.205 420.239C217.693 420.239 216.347 419.881 215.165 419.165C213.983 418.443 213.051 417.412 212.369 416.071C211.693 414.73 211.355 413.131 211.355 411.273C211.355 409.409 211.696 407.81 212.378 406.474C213.06 405.134 213.991 404.105 215.173 403.389C216.355 402.668 217.699 402.307 219.205 402.307C220.131 402.307 220.994 402.44 221.795 402.707C222.602 402.969 223.327 403.355 223.969 403.866C224.611 404.372 225.142 404.991 225.562 405.724C225.983 406.452 226.267 407.284 226.415 408.222Z" fill="white"/>
<path d="M213.392 347H210.597L216.878 329.545H219.92L226.202 347H223.406L218.472 332.716H218.335L213.392 347ZM213.861 340.165H222.929V342.381H213.861V340.165Z" fill="black"/>
<path d="M157.057 331.812V329.545H170.565V331.812H165.119V347H162.494V331.812H157.057Z" fill="black"/>
</g>
<defs>
<clipPath id="clip0_3581_1312">
<rect width="339" height="752" fill="white"/>
</clipPath>
</defs>
</svg>
