<svg width="887" height="315" viewBox="0 0 887 315" fill="none" xmlns="http://www.w3.org/2000/svg">
<g clip-path="url(#clip0_3602_1279)">
<rect width="887" height="315" fill="#053249"/>
<rect x="858" width="23" height="315" fill="#375B6D"/>
<rect x="630" width="26" height="315" fill="#375B6D"/>
<rect x="338" width="27" height="315" fill="#375B6D"/>
<rect x="274" width="27" height="315" fill="#375B6D"/>
<rect x="162" width="26" height="315" fill="#375B6D"/>
<rect x="58" width="24" height="315" fill="#375B6D"/>
<rect x="484" width="12" height="315" fill="#FFCDAB" fill-opacity="0.75"/>
<path d="M886.5 266L878.5 265.874L877.5 264.681L876.5 265.843L865 265.662L863 198.5L861.5 265.607L851 265.442L848.5 102L847 265.38L834.5 265.183L833.5 254L832 265.144L821 264.971L819 205.5L817 264.908L806 264.736L804 201.5L802.5 264.681L791.5 264.508L789.5 191L788 264.453L777 264.28L774.5 203.5L773 264.217L762 264.044L760 201.5L758.5 263.99L747 263.809L744.5 201.5L743 263.746L732 263.573L730 197L728.5 263.518L717 263.338L715 193L714 263.291L702.5 263.11L700.5 138L699 263.055L686 262.851L684 184L682 262.788L670 262.599L668 198.5L666.5 262.544L638 262.097L636 189L634 262.034L621.5 261.838L620 189L618.5 261.791L605 261.578L603.5 255L603 261.547L590 261.343L588 177L586 261.28L573.5 261.084L571.5 184L570 261.029L558 260.84L556 187L554 260.777L542 260.589L540 193L538 260.526L526 260.338L524 113L522.5 260.283L509.5 260.078L507.5 189L505.5 260L477 259.568L475 98.5L473 259.505L461 259.317L459 118L456.5 259.246L444 259.05L442 182L440.5 258.995L427.5 258.791L426 177L424 258.736L412 258.547M407.5 258.476L395 258.28L393.5 177L392 258.233L361.5 257.754L361 256.5L360.5 257.738L346.5 257.5L345 102L343.5 257.471L330 257.259L328 174L326.5 257.204L313 256.992L312 254L311 256.961L282.5 256.513L281 172L279 256.458L266.5 256.262L265 168L263.5 256.215L250 256.003L249 255.453L248 255.971L235.5 255.775L233.5 167L232 255.72L218.5 255.508L216.5 91L215 255.453L202 255.249L200.5 167L199 255.202L169.5 254.738L168 168L166.934 254.698L153 254.479L151 160.5L149 254.416L121.5 253.984L120 167L119 253.945L106 253.741L104.5 167L103 253.694L93 253.537L91 22L90 253.49L67 253.128L65 171L63 253.065L54 252.924L52 160.5L51 252.877L41 252.72L39 249L38 252.673L27 252.5L23 238V281.5H0.5M407.5 258.476L410 98.5L412 258.547M407.5 258.476L412 258.547" stroke="white" stroke-width="2" stroke-miterlimit="1.11658" stroke-linejoin="round"/>
<rect y="291" width="887" height="1" stroke="white" stroke-opacity="0.2" stroke-dasharray="12 12"/>
<rect y="251" width="887" height="1" stroke="white" stroke-opacity="0.2" stroke-dasharray="12 12"/>
<rect y="210" width="887" height="1" stroke="white" stroke-opacity="0.2" stroke-dasharray="12 12"/>
<rect y="170" width="887" height="1" stroke="white" stroke-opacity="0.2" stroke-dasharray="12 12"/>
<rect y="130" width="887" height="1" stroke="white" stroke-opacity="0.2" stroke-dasharray="12 12"/>
<rect y="89" width="887" height="1" stroke="white" stroke-opacity="0.2" stroke-dasharray="12 12"/>
<rect y="49" width="887" height="1" stroke="white" stroke-opacity="0.2" stroke-dasharray="12 12"/>
<rect y="9" width="887" height="1" stroke="white" stroke-opacity="0.2" stroke-dasharray="12 12"/>
</g>
<defs>
<clipPath id="clip0_3602_1279">
<rect width="887" height="315" fill="white"/>
</clipPath>
</defs>
</svg>
