<svg width="2493" height="1165" viewBox="0 0 2493 1165" fill="none" xmlns="http://www.w3.org/2000/svg">
<rect width="2493" height="1165" fill="#053249"/>
<path d="M112 1044H140.5L154 1028.5L166.5 1044H207.5L220.5 1037L236 1044H278L296 1007.5L310.5 1044H332L347.5 995L364 1044H474L485 1040L497 1044H517.5L531 1036.5L548 1044H688.5L705 1037L720 1042.5L742.5 955.5L766.5 1044L783.5 1033.5L800 1044H818.5L838.5 995L858 1044H913L935 1033.5L953 1044H1008.5L1035 743.5L1057.5 1014L1074.5 950.5L1092.5 1023L1111.5 939.5L1139 1044H1255.5L1279.5 1014L1304 1044H1375L1406.5 364L1441 1044H1470.5L1493.5 939.5L1516.5 1044H1528.5L1554.5 994L1573.5 1028.5L1597.5 831.5L1629.5 1044L1658 1014L1678.5 1044H1690.5L1699.5 1039L1708 1044H1774L1808 433L1846.5 1044L1884 644.5L1917 1039L1946 790L1993.5 1044H2026L2048 1014L2070.5 1044H2091.5L2109.5 1032.5L2126.5 1044H2239.5L2278 469L2315 1044H2361.5L2391 947.5L2421 1044H2465" stroke="white" stroke-width="4" stroke-miterlimit="16" stroke-linejoin="round"/>
<path d="M154 1069L154 859" stroke="white" stroke-width="2" stroke-miterlimit="1.11658" stroke-linejoin="round" stroke-dasharray="4 4"/>
<path d="M220 1069L220 667" stroke="white" stroke-width="2" stroke-miterlimit="1.11658" stroke-linejoin="round" stroke-dasharray="4 4"/>
<path d="M296 1070L296 858" stroke="white" stroke-width="2" stroke-miterlimit="1.11658" stroke-linejoin="round" stroke-dasharray="4 4"/>
<path d="M347 1069.5V667.5" stroke="white" stroke-width="2" stroke-miterlimit="1.11658" stroke-linejoin="round" stroke-dasharray="4 4"/>
<path d="M486 1069L486 859" stroke="white" stroke-width="2" stroke-miterlimit="1.11658" stroke-linejoin="round" stroke-dasharray="4 4"/>
<path d="M705 1069V857" stroke="white" stroke-width="2" stroke-miterlimit="1.11658" stroke-linejoin="round" stroke-dasharray="4 4"/>
<path d="M531 1069L531 668" stroke="white" stroke-width="2" stroke-miterlimit="1.11658" stroke-linejoin="round" stroke-dasharray="4 4"/>
<path d="M742 1069L742 668" stroke="white" stroke-width="2" stroke-miterlimit="1.11658" stroke-linejoin="round" stroke-dasharray="4 4"/>
<path d="M783 1069L783 857" stroke="white" stroke-width="2" stroke-miterlimit="1.11658" stroke-linejoin="round" stroke-dasharray="4 4"/>
<path d="M838 1069L838 669" stroke="white" stroke-width="2" stroke-miterlimit="1.11658" stroke-linejoin="round" stroke-dasharray="4 4"/>
<path d="M935 1069L935 862" stroke="white" stroke-width="2" stroke-miterlimit="1.11658" stroke-linejoin="round" stroke-dasharray="4 4"/>
<path d="M1035 1069L1035 581" stroke="white" stroke-width="2" stroke-miterlimit="1.11658" stroke-linejoin="round" stroke-dasharray="4 4"/>
<path d="M1074 1069V800" stroke="white" stroke-width="2" stroke-miterlimit="1.11658" stroke-linejoin="round" stroke-dasharray="4 4"/>
<path d="M1112 1069L1112 389" stroke="white" stroke-width="2" stroke-miterlimit="1.11658" stroke-linejoin="round" stroke-dasharray="4 4"/>
<path d="M1279 1069L1279 845" stroke="white" stroke-width="2" stroke-miterlimit="1.11658" stroke-linejoin="round" stroke-dasharray="4 4"/>
<path d="M1407 1069V193" stroke="white" stroke-width="2" stroke-miterlimit="1.11658" stroke-linejoin="round" stroke-dasharray="4 4"/>
<path d="M1493 1069L1493 775" stroke="white" stroke-width="2" stroke-miterlimit="1.11658" stroke-linejoin="round" stroke-dasharray="4 4"/>
<path d="M1555 1069L1555 607" stroke="white" stroke-width="2" stroke-miterlimit="1.11658" stroke-linejoin="round" stroke-dasharray="4 4"/>
<path d="M1597 1069L1597 775" stroke="white" stroke-width="2" stroke-miterlimit="1.11658" stroke-linejoin="round" stroke-dasharray="4 4"/>
<path d="M1658 1069V607" stroke="white" stroke-width="2" stroke-miterlimit="1.11658" stroke-linejoin="round" stroke-dasharray="4 4"/>
<path d="M1699 1069V862" stroke="white" stroke-width="2" stroke-miterlimit="1.11658" stroke-linejoin="round" stroke-dasharray="4 4"/>
<path d="M1808 1069V273" stroke="white" stroke-width="2" stroke-miterlimit="1.11658" stroke-linejoin="round" stroke-dasharray="4 4"/>
<path d="M1883 1069V549" stroke="white" stroke-width="2" stroke-miterlimit="1.11658" stroke-linejoin="round" stroke-dasharray="4 4"/>
<path d="M1946 1069L1946 629" stroke="white" stroke-width="2" stroke-miterlimit="1.11658" stroke-linejoin="round" stroke-dasharray="4 4"/>
<path d="M2048 1069L2048 845" stroke="white" stroke-width="2" stroke-miterlimit="1.11658" stroke-linejoin="round" stroke-dasharray="4 4"/>
<path d="M2109 1069L2109 678" stroke="white" stroke-width="2" stroke-miterlimit="1.11658" stroke-linejoin="round" stroke-dasharray="4 4"/>
<path d="M2278 1069L2278 307" stroke="white" stroke-width="2" stroke-miterlimit="1.11658" stroke-linejoin="round" stroke-dasharray="4 4"/>
<path d="M2391 1069L2391 782" stroke="white" stroke-width="2" stroke-miterlimit="1.11658" stroke-linejoin="round" stroke-dasharray="4 4"/>
<path d="M154 829V777M154 777L168 751V673M154 777L140 751V673" stroke="white" stroke-width="2" stroke-miterlimit="1.11658" stroke-linejoin="round"/>
<rect x="148" y="823" width="12" height="12" fill="#0FA7D8"/>
<rect x="148" y="797" width="12" height="12" fill="#0FA7D8"/>
<rect x="162" y="719" width="12" height="12" fill="#0FA7D8"/>
<rect x="168" y="667" width="8.48676" height="8.48676" transform="rotate(45 168 667)" fill="#FF00FF"/>
<rect x="140.002" y="667" width="8.48676" height="8.48676" transform="rotate(45 140.002 667)" fill="#FF00FF"/>
<rect x="134" y="719" width="12" height="12" fill="#0FA7D8"/>
<circle cx="154" cy="777" r="6" fill="#13CB13"/>
<circle cx="168" cy="751" r="6" fill="#13CB13"/>
<circle cx="168" cy="699" r="6" fill="#FFFF00"/>
<circle cx="140" cy="751" r="6" fill="#13CB13"/>
<circle cx="140" cy="699" r="6" fill="#FFFF00"/>
<path d="M486 829V777M486 777L500 751V673M486 777L472 751V725" stroke="white" stroke-width="2" stroke-miterlimit="1.11658" stroke-linejoin="round"/>
<rect x="480" y="823" width="12" height="12" fill="#0FA7D8"/>
<rect x="480" y="797" width="12" height="12" fill="#0FA7D8"/>
<rect x="494" y="719" width="12" height="12" fill="#0FA7D8"/>
<rect x="500" y="667" width="8.48676" height="8.48676" transform="rotate(45 500 667)" fill="#FF00FF"/>
<rect x="466" y="719" width="12" height="12" fill="#0FA7D8"/>
<circle cx="486" cy="777" r="6" fill="#13CB13"/>
<circle cx="500" cy="751" r="6" fill="#13CB13"/>
<circle cx="500" cy="699" r="6" fill="#FFFF00"/>
<circle cx="472" cy="751" r="6" fill="#13CB13"/>
<path d="M1493 743V691M1493 691L1507 665V613M1493 691L1479 665V639" stroke="white" stroke-width="2" stroke-miterlimit="1.11658" stroke-linejoin="round"/>
<rect x="1487" y="737" width="12" height="12" fill="#0FA7D8"/>
<rect x="1487" y="711" width="12" height="12" fill="#0FA7D8"/>
<rect x="1501" y="633" width="12" height="12" fill="#0FA7D8"/>
<rect x="1473" y="633" width="12" height="12" fill="#0FA7D8"/>
<circle cx="1493" cy="691" r="6" fill="#13CB13"/>
<circle cx="1507" cy="665" r="6" fill="#13CB13"/>
<circle cx="1507" cy="613" r="6" fill="#FFFF00"/>
<circle cx="1479" cy="665" r="6" fill="#13CB13"/>
<path d="M1555 577V525M1555 525L1541 499V447M1555 525L1569 499V473" stroke="white" stroke-width="2" stroke-miterlimit="1.11658" stroke-linejoin="round"/>
<rect width="12" height="12" transform="matrix(-1 0 0 1 1561 571)" fill="#0FA7D8"/>
<rect width="12" height="12" transform="matrix(-1 0 0 1 1561 545)" fill="#0FA7D8"/>
<rect width="12" height="12" transform="matrix(-1 0 0 1 1547 467)" fill="#0FA7D8"/>
<rect width="12" height="12" transform="matrix(-1 0 0 1 1575 467)" fill="#0FA7D8"/>
<circle cx="6" cy="6" r="6" transform="matrix(-1 0 0 1 1561 519)" fill="#13CB13"/>
<circle cx="6" cy="6" r="6" transform="matrix(-1 0 0 1 1547 493)" fill="#13CB13"/>
<circle cx="6" cy="6" r="6" transform="matrix(-1 0 0 1 1547 441)" fill="#FFFF00"/>
<circle cx="6" cy="6" r="6" transform="matrix(-1 0 0 1 1575 493)" fill="#13CB13"/>
<path d="M783 832V780M783 780L797 754V676M783 780L769 754V702" stroke="white" stroke-width="2" stroke-miterlimit="1.11658" stroke-linejoin="round"/>
<rect x="777" y="826" width="12" height="12" fill="#0FA7D8"/>
<rect x="777" y="800" width="12" height="12" fill="#0FA7D8"/>
<rect x="791" y="722" width="12" height="12" fill="#0FA7D8"/>
<rect x="797" y="670" width="8.48676" height="8.48676" transform="rotate(45 797 670)" fill="#FF00FF"/>
<rect x="763" y="722" width="12" height="12" fill="#0FA7D8"/>
<circle cx="783" cy="780" r="6" fill="#13CB13"/>
<circle cx="797" cy="754" r="6" fill="#13CB13"/>
<circle cx="797" cy="702" r="6" fill="#FFFF00"/>
<circle cx="769" cy="702" r="6" fill="#FFFF00"/>
<circle cx="769" cy="754" r="6" fill="#13CB13"/>
<path d="M838.002 639V587M838.002 587L824.002 561V483M838.002 587L852.002 561V509" stroke="white" stroke-width="2" stroke-miterlimit="1.11658" stroke-linejoin="round"/>
<rect width="12" height="12" transform="matrix(-1 0 0 1 844.002 633)" fill="#0FA7D8"/>
<rect width="12" height="12" transform="matrix(-1 0 0 1 844.002 607)" fill="#0FA7D8"/>
<rect width="12" height="12" transform="matrix(-1 0 0 1 830.002 529)" fill="#0FA7D8"/>
<rect width="8.48676" height="8.48676" transform="matrix(-0.707107 0.707107 0.707107 0.707107 824.002 477)" fill="#FF00FF"/>
<rect width="12" height="12" transform="matrix(-1 0 0 1 858.002 529)" fill="#0FA7D8"/>
<circle cx="6" cy="6" r="6" transform="matrix(-1 0 0 1 844.002 581)" fill="#13CB13"/>
<circle cx="6" cy="6" r="6" transform="matrix(-1 0 0 1 830.002 555)" fill="#13CB13"/>
<circle cx="6" cy="6" r="6" transform="matrix(-1 0 0 1 830.002 503)" fill="#FFFF00"/>
<circle cx="6" cy="6" r="6" transform="matrix(-1 0 0 1 858.002 503)" fill="#FFFF00"/>
<circle cx="6" cy="6" r="6" transform="matrix(-1 0 0 1 858.002 555)" fill="#13CB13"/>
<path d="M531.002 638V586M531.002 586L517.002 560V482M531.002 586L545.002 560V534" stroke="white" stroke-width="2" stroke-miterlimit="1.11658" stroke-linejoin="round"/>
<rect width="12" height="12" transform="matrix(-1 0 0 1 537.002 632)" fill="#0FA7D8"/>
<rect width="12" height="12" transform="matrix(-1 0 0 1 537.002 606)" fill="#0FA7D8"/>
<rect width="12" height="12" transform="matrix(-1 0 0 1 523.002 528)" fill="#0FA7D8"/>
<rect width="8.48676" height="8.48676" transform="matrix(-0.707107 0.707107 0.707107 0.707107 517.002 476)" fill="#FF00FF"/>
<rect width="12" height="12" transform="matrix(-1 0 0 1 551.002 528)" fill="#0FA7D8"/>
<circle cx="6" cy="6" r="6" transform="matrix(-1 0 0 1 537.002 580)" fill="#13CB13"/>
<circle cx="6" cy="6" r="6" transform="matrix(-1 0 0 1 523.002 554)" fill="#13CB13"/>
<circle cx="6" cy="6" r="6" transform="matrix(-1 0 0 1 523.002 502)" fill="#FFFF00"/>
<circle cx="6" cy="6" r="6" transform="matrix(-1 0 0 1 551.002 554)" fill="#13CB13"/>
<path d="M1658 577V525M1658 525L1684 499V447M1658 525L1632 499V473M1658 525V499" stroke="white" stroke-width="2" stroke-miterlimit="1.11658" stroke-linejoin="round"/>
<rect x="1652" y="571" width="12" height="12" fill="#0FA7D8"/>
<rect x="1652" y="545" width="12" height="12" fill="#0FA7D8"/>
<rect x="1678" y="467" width="12" height="12" fill="#0FA7D8"/>
<rect x="1626" y="467" width="12" height="12" fill="#0FA7D8"/>
<rect x="1652" y="493" width="12" height="12" fill="#0FA7D8"/>
<circle cx="1658" cy="525" r="6" fill="#13CB13"/>
<circle cx="1684" cy="499" r="6" fill="#13CB13"/>
<circle cx="1684" cy="447" r="6" fill="#FFFF00"/>
<circle cx="1632" cy="499" r="6" fill="#13CB13"/>
<path d="M1699 832V780M1699 780L1673 754V702M1699 780L1725 754V728M1699 780V754" stroke="white" stroke-width="2" stroke-miterlimit="1.11658" stroke-linejoin="round"/>
<rect width="12" height="12" transform="matrix(-1 0 0 1 1705 826)" fill="#0FA7D8"/>
<rect width="12" height="12" transform="matrix(-1 0 0 1 1705 800)" fill="#0FA7D8"/>
<rect width="12" height="12" transform="matrix(-1 0 0 1 1679 722)" fill="#0FA7D8"/>
<rect width="12" height="12" transform="matrix(-1 0 0 1 1731 722)" fill="#0FA7D8"/>
<rect width="12" height="12" transform="matrix(-1 0 0 1 1705 748)" fill="#0FA7D8"/>
<circle cx="6" cy="6" r="6" transform="matrix(-1 0 0 1 1705 774)" fill="#13CB13"/>
<circle cx="6" cy="6" r="6" transform="matrix(-1 0 0 1 1679 748)" fill="#13CB13"/>
<circle cx="6" cy="6" r="6" transform="matrix(-1 0 0 1 1679 696)" fill="#FFFF00"/>
<circle cx="6" cy="6" r="6" transform="matrix(-1 0 0 1 1731 748)" fill="#13CB13"/>
<path d="M1279 815V763M1279 763L1305 737V711M1279 763L1253 737V711M1279 763V737" stroke="white" stroke-width="2" stroke-miterlimit="1.11658" stroke-linejoin="round"/>
<rect x="1273" y="809" width="12" height="12" fill="#0FA7D8"/>
<rect x="1273" y="783" width="12" height="12" fill="#0FA7D8"/>
<rect x="1299" y="705" width="12" height="12" fill="#0FA7D8"/>
<rect x="1247" y="705" width="12" height="12" fill="#0FA7D8"/>
<rect x="1273" y="731" width="12" height="12" fill="#0FA7D8"/>
<circle cx="1279" cy="763" r="6" fill="#13CB13"/>
<circle cx="1305" cy="737" r="6" fill="#13CB13"/>
<circle cx="1253" cy="737" r="6" fill="#13CB13"/>
<path d="M220 637V585M220 585L246 559V481M220 585L194 559V481M220 585V559" stroke="white" stroke-width="2" stroke-miterlimit="1.11658" stroke-linejoin="round"/>
<rect x="214" y="631" width="12" height="12" fill="#0FA7D8"/>
<rect x="214" y="605" width="12" height="12" fill="#0FA7D8"/>
<rect x="240" y="527" width="12" height="12" fill="#0FA7D8"/>
<rect x="246.002" y="475" width="8.48676" height="8.48676" transform="rotate(45 246.002 475)" fill="#FF00FF"/>
<rect x="194.002" y="475" width="8.48676" height="8.48676" transform="rotate(45 194.002 475)" fill="#FF00FF"/>
<rect x="188" y="527" width="12" height="12" fill="#0FA7D8"/>
<rect x="214" y="553" width="12" height="12" fill="#0FA7D8"/>
<circle cx="220" cy="585" r="6" fill="#13CB13"/>
<circle cx="246" cy="559" r="6" fill="#13CB13"/>
<circle cx="246" cy="507" r="6" fill="#FFFF00"/>
<circle cx="194" cy="559" r="6" fill="#13CB13"/>
<circle cx="194" cy="507" r="6" fill="#FFFF00"/>
<path d="M2109 648V596M2109 596L2135 570V518M2109 596L2083 570V518M2109 596V570" stroke="white" stroke-width="2" stroke-miterlimit="1.11658" stroke-linejoin="round"/>
<rect x="2103" y="642" width="12" height="12" fill="#0FA7D8"/>
<rect x="2103" y="616" width="12" height="12" fill="#0FA7D8"/>
<rect x="2129" y="538" width="12" height="12" fill="#0FA7D8"/>
<rect x="2077" y="538" width="12" height="12" fill="#0FA7D8"/>
<rect x="2103" y="564" width="12" height="12" fill="#0FA7D8"/>
<circle cx="2109" cy="596" r="6" fill="#13CB13"/>
<circle cx="2135" cy="570" r="6" fill="#13CB13"/>
<circle cx="2135" cy="518" r="6" fill="#FFFF00"/>
<circle cx="2083" cy="570" r="6" fill="#13CB13"/>
<circle cx="2083" cy="518" r="6" fill="#FFFF00"/>
<path d="M291 777V829H318M291 777L305 751V673M291 777L277 751V673" stroke="white" stroke-width="2" stroke-miterlimit="1.11658" stroke-linejoin="round"/>
<rect x="285" y="823" width="12" height="12" fill="#0FA7D8"/>
<rect x="285" y="797" width="12" height="12" fill="#0FA7D8"/>
<rect x="299" y="719" width="12" height="12" fill="#0FA7D8"/>
<rect x="305" y="667" width="8.48676" height="8.48676" transform="rotate(45 305 667)" fill="#FF00FF"/>
<rect x="277.002" y="667" width="8.48676" height="8.48676" transform="rotate(45 277.002 667)" fill="#FF00FF"/>
<rect x="271" y="719" width="12" height="12" fill="#0FA7D8"/>
<circle cx="291" cy="777" r="6" fill="#13CB13"/>
<circle cx="305" cy="751" r="6" fill="#13CB13"/>
<circle cx="305" cy="699" r="6" fill="#FFFF00"/>
<circle cx="277" cy="751" r="6" fill="#13CB13"/>
<circle cx="277" cy="699" r="6" fill="#FFFF00"/>
<path d="M311 829L321 823L321 835L311 829Z" fill="#FF0000"/>
<path d="M347 585V637H375M347 585L373 559V481M347 585L321 559V481M347 585V559" stroke="white" stroke-width="2" stroke-miterlimit="1.11658" stroke-linejoin="round"/>
<rect x="341" y="631" width="12" height="12" fill="#0FA7D8"/>
<rect x="341" y="605" width="12" height="12" fill="#0FA7D8"/>
<rect x="367" y="527" width="12" height="12" fill="#0FA7D8"/>
<rect x="373.002" y="475" width="8.48676" height="8.48676" transform="rotate(45 373.002 475)" fill="#FF00FF"/>
<rect x="321.002" y="475" width="8.48676" height="8.48676" transform="rotate(45 321.002 475)" fill="#FF00FF"/>
<rect x="315" y="527" width="12" height="12" fill="#0FA7D8"/>
<rect x="341" y="553" width="12" height="12" fill="#0FA7D8"/>
<circle cx="347" cy="585" r="6" fill="#13CB13"/>
<circle cx="373" cy="559" r="6" fill="#13CB13"/>
<circle cx="373" cy="507" r="6" fill="#FFFF00"/>
<circle cx="321" cy="559" r="6" fill="#13CB13"/>
<circle cx="321" cy="507" r="6" fill="#FFFF00"/>
<path d="M367 637L377 631L377 643L367 637Z" fill="#FF0000"/>
<path d="M2391 700V752H2419M2391 700L2417 674V622M2391 700L2365 674V622M2391 700V674" stroke="white" stroke-width="2" stroke-miterlimit="1.11658" stroke-linejoin="round"/>
<rect x="2385" y="746" width="12" height="12" fill="#0FA7D8"/>
<rect x="2385" y="720" width="12" height="12" fill="#0FA7D8"/>
<rect x="2411" y="642" width="12" height="12" fill="#0FA7D8"/>
<rect x="2359" y="642" width="12" height="12" fill="#0FA7D8"/>
<rect x="2385" y="668" width="12" height="12" fill="#0FA7D8"/>
<circle cx="2391" cy="700" r="6" fill="#13CB13"/>
<circle cx="2417" cy="674" r="6" fill="#13CB13"/>
<circle cx="2417" cy="622" r="6" fill="#FFFF00"/>
<circle cx="2365" cy="674" r="6" fill="#13CB13"/>
<circle cx="2365" cy="622" r="6" fill="#FFFF00"/>
<path d="M2411 752L2421 746L2421 758L2411 752Z" fill="#FF0000"/>
<path d="M1597 693V745H1625M1597 693L1623 667V641M1597 693L1571 667V641M1597 693V667" stroke="white" stroke-width="2" stroke-miterlimit="1.11658" stroke-linejoin="round"/>
<rect x="1591" y="739" width="12" height="12" fill="#0FA7D8"/>
<rect x="1591" y="713" width="12" height="12" fill="#0FA7D8"/>
<rect x="1617" y="635" width="12" height="12" fill="#0FA7D8"/>
<rect x="1565" y="635" width="12" height="12" fill="#0FA7D8"/>
<rect x="1591" y="661" width="12" height="12" fill="#0FA7D8"/>
<circle cx="1597" cy="693" r="6" fill="#13CB13"/>
<circle cx="1623" cy="667" r="6" fill="#13CB13"/>
<circle cx="1571" cy="667" r="6" fill="#13CB13"/>
<path d="M1617 745L1627 739L1627 751L1617 745Z" fill="#FF0000"/>
<path d="M705 780V832H733M705 780L719 754V676M705 780L691 754V728" stroke="white" stroke-width="2" stroke-miterlimit="1.11658" stroke-linejoin="round"/>
<rect x="699" y="826" width="12" height="12" fill="#0FA7D8"/>
<rect x="699" y="800" width="12" height="12" fill="#0FA7D8"/>
<rect x="713" y="722" width="12" height="12" fill="#0FA7D8"/>
<rect x="719" y="670" width="8.48676" height="8.48676" transform="rotate(45 719 670)" fill="#FF00FF"/>
<rect x="685" y="722" width="12" height="12" fill="#0FA7D8"/>
<circle cx="705" cy="780" r="6" fill="#13CB13"/>
<circle cx="719" cy="754" r="6" fill="#13CB13"/>
<circle cx="719" cy="702" r="6" fill="#FFFF00"/>
<circle cx="691" cy="754" r="6" fill="#13CB13"/>
<path d="M725 832L735 826L735 838L725 832Z" fill="#FF0000"/>
<path d="M742.002 586V638H770M742.002 586L728.002 560V482M742.002 586L756.002 560V534" stroke="white" stroke-width="2" stroke-miterlimit="1.11658" stroke-linejoin="round"/>
<rect width="12" height="12" transform="matrix(-1 0 0 1 748.002 632)" fill="#0FA7D8"/>
<rect width="12" height="12" transform="matrix(-1 0 0 1 748.002 606)" fill="#0FA7D8"/>
<rect width="12" height="12" transform="matrix(-1 0 0 1 734.002 528)" fill="#0FA7D8"/>
<rect width="8.48676" height="8.48676" transform="matrix(-0.707107 0.707107 0.707107 0.707107 728.002 476)" fill="#FF00FF"/>
<rect width="12" height="12" transform="matrix(-1 0 0 1 762.002 528)" fill="#0FA7D8"/>
<circle cx="6" cy="6" r="6" transform="matrix(-1 0 0 1 748.002 580)" fill="#13CB13"/>
<circle cx="6" cy="6" r="6" transform="matrix(-1 0 0 1 734.002 554)" fill="#13CB13"/>
<circle cx="6" cy="6" r="6" transform="matrix(-1 0 0 1 734.002 502)" fill="#FFFF00"/>
<circle cx="6" cy="6" r="6" transform="matrix(-1 0 0 1 762.002 554)" fill="#13CB13"/>
<path d="M762 638L772 632L772 644L762 638Z" fill="#FF0000"/>
<path d="M935 832V780M935 780L961 754V702M935 780L909 754V702M935 780V754" stroke="white" stroke-width="2" stroke-miterlimit="1.11658" stroke-linejoin="round"/>
<rect x="929" y="826" width="12" height="12" fill="#0FA7D8"/>
<rect x="929" y="800" width="12" height="12" fill="#0FA7D8"/>
<rect x="955" y="722" width="12" height="12" fill="#0FA7D8"/>
<rect x="935.002" y="670" width="8.48676" height="8.48676" transform="rotate(45 935.002 670)" fill="#FF00FF"/>
<rect x="903" y="722" width="12" height="12" fill="#0FA7D8"/>
<rect x="929" y="748" width="12" height="12" fill="#0FA7D8"/>
<circle cx="935" cy="780" r="6" fill="#13CB13"/>
<circle cx="961" cy="754" r="6" fill="#13CB13"/>
<circle cx="961" cy="702" r="6" fill="#FFFF00"/>
<circle cx="909" cy="754" r="6" fill="#13CB13"/>
<circle cx="909" cy="702" r="6" fill="#FFFF00"/>
<path d="M961 693V689H935M935 689H909V693M935 689V685" stroke="white" stroke-width="2" stroke-linejoin="round"/>
<path d="M1112 307V359H1140M1112 307L1138 281V229M1112 307L1086 281V229M1112 307V281" stroke="white" stroke-width="2" stroke-miterlimit="1.11658" stroke-linejoin="round"/>
<rect x="1106" y="353" width="12" height="12" fill="#0FA7D8"/>
<rect x="1106" y="327" width="12" height="12" fill="#0FA7D8"/>
<rect x="1132" y="249" width="12" height="12" fill="#0FA7D8"/>
<rect x="1112" y="197" width="8.48676" height="8.48676" transform="rotate(45 1112 197)" fill="#FF00FF"/>
<rect x="1080" y="249" width="12" height="12" fill="#0FA7D8"/>
<rect x="1106" y="275" width="12" height="12" fill="#0FA7D8"/>
<circle cx="1112" cy="307" r="6" fill="#13CB13"/>
<circle cx="1138" cy="281" r="6" fill="#13CB13"/>
<circle cx="1138" cy="229" r="6" fill="#FFFF00"/>
<circle cx="1086" cy="281" r="6" fill="#13CB13"/>
<circle cx="1086" cy="229" r="6" fill="#FFFF00"/>
<path d="M1132 359L1142 353L1142 365L1132 359Z" fill="#FF0000"/>
<path d="M1138 220V216H1112M1112 216H1086V220M1112 216V212" stroke="white" stroke-width="2" stroke-linejoin="round"/>
<path d="M1074 752V700M1074 700L1088 674V648M1074 700L1060 674V648" stroke="white" stroke-width="2" stroke-miterlimit="1.11658" stroke-linejoin="round"/>
<rect x="1068" y="746" width="12" height="12" fill="#0FA7D8"/>
<rect x="1068" y="720" width="12" height="12" fill="#0FA7D8"/>
<rect x="1082" y="642" width="12" height="12" fill="#0FA7D8"/>
<rect x="1054" y="642" width="12" height="12" fill="#0FA7D8"/>
<circle cx="1074" cy="700" r="6" fill="#13CB13"/>
<circle cx="1088" cy="674" r="6" fill="#13CB13"/>
<circle cx="1060" cy="674" r="6" fill="#13CB13"/>
<path d="M1049 412V408H1035M1035 408H1021V412M1035 408V404" stroke="white" stroke-width="2" stroke-linejoin="round"/>
<path d="M1035 499V551H1062M1035 499L1049 473V421M1035 499L1021 473V421" stroke="white" stroke-width="2" stroke-miterlimit="1.11658" stroke-linejoin="round"/>
<rect x="1029" y="545" width="12" height="12" fill="#0FA7D8"/>
<rect x="1029" y="519" width="12" height="12" fill="#0FA7D8"/>
<rect x="1043" y="441" width="12" height="12" fill="#0FA7D8"/>
<rect x="1035" y="389" width="8.48676" height="8.48676" transform="rotate(45 1035 389)" fill="#FF00FF"/>
<rect x="1015" y="441" width="12" height="12" fill="#0FA7D8"/>
<circle cx="1035" cy="499" r="6" fill="#13CB13"/>
<circle cx="1049" cy="473" r="6" fill="#13CB13"/>
<circle cx="1049" cy="421" r="6" fill="#FFFF00"/>
<circle cx="1021" cy="473" r="6" fill="#13CB13"/>
<circle cx="1021" cy="421" r="6" fill="#FFFF00"/>
<path d="M1055 551L1065 545L1065 557L1055 551Z" fill="#FF0000"/>
<path d="M1407 111V163H1434M1407 111L1421 85V59M1407 111L1393 85V59" stroke="white" stroke-width="2" stroke-miterlimit="1.11658" stroke-linejoin="round"/>
<rect x="1401" y="157" width="12" height="12" fill="#0FA7D8"/>
<rect x="1401" y="131" width="12" height="12" fill="#0FA7D8"/>
<rect x="1415" y="53" width="12" height="12" fill="#0FA7D8"/>
<rect x="1387" y="53" width="12" height="12" fill="#0FA7D8"/>
<circle cx="1407" cy="111" r="6" fill="#13CB13"/>
<circle cx="1421" cy="85" r="6" fill="#13CB13"/>
<circle cx="1393" cy="85" r="6" fill="#13CB13"/>
<path d="M1427 163L1437 157L1437 169L1427 163Z" fill="#FF0000"/>
<path d="M1808 191V243H1836M1808 191L1794 165V139M1808 191L1822 165V119" stroke="white" stroke-width="2" stroke-miterlimit="1.11658" stroke-linejoin="round"/>
<rect width="12" height="12" transform="matrix(-1 0 0 1 1814 237)" fill="#0FA7D8"/>
<rect width="12" height="12" transform="matrix(-1 0 0 1 1814 211)" fill="#0FA7D8"/>
<rect width="12" height="12" transform="matrix(-1 0 0 1 1800 133)" fill="#0FA7D8"/>
<rect width="12" height="12" transform="matrix(-1 0 0 1 1828 133)" fill="#0FA7D8"/>
<circle cx="6" cy="6" r="6" transform="matrix(-1 0 0 1 1814 185)" fill="#13CB13"/>
<circle cx="6" cy="6" r="6" transform="matrix(-1 0 0 1 1800 159)" fill="#13CB13"/>
<circle cx="6" cy="6" r="6" transform="matrix(-1 0 0 1 1828 107)" fill="#FFFF00"/>
<circle cx="6" cy="6" r="6" transform="matrix(-1 0 0 1 1828 159)" fill="#13CB13"/>
<path d="M1828 243L1838 237L1838 249L1828 243Z" fill="#FF0000"/>
<path d="M1883 398V450H1911M1883 398L1869 372V320M1883 398L1897 372V346" stroke="white" stroke-width="2" stroke-miterlimit="1.11658" stroke-linejoin="round"/>
<rect width="12" height="12" transform="matrix(-1 0 0 1 1889 444)" fill="#0FA7D8"/>
<rect width="12" height="12" transform="matrix(-1 0 0 1 1889 418)" fill="#0FA7D8"/>
<rect width="12" height="12" transform="matrix(-1 0 0 1 1875 340)" fill="#0FA7D8"/>
<rect width="12" height="12" transform="matrix(-1 0 0 1 1903 340)" fill="#0FA7D8"/>
<circle cx="6" cy="6" r="6" transform="matrix(-1 0 0 1 1889 392)" fill="#13CB13"/>
<circle cx="6" cy="6" r="6" transform="matrix(-1 0 0 1 1875 366)" fill="#13CB13"/>
<circle cx="6" cy="6" r="6" transform="matrix(-1 0 0 1 1875 314)" fill="#FFFF00"/>
<circle cx="6" cy="6" r="6" transform="matrix(-1 0 0 1 1903 366)" fill="#13CB13"/>
<path d="M1903 450L1913 444L1913 456L1903 450Z" fill="#FF0000"/>
<path d="M1946 547V599H1974M1946 547L1972 521V469M1946 547L1920 521V495M1946 547V521" stroke="white" stroke-width="2" stroke-miterlimit="1.11658" stroke-linejoin="round"/>
<rect x="1940" y="593" width="12" height="12" fill="#0FA7D8"/>
<rect x="1940" y="567" width="12" height="12" fill="#0FA7D8"/>
<rect x="1966" y="489" width="12" height="12" fill="#0FA7D8"/>
<rect x="1914" y="489" width="12" height="12" fill="#0FA7D8"/>
<rect x="1940" y="515" width="12" height="12" fill="#0FA7D8"/>
<circle cx="1946" cy="547" r="6" fill="#13CB13"/>
<circle cx="1972" cy="521" r="6" fill="#13CB13"/>
<circle cx="1972" cy="469" r="6" fill="#FFFF00"/>
<circle cx="1920" cy="521" r="6" fill="#13CB13"/>
<path d="M1966 599L1976 593L1976 605L1966 599Z" fill="#FF0000"/>
<path d="M2048 763V815H2076M2048 763L2074 737V711M2048 763L2022 737V685M2048 763V737" stroke="white" stroke-width="2" stroke-miterlimit="1.11658" stroke-linejoin="round"/>
<rect x="2042" y="809" width="12" height="12" fill="#0FA7D8"/>
<rect x="2042" y="783" width="12" height="12" fill="#0FA7D8"/>
<rect x="2068" y="705" width="12" height="12" fill="#0FA7D8"/>
<rect x="2016" y="705" width="12" height="12" fill="#0FA7D8"/>
<rect x="2042" y="731" width="12" height="12" fill="#0FA7D8"/>
<circle cx="2048" cy="763" r="6" fill="#13CB13"/>
<circle cx="2074" cy="737" r="6" fill="#13CB13"/>
<circle cx="2022" cy="685" r="6" fill="#FFFF00"/>
<circle cx="2022" cy="737" r="6" fill="#13CB13"/>
<path d="M2068 815L2078 809L2078 821L2068 815Z" fill="#FF0000"/>
<path d="M2273 225V277H2300M2273 225L2287 199V147M2273 225L2259 199V147" stroke="white" stroke-width="2" stroke-miterlimit="1.11658" stroke-linejoin="round"/>
<rect x="2267" y="271" width="12" height="12" fill="#0FA7D8"/>
<rect x="2267" y="245" width="12" height="12" fill="#0FA7D8"/>
<rect x="2281" y="167" width="12" height="12" fill="#0FA7D8"/>
<rect x="2253" y="167" width="12" height="12" fill="#0FA7D8"/>
<circle cx="2273" cy="225" r="6" fill="#13CB13"/>
<circle cx="2287" cy="199" r="6" fill="#13CB13"/>
<circle cx="2287" cy="147" r="6" fill="#FFFF00"/>
<circle cx="2259" cy="199" r="6" fill="#13CB13"/>
<circle cx="2259" cy="147" r="6" fill="#FFFF00"/>
<path d="M2293 277L2303 271L2303 283L2293 277Z" fill="#FF0000"/>
<path d="M30.1136 1106V1088.55H36.0114C37.3807 1088.55 38.5 1088.79 39.3693 1089.29C40.2443 1089.78 40.892 1090.44 41.3125 1091.27C41.733 1092.11 41.9432 1093.04 41.9432 1094.07C41.9432 1095.1 41.733 1096.03 41.3125 1096.87C40.8977 1097.71 40.2557 1098.38 39.3864 1098.88C38.517 1099.38 37.4034 1099.62 36.0455 1099.62H31.8182V1097.75H35.9773C36.9148 1097.75 37.6676 1097.59 38.2358 1097.26C38.804 1096.94 39.2159 1096.5 39.4716 1095.95C39.733 1095.39 39.8636 1094.77 39.8636 1094.07C39.8636 1093.37 39.733 1092.74 39.4716 1092.19C39.2159 1091.64 38.8011 1091.21 38.2273 1090.9C37.6534 1090.58 36.892 1090.42 35.9432 1090.42H32.2273V1106H30.1136ZM50.4233 1106.27C49.1619 1106.27 48.0739 1105.99 47.1591 1105.44C46.25 1104.88 45.5483 1104.09 45.054 1103.09C44.5653 1102.07 44.321 1100.9 44.321 1099.56C44.321 1098.22 44.5653 1097.03 45.054 1096.01C45.5483 1094.98 46.2358 1094.18 47.1165 1093.61C48.0028 1093.03 49.0369 1092.74 50.2188 1092.74C50.9006 1092.74 51.5739 1092.85 52.2386 1093.08C52.9034 1093.31 53.5085 1093.68 54.054 1094.19C54.5994 1094.69 55.0341 1095.36 55.358 1096.2C55.6818 1097.03 55.8438 1098.06 55.8438 1099.28V1100.14H45.7528V1098.4H53.7983C53.7983 1097.66 53.6506 1097 53.3551 1096.42C53.0653 1095.84 52.6506 1095.38 52.1108 1095.05C51.5767 1094.71 50.946 1094.55 50.2188 1094.55C49.4176 1094.55 48.7244 1094.74 48.1392 1095.14C47.5597 1095.53 47.1136 1096.05 46.8011 1096.68C46.4886 1097.31 46.3324 1097.98 46.3324 1098.7V1099.86C46.3324 1100.85 46.5028 1101.69 46.8438 1102.38C47.1903 1103.06 47.6705 1103.58 48.2841 1103.94C48.8977 1104.29 49.6108 1104.47 50.4233 1104.47C50.9517 1104.47 51.429 1104.39 51.8551 1104.24C52.2869 1104.09 52.6591 1103.86 52.9716 1103.56C53.2841 1103.26 53.5256 1102.87 53.696 1102.42L55.6392 1102.97C55.4347 1103.62 55.0909 1104.2 54.608 1104.7C54.125 1105.2 53.5284 1105.59 52.8182 1105.86C52.108 1106.14 51.3097 1106.27 50.4233 1106.27ZM62.7557 1106.31C61.9261 1106.31 61.1733 1106.15 60.4972 1105.84C59.821 1105.52 59.2841 1105.06 58.8864 1104.47C58.4886 1103.86 58.2898 1103.14 58.2898 1102.28C58.2898 1101.53 58.4375 1100.93 58.733 1100.46C59.0284 1099.99 59.4233 1099.62 59.9176 1099.35C60.4119 1099.09 60.9574 1098.89 61.554 1098.76C62.1563 1098.62 62.7614 1098.51 63.3693 1098.43C64.1648 1098.33 64.8097 1098.25 65.304 1098.2C65.804 1098.14 66.1676 1098.05 66.3949 1097.92C66.6278 1097.79 66.7443 1097.56 66.7443 1097.24V1097.17C66.7443 1096.33 66.5142 1095.68 66.054 1095.21C65.5994 1094.74 64.9091 1094.51 63.983 1094.51C63.0227 1094.51 62.2699 1094.72 61.7244 1095.14C61.179 1095.56 60.7955 1096.01 60.5739 1096.49L58.6648 1095.81C59.0057 1095.01 59.4602 1094.39 60.0284 1093.95C60.6023 1093.5 61.2273 1093.19 61.9034 1093.01C62.5852 1092.83 63.2557 1092.74 63.9148 1092.74C64.3352 1092.74 64.8182 1092.79 65.3636 1092.89C65.9148 1092.99 66.446 1093.19 66.9574 1093.5C67.4744 1093.8 67.9034 1094.27 68.2443 1094.89C68.5852 1095.51 68.7557 1096.34 68.7557 1097.38V1106H66.7443V1104.23H66.642C66.5057 1104.51 66.2784 1104.82 65.9602 1105.14C65.642 1105.46 65.2188 1105.74 64.6903 1105.97C64.1619 1106.19 63.517 1106.31 62.7557 1106.31ZM63.0625 1104.5C63.858 1104.5 64.5284 1104.34 65.0739 1104.03C65.625 1103.72 66.0398 1103.32 66.3182 1102.82C66.6023 1102.33 66.7443 1101.81 66.7443 1101.26V1099.42C66.6591 1099.52 66.4716 1099.62 66.1818 1099.7C65.8977 1099.78 65.5682 1099.85 65.1932 1099.91C64.8239 1099.97 64.4631 1100.02 64.1108 1100.07C63.7642 1100.11 63.483 1100.14 63.267 1100.17C62.7443 1100.24 62.2557 1100.35 61.8011 1100.5C61.3523 1100.65 60.9886 1100.87 60.7102 1101.18C60.4375 1101.47 60.3011 1101.87 60.3011 1102.39C60.3011 1103.09 60.5597 1103.61 61.0767 1103.97C61.5994 1104.32 62.2614 1104.5 63.0625 1104.5ZM74.3018 1101.23L74.2678 1098.74H74.6768L80.4041 1092.91H82.8928L76.7905 1099.08H76.62L74.3018 1101.23ZM72.4268 1106V1088.55H74.4382V1106H72.4268ZM80.745 1106L75.6314 1099.52L77.0632 1098.12L83.3018 1106H80.745Z" fill="white"/>
<path d="M156.365 1088.55V1106H154.251V1090.76H154.149L149.888 1093.59V1091.44L154.251 1088.55H156.365Z" fill="white"/>
<path d="M214.041 1106V1104.47L219.803 1098.16C220.479 1097.42 221.036 1096.78 221.473 1096.23C221.911 1095.68 222.234 1095.16 222.445 1094.68C222.661 1094.19 222.768 1093.68 222.768 1093.15C222.768 1092.53 222.621 1092 222.325 1091.55C222.036 1091.11 221.638 1090.76 221.132 1090.51C220.626 1090.27 220.058 1090.15 219.428 1090.15C218.757 1090.15 218.172 1090.29 217.672 1090.57C217.178 1090.84 216.794 1091.22 216.521 1091.72C216.254 1092.21 216.121 1092.79 216.121 1093.45H214.109C214.109 1092.43 214.345 1091.53 214.817 1090.76C215.288 1089.99 215.93 1089.39 216.743 1088.95C217.561 1088.52 218.479 1088.31 219.496 1088.31C220.518 1088.31 221.425 1088.52 222.214 1088.95C223.004 1089.39 223.624 1089.97 224.072 1090.7C224.521 1091.43 224.746 1092.25 224.746 1093.15C224.746 1093.79 224.629 1094.42 224.396 1095.03C224.169 1095.64 223.771 1096.32 223.203 1097.07C222.641 1097.81 221.859 1098.72 220.859 1099.8L216.939 1103.99V1104.12H225.053V1106H214.041Z" fill="white"/>
<path d="M295.064 1106.24C293.939 1106.24 292.936 1106.05 292.055 1105.66C291.18 1105.27 290.484 1104.74 289.967 1104.05C289.456 1103.36 289.178 1102.55 289.132 1101.64H291.28C291.325 1102.2 291.518 1102.68 291.859 1103.09C292.2 1103.5 292.646 1103.81 293.197 1104.03C293.749 1104.25 294.359 1104.36 295.03 1104.36C295.78 1104.36 296.445 1104.23 297.024 1103.97C297.604 1103.71 298.058 1103.35 298.388 1102.88C298.717 1102.41 298.882 1101.88 298.882 1101.26C298.882 1100.62 298.723 1100.05 298.405 1099.57C298.087 1099.07 297.621 1098.68 297.007 1098.41C296.393 1098.13 295.643 1097.99 294.757 1097.99H293.359V1096.11H294.757C295.45 1096.11 296.058 1095.99 296.581 1095.74C297.109 1095.49 297.521 1095.14 297.817 1094.68C298.118 1094.23 298.268 1093.69 298.268 1093.08C298.268 1092.49 298.138 1091.97 297.876 1091.54C297.615 1091.1 297.246 1090.76 296.768 1090.51C296.297 1090.27 295.74 1090.15 295.098 1090.15C294.496 1090.15 293.928 1090.26 293.393 1090.48C292.865 1090.7 292.433 1091.01 292.098 1091.43C291.763 1091.84 291.581 1092.33 291.553 1092.91H289.507C289.541 1091.99 289.817 1091.19 290.334 1090.51C290.851 1089.81 291.527 1089.27 292.362 1088.89C293.203 1088.5 294.126 1088.31 295.132 1088.31C296.212 1088.31 297.138 1088.53 297.911 1088.96C298.683 1089.39 299.277 1089.97 299.692 1090.68C300.107 1091.39 300.314 1092.15 300.314 1092.98C300.314 1093.96 300.055 1094.8 299.538 1095.49C299.027 1096.18 298.331 1096.66 297.45 1096.93V1097.07C298.553 1097.25 299.413 1097.72 300.033 1098.47C300.652 1099.22 300.962 1100.15 300.962 1101.26C300.962 1102.21 300.703 1103.06 300.186 1103.82C299.675 1104.57 298.976 1105.16 298.089 1105.59C297.203 1106.02 296.195 1106.24 295.064 1106.24Z" fill="white"/>
<path d="M340.699 1102.42V1100.68L348.369 1088.55H349.63V1091.24H348.778L342.983 1100.41V1100.55H353.312V1102.42H340.699ZM348.914 1106V1101.89V1101.08V1088.55H350.926V1106H348.914Z" fill="white"/>
<path d="M485.461 1106.24C484.461 1106.24 483.56 1106.04 482.759 1105.64C481.958 1105.24 481.316 1104.7 480.833 1104.01C480.35 1103.31 480.086 1102.52 480.04 1101.64H482.086C482.165 1102.43 482.523 1103.08 483.159 1103.6C483.801 1104.11 484.569 1104.36 485.461 1104.36C486.176 1104.36 486.813 1104.2 487.37 1103.86C487.932 1103.53 488.373 1103.07 488.691 1102.48C489.015 1101.89 489.176 1101.22 489.176 1100.48C489.176 1099.72 489.009 1099.04 488.674 1098.44C488.344 1097.84 487.89 1097.36 487.31 1097.02C486.73 1096.67 486.069 1096.49 485.324 1096.49C484.79 1096.48 484.242 1096.57 483.679 1096.74C483.117 1096.9 482.654 1097.11 482.29 1097.38L480.313 1097.14L481.37 1088.55H490.438V1090.42H483.142L482.529 1095.57H482.631C482.989 1095.28 483.438 1095.05 483.978 1094.86C484.517 1094.67 485.08 1094.58 485.665 1094.58C486.733 1094.58 487.685 1094.84 488.52 1095.35C489.361 1095.85 490.02 1096.55 490.498 1097.43C490.98 1098.31 491.222 1099.31 491.222 1100.44C491.222 1101.56 490.972 1102.55 490.472 1103.43C489.978 1104.3 489.296 1104.98 488.426 1105.49C487.557 1105.99 486.569 1106.24 485.461 1106.24Z" fill="white"/>
<path d="M530.614 1106.24C529.898 1106.23 529.182 1106.09 528.466 1105.83C527.75 1105.57 527.097 1105.13 526.506 1104.51C525.915 1103.88 525.441 1103.04 525.083 1101.98C524.725 1100.91 524.546 1099.57 524.546 1097.95C524.546 1096.41 524.691 1095.04 524.98 1093.85C525.27 1092.65 525.691 1091.64 526.242 1090.82C526.793 1090 527.458 1089.37 528.236 1088.95C529.02 1088.52 529.904 1088.31 530.887 1088.31C531.864 1088.31 532.733 1088.5 533.495 1088.89C534.262 1089.28 534.887 1089.82 535.37 1090.51C535.853 1091.21 536.165 1092.01 536.307 1092.91H534.228C534.034 1092.12 533.659 1091.47 533.103 1090.96C532.546 1090.44 531.807 1090.18 530.887 1090.18C529.534 1090.18 528.469 1090.77 527.691 1091.95C526.918 1093.12 526.529 1094.77 526.523 1096.9H526.659C526.978 1096.41 527.355 1096 527.793 1095.66C528.236 1095.32 528.725 1095.05 529.259 1094.86C529.793 1094.67 530.358 1094.58 530.955 1094.58C531.955 1094.58 532.87 1094.83 533.699 1095.33C534.529 1095.82 535.194 1096.51 535.694 1097.38C536.194 1098.25 536.444 1099.25 536.444 1100.38C536.444 1101.45 536.202 1102.44 535.719 1103.34C535.236 1104.23 534.557 1104.94 533.682 1105.47C532.813 1105.99 531.79 1106.25 530.614 1106.24ZM530.614 1104.36C531.33 1104.36 531.972 1104.18 532.54 1103.83C533.114 1103.47 533.566 1102.99 533.895 1102.39C534.23 1101.78 534.398 1101.11 534.398 1100.38C534.398 1099.65 534.236 1099 533.912 1098.41C533.594 1097.81 533.154 1097.34 532.591 1096.98C532.034 1096.63 531.398 1096.45 530.682 1096.45C530.142 1096.45 529.64 1096.56 529.174 1096.78C528.708 1096.99 528.299 1097.28 527.946 1097.65C527.6 1098.02 527.327 1098.44 527.128 1098.92C526.929 1099.39 526.83 1099.89 526.83 1100.41C526.83 1101.1 526.992 1101.75 527.316 1102.35C527.645 1102.95 528.094 1103.44 528.662 1103.81C529.236 1104.18 529.887 1104.36 530.614 1104.36Z" fill="white"/>
<path d="M699.497 1106L707.304 1090.56V1090.42H698.304V1088.55H709.485V1090.52L701.713 1106H699.497Z" fill="white"/>
<path d="M742.503 1106.24C741.333 1106.24 740.299 1106.03 739.401 1105.62C738.509 1105.2 737.813 1104.62 737.313 1103.89C736.813 1103.15 736.566 1102.31 736.571 1101.36C736.566 1100.62 736.711 1099.94 737.006 1099.32C737.301 1098.69 737.705 1098.16 738.216 1097.74C738.733 1097.32 739.31 1097.05 739.946 1096.93V1096.83C739.111 1096.61 738.446 1096.14 737.952 1095.42C737.458 1094.7 737.213 1093.87 737.219 1092.94C737.213 1092.06 737.438 1091.26 737.892 1090.57C738.347 1089.87 738.972 1089.32 739.767 1088.91C740.569 1088.51 741.48 1088.31 742.503 1088.31C743.515 1088.31 744.418 1088.51 745.213 1088.91C746.009 1089.32 746.634 1089.87 747.088 1090.57C747.549 1091.26 747.782 1092.06 747.787 1092.94C747.782 1093.87 747.529 1094.7 747.029 1095.42C746.534 1096.14 745.878 1096.61 745.06 1096.83V1096.93C745.691 1097.05 746.259 1097.32 746.765 1097.74C747.27 1098.16 747.674 1098.69 747.975 1099.32C748.276 1099.94 748.429 1100.62 748.435 1101.36C748.429 1102.31 748.174 1103.15 747.668 1103.89C747.168 1104.62 746.472 1105.2 745.58 1105.62C744.694 1106.03 743.668 1106.24 742.503 1106.24ZM742.503 1104.36C743.293 1104.36 743.975 1104.24 744.549 1103.98C745.123 1103.72 745.566 1103.36 745.878 1102.9C746.191 1102.43 746.35 1101.89 746.355 1101.26C746.35 1100.6 746.179 1100.02 745.844 1099.51C745.509 1099.01 745.051 1098.61 744.472 1098.32C743.898 1098.03 743.242 1097.89 742.503 1097.89C741.759 1097.89 741.094 1098.03 740.509 1098.32C739.929 1098.61 739.472 1099.01 739.137 1099.51C738.807 1100.02 738.645 1100.6 738.651 1101.26C738.645 1101.89 738.796 1102.43 739.103 1102.9C739.415 1103.36 739.861 1103.72 740.441 1103.98C741.02 1104.24 741.708 1104.36 742.503 1104.36ZM742.503 1096.08C743.128 1096.08 743.682 1095.95 744.165 1095.7C744.654 1095.45 745.037 1095.11 745.316 1094.66C745.594 1094.21 745.736 1093.68 745.742 1093.08C745.736 1092.49 745.597 1091.97 745.324 1091.54C745.051 1091.09 744.674 1090.75 744.191 1090.51C743.708 1090.27 743.145 1090.15 742.503 1090.15C741.85 1090.15 741.279 1090.27 740.79 1090.51C740.301 1090.75 739.924 1091.09 739.657 1091.54C739.39 1091.97 739.259 1092.49 739.265 1093.08C739.259 1093.68 739.392 1094.21 739.665 1094.66C739.944 1095.11 740.327 1095.45 740.816 1095.7C741.304 1095.95 741.867 1096.08 742.503 1096.08Z" fill="white"/>
<path d="M783.375 1088.31C784.091 1088.31 784.807 1088.45 785.523 1088.72C786.239 1088.98 786.892 1089.43 787.483 1090.05C788.074 1090.66 788.549 1091.5 788.907 1092.56C789.265 1093.62 789.444 1094.95 789.444 1096.56C789.444 1098.11 789.296 1099.49 789 1100.69C788.711 1101.89 788.29 1102.9 787.739 1103.72C787.194 1104.55 786.529 1105.17 785.745 1105.6C784.966 1106.03 784.086 1106.24 783.103 1106.24C782.125 1106.24 781.253 1106.05 780.486 1105.66C779.725 1105.27 779.1 1104.72 778.611 1104.03C778.128 1103.33 777.819 1102.52 777.682 1101.6H779.762C779.949 1102.4 780.321 1103.07 780.878 1103.59C781.441 1104.11 782.182 1104.36 783.103 1104.36C784.449 1104.36 785.512 1103.78 786.29 1102.6C787.074 1101.42 787.466 1099.76 787.466 1097.61H787.33C787.012 1098.09 786.634 1098.5 786.196 1098.85C785.759 1099.2 785.273 1099.46 784.739 1099.65C784.205 1099.84 783.637 1099.93 783.034 1099.93C782.034 1099.93 781.117 1099.68 780.282 1099.19C779.452 1098.69 778.787 1098.01 778.287 1097.14C777.793 1096.26 777.546 1095.26 777.546 1094.14C777.546 1093.07 777.784 1092.09 778.262 1091.2C778.745 1090.31 779.421 1089.6 780.29 1089.07C781.165 1088.55 782.194 1088.29 783.375 1088.31ZM783.375 1090.18C782.659 1090.18 782.015 1090.36 781.441 1090.72C780.873 1091.07 780.421 1091.55 780.086 1092.15C779.756 1092.75 779.591 1093.41 779.591 1094.14C779.591 1094.86 779.75 1095.53 780.069 1096.12C780.392 1096.71 780.833 1097.18 781.39 1097.54C781.952 1097.88 782.591 1098.06 783.307 1098.06C783.847 1098.06 784.35 1097.95 784.816 1097.74C785.282 1097.53 785.688 1097.23 786.034 1096.86C786.387 1096.49 786.662 1096.07 786.861 1095.59C787.06 1095.12 787.159 1094.62 787.159 1094.1C787.159 1093.42 786.995 1092.78 786.665 1092.18C786.341 1091.59 785.892 1091.11 785.319 1090.74C784.75 1090.37 784.103 1090.18 783.375 1090.18Z" fill="white"/>
<path d="M833.365 1088.55V1106H831.251V1090.76H831.149L826.888 1093.59V1091.44L831.251 1088.55H833.365ZM844.078 1106.24C842.794 1106.24 841.7 1105.89 840.797 1105.19C839.893 1104.49 839.203 1103.47 838.726 1102.13C838.249 1100.79 838.01 1099.17 838.01 1097.27C838.01 1095.39 838.249 1093.78 838.726 1092.44C839.209 1091.1 839.902 1090.08 840.805 1089.37C841.714 1088.66 842.805 1088.31 844.078 1088.31C845.351 1088.31 846.439 1088.66 847.342 1089.37C848.251 1090.08 848.945 1091.1 849.422 1092.44C849.905 1093.78 850.146 1095.39 850.146 1097.27C850.146 1099.17 849.908 1100.79 849.43 1102.13C848.953 1103.47 848.263 1104.49 847.359 1105.19C846.456 1105.89 845.362 1106.24 844.078 1106.24ZM844.078 1104.36C845.351 1104.36 846.339 1103.75 847.044 1102.52C847.749 1101.3 848.101 1099.55 848.101 1097.27C848.101 1095.76 847.939 1094.47 847.615 1093.41C847.297 1092.35 846.837 1091.54 846.234 1090.98C845.638 1090.43 844.919 1090.15 844.078 1090.15C842.817 1090.15 841.831 1090.77 841.121 1092.01C840.411 1093.25 840.055 1095.01 840.055 1097.27C840.055 1098.78 840.214 1100.07 840.533 1101.12C840.851 1102.18 841.308 1102.99 841.905 1103.54C842.507 1104.09 843.232 1104.36 844.078 1104.36Z" fill="white"/>
<path d="M932.287 1088.55V1106H930.173V1090.76H930.071L925.81 1093.59V1091.44L930.173 1088.55H932.287ZM943.443 1088.55V1106H941.33V1090.76H941.227L936.966 1093.59V1091.44L941.33 1088.55H943.443Z" fill="white"/>
<path d="M1030.1 1088.55V1106H1027.99V1090.76H1027.88L1023.62 1093.59V1091.44L1027.99 1088.55H1030.1ZM1035.12 1106V1104.47L1040.88 1098.16C1041.56 1097.42 1042.11 1096.78 1042.55 1096.23C1042.99 1095.68 1043.31 1095.16 1043.52 1094.68C1043.74 1094.19 1043.85 1093.68 1043.85 1093.15C1043.85 1092.53 1043.7 1092 1043.4 1091.55C1043.11 1091.11 1042.72 1090.76 1042.21 1090.51C1041.7 1090.27 1041.14 1090.15 1040.51 1090.15C1039.84 1090.15 1039.25 1090.29 1038.75 1090.57C1038.26 1090.84 1037.87 1091.22 1037.6 1091.72C1037.33 1092.21 1037.2 1092.79 1037.2 1093.45H1035.19C1035.19 1092.43 1035.42 1091.53 1035.89 1090.76C1036.37 1089.99 1037.01 1089.39 1037.82 1088.95C1038.64 1088.52 1039.56 1088.31 1040.57 1088.31C1041.6 1088.31 1042.5 1088.52 1043.29 1088.95C1044.08 1089.39 1044.7 1089.97 1045.15 1090.7C1045.6 1091.43 1045.82 1092.25 1045.82 1093.15C1045.82 1093.79 1045.71 1094.42 1045.47 1095.03C1045.25 1095.64 1044.85 1096.32 1044.28 1097.07C1043.72 1097.81 1042.94 1098.72 1041.94 1099.8L1038.02 1103.99V1104.12H1046.13V1106H1035.12Z" fill="white"/>
<path d="M1069.22 1088.55V1106H1067.11V1090.76H1067.01L1062.75 1093.59V1091.44L1067.11 1088.55H1069.22ZM1080.14 1106.24C1079.02 1106.24 1078.01 1106.05 1077.13 1105.66C1076.26 1105.27 1075.56 1104.74 1075.05 1104.05C1074.53 1103.36 1074.26 1102.55 1074.21 1101.64H1076.36C1076.4 1102.2 1076.6 1102.68 1076.94 1103.09C1077.28 1103.5 1077.72 1103.81 1078.28 1104.03C1078.83 1104.25 1079.44 1104.36 1080.11 1104.36C1080.86 1104.36 1081.52 1104.23 1082.1 1103.97C1082.68 1103.71 1083.14 1103.35 1083.47 1102.88C1083.8 1102.41 1083.96 1101.88 1083.96 1101.26C1083.96 1100.62 1083.8 1100.05 1083.48 1099.57C1083.16 1099.07 1082.7 1098.68 1082.09 1098.41C1081.47 1098.13 1080.72 1097.99 1079.84 1097.99H1078.44V1096.11H1079.84C1080.53 1096.11 1081.14 1095.99 1081.66 1095.74C1082.19 1095.49 1082.6 1095.14 1082.89 1094.68C1083.2 1094.23 1083.35 1093.69 1083.35 1093.08C1083.35 1092.49 1083.22 1091.97 1082.95 1091.54C1082.69 1091.1 1082.32 1090.76 1081.85 1090.51C1081.38 1090.27 1080.82 1090.15 1080.18 1090.15C1079.57 1090.15 1079.01 1090.26 1078.47 1090.48C1077.94 1090.7 1077.51 1091.01 1077.18 1091.43C1076.84 1091.84 1076.66 1092.33 1076.63 1092.91H1074.59C1074.62 1091.99 1074.89 1091.19 1075.41 1090.51C1075.93 1089.81 1076.61 1089.27 1077.44 1088.89C1078.28 1088.5 1079.2 1088.31 1080.21 1088.31C1081.29 1088.31 1082.22 1088.53 1082.99 1088.96C1083.76 1089.39 1084.36 1089.97 1084.77 1090.68C1085.18 1091.39 1085.39 1092.15 1085.39 1092.98C1085.39 1093.96 1085.13 1094.8 1084.62 1095.49C1084.11 1096.18 1083.41 1096.66 1082.53 1096.93V1097.07C1083.63 1097.25 1084.49 1097.72 1085.11 1098.47C1085.73 1099.22 1086.04 1100.15 1086.04 1101.26C1086.04 1102.21 1085.78 1103.06 1085.26 1103.82C1084.75 1104.57 1084.05 1105.16 1083.17 1105.59C1082.28 1106.02 1081.27 1106.24 1080.14 1106.24Z" fill="white"/>
<path d="M1106.17 1088.55V1106H1104.05V1090.76H1103.95L1099.69 1093.59V1091.44L1104.05 1088.55H1106.17ZM1110.78 1102.42V1100.68L1118.45 1088.55H1119.71V1091.24H1118.86L1113.06 1100.41V1100.55H1123.39V1102.42H1110.78ZM1118.99 1106V1101.89V1101.08V1088.55H1121V1106H1118.99Z" fill="white"/>
<path d="M1274.06 1088.55V1106H1271.95V1090.76H1271.85L1267.59 1093.59V1091.44L1271.95 1088.55H1274.06ZM1284.54 1106.24C1283.54 1106.24 1282.64 1106.04 1281.84 1105.64C1281.04 1105.24 1280.39 1104.7 1279.91 1104.01C1279.43 1103.31 1279.16 1102.52 1279.12 1101.64H1281.16C1281.24 1102.43 1281.6 1103.08 1282.24 1103.6C1282.88 1104.11 1283.65 1104.36 1284.54 1104.36C1285.25 1104.36 1285.89 1104.2 1286.45 1103.86C1287.01 1103.53 1287.45 1103.07 1287.77 1102.48C1288.09 1101.89 1288.25 1101.22 1288.25 1100.48C1288.25 1099.72 1288.09 1099.04 1287.75 1098.44C1287.42 1097.84 1286.97 1097.36 1286.39 1097.02C1285.81 1096.67 1285.15 1096.49 1284.4 1096.49C1283.87 1096.48 1283.32 1096.57 1282.76 1096.74C1282.19 1096.9 1281.73 1097.11 1281.37 1097.38L1279.39 1097.14L1280.45 1088.55H1289.52V1090.42H1282.22L1281.61 1095.57H1281.71C1282.07 1095.28 1282.52 1095.05 1283.06 1094.86C1283.6 1094.67 1284.16 1094.58 1284.74 1094.58C1285.81 1094.58 1286.76 1094.84 1287.6 1095.35C1288.44 1095.85 1289.1 1096.55 1289.58 1097.43C1290.06 1098.31 1290.3 1099.31 1290.3 1100.44C1290.3 1101.56 1290.05 1102.55 1289.55 1103.43C1289.06 1104.3 1288.37 1104.98 1287.5 1105.49C1286.64 1105.99 1285.65 1106.24 1284.54 1106.24Z" fill="white"/>
<path d="M1402.38 1088.55V1106H1400.26V1090.76H1400.16L1395.9 1093.59V1091.44L1400.26 1088.55H1402.38ZM1413.19 1106.24C1412.48 1106.23 1411.76 1106.09 1411.04 1105.83C1410.33 1105.57 1409.68 1105.13 1409.08 1104.51C1408.49 1103.88 1408.02 1103.04 1407.66 1101.98C1407.3 1100.91 1407.12 1099.57 1407.12 1097.95C1407.12 1096.41 1407.27 1095.04 1407.56 1093.85C1407.85 1092.65 1408.27 1091.64 1408.82 1090.82C1409.37 1090 1410.04 1089.37 1410.81 1088.95C1411.6 1088.52 1412.48 1088.31 1413.46 1088.31C1414.44 1088.31 1415.31 1088.5 1416.07 1088.89C1416.84 1089.28 1417.46 1089.82 1417.95 1090.51C1418.43 1091.21 1418.74 1092.01 1418.89 1092.91H1416.81C1416.61 1092.12 1416.24 1091.47 1415.68 1090.96C1415.12 1090.44 1414.39 1090.18 1413.46 1090.18C1412.11 1090.18 1411.05 1090.77 1410.27 1091.95C1409.5 1093.12 1409.11 1094.77 1409.1 1096.9H1409.24C1409.56 1096.41 1409.93 1096 1410.37 1095.66C1410.81 1095.32 1411.3 1095.05 1411.84 1094.86C1412.37 1094.67 1412.94 1094.58 1413.53 1094.58C1414.53 1094.58 1415.45 1094.83 1416.28 1095.33C1417.11 1095.82 1417.77 1096.51 1418.27 1097.38C1418.77 1098.25 1419.02 1099.25 1419.02 1100.38C1419.02 1101.45 1418.78 1102.44 1418.3 1103.34C1417.81 1104.23 1417.14 1104.94 1416.26 1105.47C1415.39 1105.99 1414.37 1106.25 1413.19 1106.24ZM1413.19 1104.36C1413.91 1104.36 1414.55 1104.18 1415.12 1103.83C1415.69 1103.47 1416.14 1102.99 1416.47 1102.39C1416.81 1101.78 1416.98 1101.11 1416.98 1100.38C1416.98 1099.65 1416.81 1099 1416.49 1098.41C1416.17 1097.81 1415.73 1097.34 1415.17 1096.98C1414.61 1096.63 1413.98 1096.45 1413.26 1096.45C1412.72 1096.45 1412.22 1096.56 1411.75 1096.78C1411.29 1096.99 1410.88 1097.28 1410.52 1097.65C1410.18 1098.02 1409.91 1098.44 1409.71 1098.92C1409.51 1099.39 1409.41 1099.89 1409.41 1100.41C1409.41 1101.1 1409.57 1101.75 1409.89 1102.35C1410.22 1102.95 1410.67 1103.44 1411.24 1103.81C1411.81 1104.18 1412.46 1104.36 1413.19 1104.36Z" fill="white"/>
<path d="M1489.01 1088.55V1106H1486.9V1090.76H1486.79L1482.53 1093.59V1091.44L1486.9 1088.55H1489.01ZM1494.57 1106L1502.38 1090.56V1090.42H1493.38V1088.55H1504.56V1090.52L1496.79 1106H1494.57Z" fill="white"/>
<path d="M1549.97 1088.55V1106H1547.86V1090.76H1547.75L1543.49 1093.59V1091.44L1547.86 1088.55H1549.97ZM1560.58 1106.24C1559.41 1106.24 1558.38 1106.03 1557.48 1105.62C1556.59 1105.2 1555.89 1104.62 1555.39 1103.89C1554.89 1103.15 1554.64 1102.31 1554.65 1101.36C1554.64 1100.62 1554.79 1099.94 1555.08 1099.32C1555.38 1098.69 1555.78 1098.16 1556.29 1097.74C1556.81 1097.32 1557.39 1097.05 1558.02 1096.93V1096.83C1557.19 1096.61 1556.52 1096.14 1556.03 1095.42C1555.54 1094.7 1555.29 1093.87 1555.3 1092.94C1555.29 1092.06 1555.52 1091.26 1555.97 1090.57C1556.43 1089.87 1557.05 1089.32 1557.85 1088.91C1558.65 1088.51 1559.56 1088.31 1560.58 1088.31C1561.59 1088.31 1562.5 1088.51 1563.29 1088.91C1564.09 1089.32 1564.71 1089.87 1565.17 1090.57C1565.63 1091.26 1565.86 1092.06 1565.87 1092.94C1565.86 1093.87 1565.61 1094.7 1565.11 1095.42C1564.61 1096.14 1563.96 1096.61 1563.14 1096.83V1096.93C1563.77 1097.05 1564.34 1097.32 1564.84 1097.74C1565.35 1098.16 1565.75 1098.69 1566.05 1099.32C1566.35 1099.94 1566.51 1100.62 1566.51 1101.36C1566.51 1102.31 1566.25 1103.15 1565.75 1103.89C1565.25 1104.62 1564.55 1105.2 1563.66 1105.62C1562.77 1106.03 1561.75 1106.24 1560.58 1106.24ZM1560.58 1104.36C1561.37 1104.36 1562.05 1104.24 1562.63 1103.98C1563.2 1103.72 1563.64 1103.36 1563.96 1102.9C1564.27 1102.43 1564.43 1101.89 1564.43 1101.26C1564.43 1100.6 1564.26 1100.02 1563.92 1099.51C1563.59 1099.01 1563.13 1098.61 1562.55 1098.32C1561.98 1098.03 1561.32 1097.89 1560.58 1097.89C1559.84 1097.89 1559.17 1098.03 1558.59 1098.32C1558.01 1098.61 1557.55 1099.01 1557.21 1099.51C1556.89 1100.02 1556.72 1100.6 1556.73 1101.26C1556.72 1101.89 1556.87 1102.43 1557.18 1102.9C1557.49 1103.36 1557.94 1103.72 1558.52 1103.98C1559.1 1104.24 1559.79 1104.36 1560.58 1104.36ZM1560.58 1096.08C1561.21 1096.08 1561.76 1095.95 1562.24 1095.7C1562.73 1095.45 1563.12 1095.11 1563.39 1094.66C1563.67 1094.21 1563.81 1093.68 1563.82 1093.08C1563.81 1092.49 1563.68 1091.97 1563.4 1091.54C1563.13 1091.09 1562.75 1090.75 1562.27 1090.51C1561.79 1090.27 1561.22 1090.15 1560.58 1090.15C1559.93 1090.15 1559.36 1090.27 1558.87 1090.51C1558.38 1090.75 1558 1091.09 1557.73 1091.54C1557.47 1091.97 1557.34 1092.49 1557.34 1093.08C1557.34 1093.68 1557.47 1094.21 1557.74 1094.66C1558.02 1095.11 1558.41 1095.45 1558.89 1095.7C1559.38 1095.95 1559.94 1096.08 1560.58 1096.08Z" fill="white"/>
<path d="M1591.38 1088.55V1106H1589.26V1090.76H1589.16L1584.9 1093.59V1091.44L1589.26 1088.55H1591.38ZM1601.95 1088.31C1602.67 1088.31 1603.39 1088.45 1604.1 1088.72C1604.82 1088.98 1605.47 1089.43 1606.06 1090.05C1606.65 1090.66 1607.13 1091.5 1607.48 1092.56C1607.84 1093.62 1608.02 1094.95 1608.02 1096.56C1608.02 1098.11 1607.87 1099.49 1607.58 1100.69C1607.29 1101.89 1606.87 1102.9 1606.32 1103.72C1605.77 1104.55 1605.11 1105.17 1604.32 1105.6C1603.54 1106.03 1602.66 1106.24 1601.68 1106.24C1600.7 1106.24 1599.83 1106.05 1599.06 1105.66C1598.3 1105.27 1597.68 1104.72 1597.19 1104.03C1596.71 1103.33 1596.4 1102.52 1596.26 1101.6H1598.34C1598.53 1102.4 1598.9 1103.07 1599.46 1103.59C1600.02 1104.11 1600.76 1104.36 1601.68 1104.36C1603.03 1104.36 1604.09 1103.78 1604.87 1102.6C1605.65 1101.42 1606.04 1099.76 1606.04 1097.61H1605.91C1605.59 1098.09 1605.21 1098.5 1604.77 1098.85C1604.34 1099.2 1603.85 1099.46 1603.32 1099.65C1602.78 1099.84 1602.21 1099.93 1601.61 1099.93C1600.61 1099.93 1599.69 1099.68 1598.86 1099.19C1598.03 1098.69 1597.37 1098.01 1596.87 1097.14C1596.37 1096.26 1596.12 1095.26 1596.12 1094.14C1596.12 1093.07 1596.36 1092.09 1596.84 1091.2C1597.32 1090.31 1598 1089.6 1598.87 1089.07C1599.74 1088.55 1600.77 1088.29 1601.95 1088.31ZM1601.95 1090.18C1601.24 1090.18 1600.59 1090.36 1600.02 1090.72C1599.45 1091.07 1599 1091.55 1598.66 1092.15C1598.33 1092.75 1598.17 1093.41 1598.17 1094.14C1598.17 1094.86 1598.33 1095.53 1598.65 1096.12C1598.97 1096.71 1599.41 1097.18 1599.97 1097.54C1600.53 1097.88 1601.17 1098.06 1601.89 1098.06C1602.43 1098.06 1602.93 1097.95 1603.39 1097.74C1603.86 1097.53 1604.27 1097.23 1604.61 1096.86C1604.96 1096.49 1605.24 1096.07 1605.44 1095.59C1605.64 1095.12 1605.74 1094.62 1605.74 1094.1C1605.74 1093.42 1605.57 1092.78 1605.24 1092.18C1604.92 1091.59 1604.47 1091.11 1603.9 1090.74C1603.33 1090.37 1602.68 1090.18 1601.95 1090.18Z" fill="white"/>
<path d="M1645.04 1106V1104.47L1650.8 1098.16C1651.48 1097.42 1652.04 1096.78 1652.47 1096.23C1652.91 1095.68 1653.23 1095.16 1653.44 1094.68C1653.66 1094.19 1653.77 1093.68 1653.77 1093.15C1653.77 1092.53 1653.62 1092 1653.33 1091.55C1653.04 1091.11 1652.64 1090.76 1652.13 1090.51C1651.63 1090.27 1651.06 1090.15 1650.43 1090.15C1649.76 1090.15 1649.17 1090.29 1648.67 1090.57C1648.18 1090.84 1647.79 1091.22 1647.52 1091.72C1647.25 1092.21 1647.12 1092.79 1647.12 1093.45H1645.11C1645.11 1092.43 1645.35 1091.53 1645.82 1090.76C1646.29 1089.99 1646.93 1089.39 1647.74 1088.95C1648.56 1088.52 1649.48 1088.31 1650.5 1088.31C1651.52 1088.31 1652.42 1088.52 1653.21 1088.95C1654 1089.39 1654.62 1089.97 1655.07 1090.7C1655.52 1091.43 1655.75 1092.25 1655.75 1093.15C1655.75 1093.79 1655.63 1094.42 1655.4 1095.03C1655.17 1095.64 1654.77 1096.32 1654.2 1097.07C1653.64 1097.81 1652.86 1098.72 1651.86 1099.8L1647.94 1103.99V1104.12H1656.05V1106H1645.04ZM1665.27 1106.24C1663.98 1106.24 1662.89 1105.89 1661.98 1105.19C1661.08 1104.49 1660.39 1103.47 1659.91 1102.13C1659.44 1100.79 1659.2 1099.17 1659.2 1097.27C1659.2 1095.39 1659.44 1093.78 1659.91 1092.44C1660.4 1091.1 1661.09 1090.08 1661.99 1089.37C1662.9 1088.66 1663.99 1088.31 1665.27 1088.31C1666.54 1088.31 1667.63 1088.66 1668.53 1089.37C1669.44 1090.08 1670.13 1091.1 1670.61 1092.44C1671.09 1093.78 1671.33 1095.39 1671.33 1097.27C1671.33 1099.17 1671.1 1100.79 1670.62 1102.13C1670.14 1103.47 1669.45 1104.49 1668.55 1105.19C1667.64 1105.89 1666.55 1106.24 1665.27 1106.24ZM1665.27 1104.36C1666.54 1104.36 1667.53 1103.75 1668.23 1102.52C1668.94 1101.3 1669.29 1099.55 1669.29 1097.27C1669.29 1095.76 1669.13 1094.47 1668.8 1093.41C1668.48 1092.35 1668.02 1091.54 1667.42 1090.98C1666.83 1090.43 1666.11 1090.15 1665.27 1090.15C1664 1090.15 1663.02 1090.77 1662.31 1092.01C1661.6 1093.25 1661.24 1095.01 1661.24 1097.27C1661.24 1098.78 1661.4 1100.07 1661.72 1101.12C1662.04 1102.18 1662.5 1102.99 1663.09 1103.54C1663.69 1104.09 1664.42 1104.36 1665.27 1104.36Z" fill="white"/>
<path d="M1687.96 1106V1104.47L1693.72 1098.16C1694.4 1097.42 1694.96 1096.78 1695.39 1096.23C1695.83 1095.68 1696.16 1095.16 1696.37 1094.68C1696.58 1094.19 1696.69 1093.68 1696.69 1093.15C1696.69 1092.53 1696.54 1092 1696.25 1091.55C1695.96 1091.11 1695.56 1090.76 1695.05 1090.51C1694.55 1090.27 1693.98 1090.15 1693.35 1090.15C1692.68 1090.15 1692.09 1090.29 1691.59 1090.57C1691.1 1090.84 1690.72 1091.22 1690.44 1091.72C1690.18 1092.21 1690.04 1092.79 1690.04 1093.45H1688.03C1688.03 1092.43 1688.27 1091.53 1688.74 1090.76C1689.21 1089.99 1689.85 1089.39 1690.66 1088.95C1691.48 1088.52 1692.4 1088.31 1693.42 1088.31C1694.44 1088.31 1695.35 1088.52 1696.14 1088.95C1696.93 1089.39 1697.55 1089.97 1697.99 1090.7C1698.44 1091.43 1698.67 1092.25 1698.67 1093.15C1698.67 1093.79 1698.55 1094.42 1698.32 1095.03C1698.09 1095.64 1697.69 1096.32 1697.12 1097.07C1696.56 1097.81 1695.78 1098.72 1694.78 1099.8L1690.86 1103.99V1104.12H1698.97V1106H1687.96ZM1708.63 1088.55V1106H1706.52V1090.76H1706.41L1702.15 1093.59V1091.44L1706.52 1088.55H1708.63Z" fill="white"/>
<path d="M1795.28 1106V1104.47L1801.04 1098.16C1801.71 1097.42 1802.27 1096.78 1802.71 1096.23C1803.14 1095.68 1803.47 1095.16 1803.68 1094.68C1803.89 1094.19 1804 1093.68 1804 1093.15C1804 1092.53 1803.86 1092 1803.56 1091.55C1803.27 1091.11 1802.87 1090.76 1802.37 1090.51C1801.86 1090.27 1801.29 1090.15 1800.66 1090.15C1799.99 1090.15 1799.41 1090.29 1798.91 1090.57C1798.41 1090.84 1798.03 1091.22 1797.76 1091.72C1797.49 1092.21 1797.36 1092.79 1797.36 1093.45H1795.34C1795.34 1092.43 1795.58 1091.53 1796.05 1090.76C1796.52 1089.99 1797.16 1089.39 1797.98 1088.95C1798.8 1088.52 1799.71 1088.31 1800.73 1088.31C1801.75 1088.31 1802.66 1088.52 1803.45 1088.95C1804.24 1089.39 1804.86 1089.97 1805.31 1090.7C1805.76 1091.43 1805.98 1092.25 1805.98 1093.15C1805.98 1093.79 1805.86 1094.42 1805.63 1095.03C1805.4 1095.64 1805.01 1096.32 1804.44 1097.07C1803.88 1097.81 1803.09 1098.72 1802.09 1099.8L1798.17 1103.99V1104.12H1806.29V1106H1795.28ZM1809.81 1106V1104.47L1815.57 1098.16C1816.24 1097.42 1816.8 1096.78 1817.24 1096.23C1817.68 1095.68 1818 1095.16 1818.21 1094.68C1818.43 1094.19 1818.53 1093.68 1818.53 1093.15C1818.53 1092.53 1818.39 1092 1818.09 1091.55C1817.8 1091.11 1817.4 1090.76 1816.9 1090.51C1816.39 1090.27 1815.82 1090.15 1815.19 1090.15C1814.52 1090.15 1813.94 1090.29 1813.44 1090.57C1812.94 1090.84 1812.56 1091.22 1812.29 1091.72C1812.02 1092.21 1811.89 1092.79 1811.89 1093.45H1809.88C1809.88 1092.43 1810.11 1091.53 1810.58 1090.76C1811.05 1089.99 1811.7 1089.39 1812.51 1088.95C1813.33 1088.52 1814.24 1088.31 1815.26 1088.31C1816.28 1088.31 1817.19 1088.52 1817.98 1088.95C1818.77 1089.39 1819.39 1089.97 1819.84 1090.7C1820.29 1091.43 1820.51 1092.25 1820.51 1093.15C1820.51 1093.79 1820.39 1094.42 1820.16 1095.03C1819.93 1095.64 1819.54 1096.32 1818.97 1097.07C1818.41 1097.81 1817.62 1098.72 1816.62 1099.8L1812.7 1103.99V1104.12H1820.82V1106H1809.81Z" fill="white"/>
<path d="M1869.9 1106V1104.47L1875.66 1098.16C1876.34 1097.42 1876.89 1096.78 1877.33 1096.23C1877.77 1095.68 1878.09 1095.16 1878.3 1094.68C1878.52 1094.19 1878.63 1093.68 1878.63 1093.15C1878.63 1092.53 1878.48 1092 1878.18 1091.55C1877.89 1091.11 1877.5 1090.76 1876.99 1090.51C1876.49 1090.27 1875.92 1090.15 1875.29 1090.15C1874.62 1090.15 1874.03 1090.29 1873.53 1090.57C1873.04 1090.84 1872.65 1091.22 1872.38 1091.72C1872.11 1092.21 1871.98 1092.79 1871.98 1093.45H1869.97C1869.97 1092.43 1870.2 1091.53 1870.68 1090.76C1871.15 1089.99 1871.79 1089.39 1872.6 1088.95C1873.42 1088.52 1874.34 1088.31 1875.36 1088.31C1876.38 1088.31 1877.28 1088.52 1878.07 1088.95C1878.86 1089.39 1879.48 1089.97 1879.93 1090.7C1880.38 1091.43 1880.61 1092.25 1880.61 1093.15C1880.61 1093.79 1880.49 1094.42 1880.26 1095.03C1880.03 1095.64 1879.63 1096.32 1879.06 1097.07C1878.5 1097.81 1877.72 1098.72 1876.72 1099.8L1872.8 1103.99V1104.12H1880.91V1106H1869.9ZM1890.33 1106.24C1889.2 1106.24 1888.2 1106.05 1887.32 1105.66C1886.45 1105.27 1885.75 1104.74 1885.23 1104.05C1884.72 1103.36 1884.44 1102.55 1884.4 1101.64H1886.55C1886.59 1102.2 1886.78 1102.68 1887.12 1103.09C1887.47 1103.5 1887.91 1103.81 1888.46 1104.03C1889.01 1104.25 1889.63 1104.36 1890.3 1104.36C1891.05 1104.36 1891.71 1104.23 1892.29 1103.97C1892.87 1103.71 1893.32 1103.35 1893.65 1102.88C1893.98 1102.41 1894.15 1101.88 1894.15 1101.26C1894.15 1100.62 1893.99 1100.05 1893.67 1099.57C1893.35 1099.07 1892.89 1098.68 1892.27 1098.41C1891.66 1098.13 1890.91 1097.99 1890.02 1097.99H1888.62V1096.11H1890.02C1890.72 1096.11 1891.32 1095.99 1891.85 1095.74C1892.38 1095.49 1892.79 1095.14 1893.08 1094.68C1893.38 1094.23 1893.53 1093.69 1893.53 1093.08C1893.53 1092.49 1893.4 1091.97 1893.14 1091.54C1892.88 1091.1 1892.51 1090.76 1892.03 1090.51C1891.56 1090.27 1891.01 1090.15 1890.36 1090.15C1889.76 1090.15 1889.19 1090.26 1888.66 1090.48C1888.13 1090.7 1887.7 1091.01 1887.36 1091.43C1887.03 1091.84 1886.85 1092.33 1886.82 1092.91H1884.77C1884.81 1091.99 1885.08 1091.19 1885.6 1090.51C1886.12 1089.81 1886.79 1089.27 1887.63 1088.89C1888.47 1088.5 1889.39 1088.31 1890.4 1088.31C1891.48 1088.31 1892.4 1088.53 1893.18 1088.96C1893.95 1089.39 1894.54 1089.97 1894.96 1090.68C1895.37 1091.39 1895.58 1092.15 1895.58 1092.98C1895.58 1093.96 1895.32 1094.8 1894.8 1095.49C1894.29 1096.18 1893.6 1096.66 1892.72 1096.93V1097.07C1893.82 1097.25 1894.68 1097.72 1895.3 1098.47C1895.92 1099.22 1896.23 1100.15 1896.23 1101.26C1896.23 1102.21 1895.97 1103.06 1895.45 1103.82C1894.94 1104.57 1894.24 1105.16 1893.36 1105.59C1892.47 1106.02 1891.46 1106.24 1890.33 1106.24Z" fill="white"/>
<path d="M1933.03 1106V1104.47L1938.79 1098.16C1939.47 1097.42 1940.02 1096.78 1940.46 1096.23C1940.9 1095.68 1941.22 1095.16 1941.43 1094.68C1941.65 1094.19 1941.76 1093.68 1941.76 1093.15C1941.76 1092.53 1941.61 1092 1941.31 1091.55C1941.02 1091.11 1940.63 1090.76 1940.12 1090.51C1939.61 1090.27 1939.05 1090.15 1938.42 1090.15C1937.75 1090.15 1937.16 1090.29 1936.66 1090.57C1936.17 1090.84 1935.78 1091.22 1935.51 1091.72C1935.24 1092.21 1935.11 1092.79 1935.11 1093.45H1933.1C1933.1 1092.43 1933.33 1091.53 1933.81 1090.76C1934.28 1089.99 1934.92 1089.39 1935.73 1088.95C1936.55 1088.52 1937.47 1088.31 1938.48 1088.31C1939.51 1088.31 1940.41 1088.52 1941.2 1088.95C1941.99 1089.39 1942.61 1089.97 1943.06 1090.7C1943.51 1091.43 1943.73 1092.25 1943.73 1093.15C1943.73 1093.79 1943.62 1094.42 1943.38 1095.03C1943.16 1095.64 1942.76 1096.32 1942.19 1097.07C1941.63 1097.81 1940.85 1098.72 1939.85 1099.8L1935.93 1103.99V1104.12H1944.04V1106H1933.03ZM1946.78 1102.42V1100.68L1954.45 1088.55H1955.71V1091.24H1954.86L1949.06 1100.41V1100.55H1959.39V1102.42H1946.78ZM1954.99 1106V1101.89V1101.08V1088.55H1957V1106H1954.99Z" fill="white"/>
<path d="M2035.24 1106V1104.47L2041 1098.16C2041.68 1097.42 2042.23 1096.78 2042.67 1096.23C2043.11 1095.68 2043.43 1095.16 2043.64 1094.68C2043.86 1094.19 2043.97 1093.68 2043.97 1093.15C2043.97 1092.53 2043.82 1092 2043.52 1091.55C2043.23 1091.11 2042.84 1090.76 2042.33 1090.51C2041.83 1090.27 2041.26 1090.15 2040.63 1090.15C2039.96 1090.15 2039.37 1090.29 2038.87 1090.57C2038.38 1090.84 2037.99 1091.22 2037.72 1091.72C2037.45 1092.21 2037.32 1092.79 2037.32 1093.45H2035.31C2035.31 1092.43 2035.54 1091.53 2036.02 1090.76C2036.49 1089.99 2037.13 1089.39 2037.94 1088.95C2038.76 1088.52 2039.68 1088.31 2040.69 1088.31C2041.72 1088.31 2042.62 1088.52 2043.41 1088.95C2044.2 1089.39 2044.82 1089.97 2045.27 1090.7C2045.72 1091.43 2045.94 1092.25 2045.94 1093.15C2045.94 1093.79 2045.83 1094.42 2045.6 1095.03C2045.37 1095.64 2044.97 1096.32 2044.4 1097.07C2043.84 1097.81 2043.06 1098.72 2042.06 1099.8L2038.14 1103.99V1104.12H2046.25V1106H2035.24ZM2055.23 1106.24C2054.23 1106.24 2053.33 1106.04 2052.52 1105.64C2051.72 1105.24 2051.08 1104.7 2050.6 1104.01C2050.12 1103.31 2049.85 1102.52 2049.81 1101.64H2051.85C2051.93 1102.43 2052.29 1103.08 2052.93 1103.6C2053.57 1104.11 2054.33 1104.36 2055.23 1104.36C2055.94 1104.36 2056.58 1104.2 2057.14 1103.86C2057.7 1103.53 2058.14 1103.07 2058.46 1102.48C2058.78 1101.89 2058.94 1101.22 2058.94 1100.48C2058.94 1099.72 2058.77 1099.04 2058.44 1098.44C2058.11 1097.84 2057.66 1097.36 2057.08 1097.02C2056.5 1096.67 2055.83 1096.49 2055.09 1096.49C2054.56 1096.48 2054.01 1096.57 2053.44 1096.74C2052.88 1096.9 2052.42 1097.11 2052.06 1097.38L2050.08 1097.14L2051.14 1088.55H2060.2V1090.42H2052.91L2052.29 1095.57H2052.4C2052.75 1095.28 2053.2 1095.05 2053.74 1094.86C2054.28 1094.67 2054.85 1094.58 2055.43 1094.58C2056.5 1094.58 2057.45 1094.84 2058.29 1095.35C2059.13 1095.85 2059.79 1096.55 2060.26 1097.43C2060.75 1098.31 2060.99 1099.31 2060.99 1100.44C2060.99 1101.56 2060.74 1102.55 2060.24 1103.43C2059.74 1104.3 2059.06 1104.98 2058.19 1105.49C2057.32 1105.99 2056.33 1106.24 2055.23 1106.24Z" fill="white"/>
<path d="M2096.05 1106V1104.47L2101.81 1098.16C2102.49 1097.42 2103.05 1096.78 2103.48 1096.23C2103.92 1095.68 2104.25 1095.16 2104.46 1094.68C2104.67 1094.19 2104.78 1093.68 2104.78 1093.15C2104.78 1092.53 2104.63 1092 2104.34 1091.55C2104.05 1091.11 2103.65 1090.76 2103.14 1090.51C2102.64 1090.27 2102.07 1090.15 2101.44 1090.15C2100.77 1090.15 2100.18 1090.29 2099.68 1090.57C2099.19 1090.84 2098.81 1091.22 2098.53 1091.72C2098.27 1092.21 2098.13 1092.79 2098.13 1093.45H2096.12C2096.12 1092.43 2096.36 1091.53 2096.83 1090.76C2097.3 1089.99 2097.94 1089.39 2098.75 1088.95C2099.57 1088.52 2100.49 1088.31 2101.51 1088.31C2102.53 1088.31 2103.44 1088.52 2104.23 1088.95C2105.02 1089.39 2105.64 1089.97 2106.08 1090.7C2106.53 1091.43 2106.76 1092.25 2106.76 1093.15C2106.76 1093.79 2106.64 1094.42 2106.41 1095.03C2106.18 1095.64 2105.78 1096.32 2105.21 1097.07C2104.65 1097.81 2103.87 1098.72 2102.87 1099.8L2098.95 1103.99V1104.12H2107.06V1106H2096.05ZM2116.38 1106.24C2115.66 1106.23 2114.95 1106.09 2114.23 1105.83C2113.52 1105.57 2112.86 1105.13 2112.27 1104.51C2111.68 1103.88 2111.21 1103.04 2110.85 1101.98C2110.49 1100.91 2110.31 1099.57 2110.31 1097.95C2110.31 1096.41 2110.46 1095.04 2110.75 1093.85C2111.04 1092.65 2111.46 1091.64 2112.01 1090.82C2112.56 1090 2113.22 1089.37 2114 1088.95C2114.79 1088.52 2115.67 1088.31 2116.65 1088.31C2117.63 1088.31 2118.5 1088.5 2119.26 1088.89C2120.03 1089.28 2120.65 1089.82 2121.14 1090.51C2121.62 1091.21 2121.93 1092.01 2122.07 1092.91H2119.99C2119.8 1092.12 2119.43 1091.47 2118.87 1090.96C2118.31 1090.44 2117.57 1090.18 2116.65 1090.18C2115.3 1090.18 2114.23 1090.77 2113.46 1091.95C2112.68 1093.12 2112.29 1094.77 2112.29 1096.9H2112.43C2112.74 1096.41 2113.12 1096 2113.56 1095.66C2114 1095.32 2114.49 1095.05 2115.02 1094.86C2115.56 1094.67 2116.12 1094.58 2116.72 1094.58C2117.72 1094.58 2118.64 1094.83 2119.46 1095.33C2120.29 1095.82 2120.96 1096.51 2121.46 1097.38C2121.96 1098.25 2122.21 1099.25 2122.21 1100.38C2122.21 1101.45 2121.97 1102.44 2121.48 1103.34C2121 1104.23 2120.32 1104.94 2119.45 1105.47C2118.58 1105.99 2117.56 1106.25 2116.38 1106.24ZM2116.38 1104.36C2117.1 1104.36 2117.74 1104.18 2118.31 1103.83C2118.88 1103.47 2119.33 1102.99 2119.66 1102.39C2120 1101.78 2120.16 1101.11 2120.16 1100.38C2120.16 1099.65 2120 1099 2119.68 1098.41C2119.36 1097.81 2118.92 1097.34 2118.36 1096.98C2117.8 1096.63 2117.16 1096.45 2116.45 1096.45C2115.91 1096.45 2115.41 1096.56 2114.94 1096.78C2114.47 1096.99 2114.06 1097.28 2113.71 1097.65C2113.37 1098.02 2113.09 1098.44 2112.89 1098.92C2112.69 1099.39 2112.6 1099.89 2112.6 1100.41C2112.6 1101.1 2112.76 1101.75 2113.08 1102.35C2113.41 1102.95 2113.86 1103.44 2114.43 1103.81C2115 1104.18 2115.65 1104.36 2116.38 1104.36Z" fill="white"/>
<path d="M2266.19 1106V1104.47L2271.95 1098.16C2272.62 1097.42 2273.18 1096.78 2273.62 1096.23C2274.06 1095.68 2274.38 1095.16 2274.59 1094.68C2274.81 1094.19 2274.91 1093.68 2274.91 1093.15C2274.91 1092.53 2274.77 1092 2274.47 1091.55C2274.18 1091.11 2273.78 1090.76 2273.28 1090.51C2272.77 1090.27 2272.2 1090.15 2271.57 1090.15C2270.9 1090.15 2270.32 1090.29 2269.82 1090.57C2269.32 1090.84 2268.94 1091.22 2268.67 1091.72C2268.4 1092.21 2268.27 1092.79 2268.27 1093.45H2266.25C2266.25 1092.43 2266.49 1091.53 2266.96 1090.76C2267.43 1089.99 2268.07 1089.39 2268.89 1088.95C2269.71 1088.52 2270.62 1088.31 2271.64 1088.31C2272.66 1088.31 2273.57 1088.52 2274.36 1088.95C2275.15 1089.39 2275.77 1089.97 2276.22 1090.7C2276.67 1091.43 2276.89 1092.25 2276.89 1093.15C2276.89 1093.79 2276.77 1094.42 2276.54 1095.03C2276.31 1095.64 2275.92 1096.32 2275.35 1097.07C2274.79 1097.81 2274 1098.72 2273 1099.8L2269.08 1103.99V1104.12H2277.2V1106H2266.19ZM2281.26 1106L2289.07 1090.56V1090.42H2280.07V1088.55H2291.25V1090.52L2283.48 1106H2281.26Z" fill="white"/>
<path d="M2378.15 1106V1104.47L2383.91 1098.16C2384.58 1097.42 2385.14 1096.78 2385.58 1096.23C2386.02 1095.68 2386.34 1095.16 2386.55 1094.68C2386.77 1094.19 2386.87 1093.68 2386.87 1093.15C2386.87 1092.53 2386.73 1092 2386.43 1091.55C2386.14 1091.11 2385.74 1090.76 2385.24 1090.51C2384.73 1090.27 2384.16 1090.15 2383.53 1090.15C2382.86 1090.15 2382.28 1090.29 2381.78 1090.57C2381.28 1090.84 2380.9 1091.22 2380.63 1091.72C2380.36 1092.21 2380.23 1092.79 2380.23 1093.45H2378.21C2378.21 1092.43 2378.45 1091.53 2378.92 1090.76C2379.39 1089.99 2380.04 1089.39 2380.85 1088.95C2381.67 1088.52 2382.58 1088.31 2383.6 1088.31C2384.62 1088.31 2385.53 1088.52 2386.32 1088.95C2387.11 1089.39 2387.73 1089.97 2388.18 1090.7C2388.63 1091.43 2388.85 1092.25 2388.85 1093.15C2388.85 1093.79 2388.73 1094.42 2388.5 1095.03C2388.27 1095.64 2387.88 1096.32 2387.31 1097.07C2386.75 1097.81 2385.96 1098.72 2384.96 1099.8L2381.04 1103.99V1104.12H2389.16V1106H2378.15ZM2398.27 1106.24C2397.1 1106.24 2396.06 1106.03 2395.17 1105.62C2394.27 1105.2 2393.58 1104.62 2393.08 1103.89C2392.58 1103.15 2392.33 1102.31 2392.34 1101.36C2392.33 1100.62 2392.48 1099.94 2392.77 1099.32C2393.07 1098.69 2393.47 1098.16 2393.98 1097.74C2394.5 1097.32 2395.08 1097.05 2395.71 1096.93V1096.83C2394.88 1096.61 2394.21 1096.14 2393.72 1095.42C2393.22 1094.7 2392.98 1093.87 2392.98 1092.94C2392.98 1092.06 2393.2 1091.26 2393.66 1090.57C2394.11 1089.87 2394.74 1089.32 2395.53 1088.91C2396.33 1088.51 2397.25 1088.31 2398.27 1088.31C2399.28 1088.31 2400.18 1088.51 2400.98 1088.91C2401.77 1089.32 2402.4 1089.87 2402.85 1090.57C2403.31 1091.26 2403.55 1092.06 2403.55 1092.94C2403.55 1093.87 2403.29 1094.7 2402.79 1095.42C2402.3 1096.14 2401.64 1096.61 2400.83 1096.83V1096.93C2401.46 1097.05 2402.02 1097.32 2402.53 1097.74C2403.04 1098.16 2403.44 1098.69 2403.74 1099.32C2404.04 1099.94 2404.19 1100.62 2404.2 1101.36C2404.19 1102.31 2403.94 1103.15 2403.43 1103.89C2402.93 1104.62 2402.24 1105.2 2401.35 1105.62C2400.46 1106.03 2399.43 1106.24 2398.27 1106.24ZM2398.27 1104.36C2399.06 1104.36 2399.74 1104.24 2400.31 1103.98C2400.89 1103.72 2401.33 1103.36 2401.64 1102.9C2401.96 1102.43 2402.12 1101.89 2402.12 1101.26C2402.12 1100.6 2401.94 1100.02 2401.61 1099.51C2401.27 1099.01 2400.82 1098.61 2400.24 1098.32C2399.66 1098.03 2399.01 1097.89 2398.27 1097.89C2397.52 1097.89 2396.86 1098.03 2396.27 1098.32C2395.69 1098.61 2395.24 1099.01 2394.9 1099.51C2394.57 1100.02 2394.41 1100.6 2394.42 1101.26C2394.41 1101.89 2394.56 1102.43 2394.87 1102.9C2395.18 1103.36 2395.63 1103.72 2396.21 1103.98C2396.79 1104.24 2397.47 1104.36 2398.27 1104.36ZM2398.27 1096.08C2398.89 1096.08 2399.45 1095.95 2399.93 1095.7C2400.42 1095.45 2400.8 1095.11 2401.08 1094.66C2401.36 1094.21 2401.5 1093.68 2401.51 1093.08C2401.5 1092.49 2401.36 1091.97 2401.09 1091.54C2400.82 1091.09 2400.44 1090.75 2399.96 1090.51C2399.47 1090.27 2398.91 1090.15 2398.27 1090.15C2397.62 1090.15 2397.04 1090.27 2396.56 1090.51C2396.07 1090.75 2395.69 1091.09 2395.42 1091.54C2395.16 1091.97 2395.02 1092.49 2395.03 1093.08C2395.02 1093.68 2395.16 1094.21 2395.43 1094.66C2395.71 1095.11 2396.09 1095.45 2396.58 1095.7C2397.07 1095.95 2397.63 1096.08 2398.27 1096.08Z" fill="white"/>
</svg>
