<svg width="1013" height="315" viewBox="0 0 1013 315" fill="none" xmlns="http://www.w3.org/2000/svg">
<rect width="1013" height="315" fill="#053249"/>
<path d="M156 83.5H154V267.5H156V83.5Z" fill="#FF7C7C" fill-opacity="0.5"/>
<path d="M162 83.5H160V267.5H162V83.5Z" fill="#FF7C7C" fill-opacity="0.5"/>
<path d="M165 83.5H163V267.5H165V83.5Z" fill="#FF7C7C" fill-opacity="0.5"/>
<path d="M168 83.5H166V267.5H168V83.5Z" fill="#FF7C7C" fill-opacity="0.5"/>
<path d="M177 83.5H175V267.5H177V83.5Z" fill="#FF7C7C" fill-opacity="0.5"/>
<path d="M186 83.5H184V267.5H186V83.5Z" fill="#FF7C7C" fill-opacity="0.5"/>
<path d="M189 83.5H187V267.5H189V83.5Z" fill="#FF7C7C" fill-opacity="0.5"/>
<path d="M198 83.5H196V267.5H198V83.5Z" fill="#FF7C7C" fill-opacity="0.5"/>
<path d="M201 83.5H199V267.5H201V83.5Z" fill="#FF7C7C" fill-opacity="0.5"/>
<path d="M204 83.5H202V267.5H204V83.5Z" fill="#FF7C7C" fill-opacity="0.5"/>
<path d="M222 83.5H220V267.5H222V83.5Z" fill="#FF7C7C" fill-opacity="0.5"/>
<path d="M230 83.5H228V267.5H230V83.5Z" fill="#FF7C7C" fill-opacity="0.5"/>
<path d="M249 83.5H247V267.5H249V83.5Z" fill="#FF7C7C" fill-opacity="0.5"/>
<path d="M315 83.5H313V267.5H315V83.5Z" fill="#FF7C7C" fill-opacity="0.5"/>
<path d="M347 83.5H345V267.5H347V83.5Z" fill="#FF7C7C" fill-opacity="0.5"/>
<path d="M356 83.5H354V267.5H356V83.5Z" fill="#FF7C7C" fill-opacity="0.5"/>
<path d="M399 83.5H397V267.5H399V83.5Z" fill="#FF7C7C" fill-opacity="0.5"/>
<path d="M422 83.5H420V267.5H422V83.5Z" fill="#FF7C7C" fill-opacity="0.5"/>
<path d="M434 83.5H432V267.5H434V83.5Z" fill="#FF7C7C" fill-opacity="0.5"/>
<path d="M462 83.5H460V267.5H462V83.5Z" fill="#FF7C7C" fill-opacity="0.5"/>
<path d="M468 83.5H466V267.5H468V83.5Z" fill="#FF7C7C" fill-opacity="0.5"/>
<path d="M474 83.5H472V267.5H474V83.5Z" fill="#FF7C7C" fill-opacity="0.5"/>
<path d="M486 83.5H484V267.5H486V83.5Z" fill="#FF7C7C" fill-opacity="0.5"/>
<path d="M685 83.5H683V267.5H685V83.5Z" fill="#FF7C7C" fill-opacity="0.5"/>
<path d="M696 83.5H694V267.5H696V83.5Z" fill="#FF7C7C" fill-opacity="0.5"/>
<path d="M747 83.5H745V267.5H747V83.5Z" fill="#FF7C7C" fill-opacity="0.5"/>
<path d="M759 83.5H757V267.5H759V83.5Z" fill="#FF7C7C" fill-opacity="0.5"/>
<path d="M840 83.5H838V267.5H840V83.5Z" fill="#FF7C7C" fill-opacity="0.5"/>
<path d="M947 83.5H945V267.5H947V83.5Z" fill="#FF7C7C" fill-opacity="0.5"/>
<path d="M982 83.5H980V267.5H982V83.5Z" fill="#FF7C7C" fill-opacity="0.5"/>
<path d="M996 83.5H994V267.5H996V83.5Z" fill="#FF7C7C" fill-opacity="0.5"/>
<path d="M42 83.5H40V267.5H42V83.5Z" fill="white" fill-opacity="0.2"/>
<path d="M60 83.5H58V267.5H60V83.5Z" fill="white" fill-opacity="0.2"/>
<path d="M73 83.5H71V267.5H73V83.5Z" fill="white" fill-opacity="0.2"/>
<path d="M85 83.5H83V267.5H85V83.5Z" fill="white" fill-opacity="0.2"/>
<path d="M97 83.5H95V267.5H97V83.5Z" fill="white" fill-opacity="0.2"/>
<path d="M110 83.5H108V267.5H110V83.5Z" fill="white" fill-opacity="0.2"/>
<path d="M122 83.5H120V267.5H122V83.5Z" fill="white" fill-opacity="0.2"/>
<path d="M134 83.5H132V267.5H134V83.5Z" fill="white" fill-opacity="0.2"/>
<path d="M147 83.5H145V267.5H147V83.5Z" fill="white" fill-opacity="0.2"/>
<path d="M159 83.5H157V267.5H159V83.5Z" fill="white" fill-opacity="0.2"/>
<path d="M171 83.5H169V267.5H171V83.5Z" fill="white" fill-opacity="0.2"/>
<path d="M183 83.5H181V267.5H183V83.5Z" fill="white" fill-opacity="0.2"/>
<path d="M195 83.5H193V267.5H195V83.5Z" fill="white" fill-opacity="0.2"/>
<path d="M207 83.5H205V267.5H207V83.5Z" fill="white" fill-opacity="0.2"/>
<path d="M218 83.5H216V267.5H218V83.5Z" fill="white" fill-opacity="0.2"/>
<path d="M260 83.5H258V267.5H260V83.5Z" fill="white" fill-opacity="0.2"/>
<path d="M272 83.5H270V267.5H272V83.5Z" fill="white" fill-opacity="0.2"/>
<path d="M283 83.5H281V267.5H283V83.5Z" fill="white" fill-opacity="0.2"/>
<path d="M295 83.5H293V267.5H295V83.5Z" fill="white" fill-opacity="0.2"/>
<path d="M307 83.5H305V267.5H307V83.5Z" fill="white" fill-opacity="0.2"/>
<path d="M318 83.5H316V267.5H318V83.5Z" fill="white" fill-opacity="0.2"/>
<path d="M327 83.5H325V267.5H327V83.5Z" fill="white" fill-opacity="0.2"/>
<path d="M330 83.5H328V267.5H330V83.5Z" fill="white" fill-opacity="0.2"/>
<path d="M338 83.5H336V267.5H338V83.5Z" fill="white" fill-opacity="0.2"/>
<path d="M341 83.5H339V267.5H341V83.5Z" fill="white" fill-opacity="0.2"/>
<path d="M361 83.5H359V267.5H361V83.5Z" fill="white" fill-opacity="0.2"/>
<path d="M364 83.5H362V267.5H364V83.5Z" fill="white" fill-opacity="0.2"/>
<path d="M373 83.5H371V267.5H373V83.5Z" fill="white" fill-opacity="0.2"/>
<path d="M376 83.5H374V267.5H376V83.5Z" fill="white" fill-opacity="0.2"/>
<path d="M384 83.5H382V267.5H384V83.5Z" fill="white" fill-opacity="0.2"/>
<path d="M396 83.5H394V267.5H396V83.5Z" fill="white" fill-opacity="0.2"/>
<path d="M408 83.5H406V267.5H408V83.5Z" fill="white" fill-opacity="0.2"/>
<path d="M419 83.5H417V267.5H419V83.5Z" fill="white" fill-opacity="0.2"/>
<path d="M430 83.5H428V267.5H430V83.5Z" fill="white" fill-opacity="0.2"/>
<path d="M442 83.5H440V267.5H442V83.5Z" fill="white" fill-opacity="0.2"/>
<path d="M451 83.5H449V267.5H451V83.5Z" fill="white" fill-opacity="0.2"/>
<path d="M454 83.5H452V267.5H454V83.5Z" fill="white" fill-opacity="0.2"/>
<path d="M477 83.5H475V267.5H477V83.5Z" fill="white" fill-opacity="0.2"/>
<path d="M489 83.5H487V267.5H489V83.5Z" fill="white" fill-opacity="0.2"/>
<path d="M500 83.5H498V267.5H500V83.5Z" fill="white" fill-opacity="0.2"/>
<path d="M512 83.5H510V267.5H512V83.5Z" fill="white" fill-opacity="0.2"/>
<path d="M525 83.5H523V267.5H525V83.5Z" fill="white" fill-opacity="0.2"/>
<path d="M537 83.5H535V267.5H537V83.5Z" fill="white" fill-opacity="0.2"/>
<path d="M549 83.5H547V267.5H549V83.5Z" fill="white" fill-opacity="0.2"/>
<path d="M560 83.5H558V267.5H560V83.5Z" fill="white" fill-opacity="0.2"/>
<path d="M572 83.5H570V267.5H572V83.5Z" fill="white" fill-opacity="0.2"/>
<path d="M583 83.5H581V267.5H583V83.5Z" fill="white" fill-opacity="0.2"/>
<path d="M594 83.5H592V267.5H594V83.5Z" fill="white" fill-opacity="0.2"/>
<path d="M606 83.5H604V267.5H606V83.5Z" fill="white" fill-opacity="0.2"/>
<path d="M616 83.5H614V267.5H616V83.5Z" fill="white" fill-opacity="0.2"/>
<path d="M627 83.5H625V267.5H627V83.5Z" fill="white" fill-opacity="0.2"/>
<path d="M639 83.5H637V267.5H639V83.5Z" fill="white" fill-opacity="0.2"/>
<path d="M650 83.5H648V267.5H650V83.5Z" fill="white" fill-opacity="0.2"/>
<path d="M658 83.5H656V267.5H658V83.5Z" fill="white" fill-opacity="0.2"/>
<path d="M670 83.5H668V267.5H670V83.5Z" fill="white" fill-opacity="0.2"/>
<path d="M681 83.5H679V267.5H681V83.5Z" fill="white" fill-opacity="0.2"/>
<path d="M693 83.5H691V267.5H693V83.5Z" fill="white" fill-opacity="0.2"/>
<path d="M704 83.5H702V267.5H704V83.5Z" fill="white" fill-opacity="0.2"/>
<path d="M716 83.5H714V267.5H716V83.5Z" fill="white" fill-opacity="0.2"/>
<path d="M727 83.5H725V267.5H727V83.5Z" fill="white" fill-opacity="0.2"/>
<path d="M739 83.5H737V267.5H739V83.5Z" fill="white" fill-opacity="0.2"/>
<path d="M751 83.5H749V267.5H751V83.5Z" fill="white" fill-opacity="0.2"/>
<path d="M762 83.5H760V267.5H762V83.5Z" fill="white" fill-opacity="0.2"/>
<path d="M773 83.5H771V267.5H773V83.5Z" fill="white" fill-opacity="0.2"/>
<path d="M785 83.5H783V267.5H785V83.5Z" fill="white" fill-opacity="0.2"/>
<path d="M796 83.5H794V267.5H796V83.5Z" fill="white" fill-opacity="0.2"/>
<path d="M853 83.5H851V267.5H853V83.5Z" fill="white" fill-opacity="0.2"/>
<path d="M867 83.5H865V267.5H867V83.5Z" fill="white" fill-opacity="0.2"/>
<path d="M881 83.5H879V267.5H881V83.5Z" fill="white" fill-opacity="0.2"/>
<path d="M895 83.5H893V267.5H895V83.5Z" fill="white" fill-opacity="0.2"/>
<path d="M909 83.5H907V267.5H909V83.5Z" fill="white" fill-opacity="0.2"/>
<path d="M922 83.5H920V267.5H922V83.5Z" fill="white" fill-opacity="0.2"/>
<path d="M936 83.5H934V267.5H936V83.5Z" fill="white" fill-opacity="0.2"/>
<path d="M950 83.5H948V267.5H950V83.5Z" fill="white" fill-opacity="0.2"/>
<path d="M963 83.5H961V267.5H963V83.5Z" fill="white" fill-opacity="0.2"/>
<path d="M977 83.5H975V267.5H977V83.5Z" fill="white" fill-opacity="0.2"/>
<path d="M990 83.5H988V267.5H990V83.5Z" fill="white" fill-opacity="0.2"/>
<path d="M1004 83.5H1002V267.5H1004V83.5Z" fill="white" fill-opacity="0.2"/>
<path d="M465 83.5H464V267.5H465V83.5Z" fill="white" fill-opacity="0.2"/>
<path d="M350 83.5H348V267.5H350V83.5Z" fill="white" fill-opacity="0.2"/>
<path d="M353 83.5H351V267.5H353V83.5Z" fill="white" fill-opacity="0.2"/>
<path d="M38.3977 72.2386C37.2273 72.2386 36.1932 72.0312 35.2955 71.6165C34.4034 71.196 33.7074 70.6193 33.2074 69.8864C32.7074 69.1477 32.4602 68.3068 32.4659 67.3636C32.4602 66.625 32.6051 65.9432 32.9006 65.3182C33.196 64.6875 33.5994 64.1619 34.1108 63.7415C34.6278 63.3153 35.2045 63.0455 35.8409 62.9318V62.8295C35.0057 62.6136 34.3409 62.1449 33.8466 61.4233C33.3523 60.696 33.108 59.8693 33.1136 58.9432C33.108 58.0568 33.3324 57.2642 33.7869 56.5653C34.2415 55.8665 34.8665 55.3153 35.6619 54.9119C36.4631 54.5085 37.375 54.3068 38.3977 54.3068C39.4091 54.3068 40.3125 54.5085 41.108 54.9119C41.9034 55.3153 42.5284 55.8665 42.983 56.5653C43.4432 57.2642 43.6761 58.0568 43.6818 58.9432C43.6761 59.8693 43.4233 60.696 42.9233 61.4233C42.429 62.1449 41.7727 62.6136 40.9545 62.8295V62.9318C41.5852 63.0455 42.1534 63.3153 42.6591 63.7415C43.1648 64.1619 43.5682 64.6875 43.8693 65.3182C44.1705 65.9432 44.3239 66.625 44.3295 67.3636C44.3239 68.3068 44.0682 69.1477 43.5625 69.8864C43.0625 70.6193 42.3665 71.196 41.4744 71.6165C40.5881 72.0312 39.5625 72.2386 38.3977 72.2386ZM38.3977 70.3636C39.1875 70.3636 39.8693 70.2358 40.4432 69.9801C41.017 69.7244 41.4602 69.3636 41.7727 68.8977C42.0852 68.4318 42.2443 67.8864 42.25 67.2614C42.2443 66.6023 42.0739 66.0199 41.7386 65.5142C41.4034 65.0085 40.946 64.6108 40.3665 64.321C39.7926 64.0312 39.1364 63.8864 38.3977 63.8864C37.6534 63.8864 36.9886 64.0312 36.4034 64.321C35.8239 64.6108 35.3665 65.0085 35.0312 65.5142C34.7017 66.0199 34.5398 66.6023 34.5455 67.2614C34.5398 67.8864 34.6903 68.4318 34.9972 68.8977C35.3097 69.3636 35.7557 69.7244 36.3352 69.9801C36.9148 70.2358 37.6023 70.3636 38.3977 70.3636ZM38.3977 62.0795C39.0227 62.0795 39.5767 61.9545 40.0597 61.7045C40.5483 61.4545 40.9318 61.1051 41.2102 60.6562C41.4886 60.2074 41.6307 59.6818 41.6364 59.0795C41.6307 58.4886 41.4915 57.9744 41.2188 57.5369C40.946 57.0937 40.5682 56.7528 40.0852 56.5142C39.6023 56.2699 39.0398 56.1477 38.3977 56.1477C37.7443 56.1477 37.1733 56.2699 36.6847 56.5142C36.196 56.7528 35.8182 57.0937 35.5511 57.5369C35.2841 57.9744 35.1534 58.4886 35.1591 59.0795C35.1534 59.6818 35.2869 60.2074 35.5597 60.6562C35.8381 61.1051 36.2216 61.4545 36.7102 61.7045C37.1989 61.9545 37.7614 62.0795 38.3977 62.0795ZM53.2891 72.2386C52.005 72.2386 50.9112 71.8892 50.0078 71.1903C49.1044 70.4858 48.4141 69.4659 47.9368 68.1307C47.4595 66.7898 47.2209 65.1705 47.2209 63.2727C47.2209 61.3864 47.4595 59.7756 47.9368 58.4403C48.4197 57.0994 49.1129 56.0767 50.0163 55.3722C50.9254 54.6619 52.0163 54.3068 53.2891 54.3068C54.5618 54.3068 55.6499 54.6619 56.5533 55.3722C57.4624 56.0767 58.1555 57.0994 58.6328 58.4403C59.1158 59.7756 59.3572 61.3864 59.3572 63.2727C59.3572 65.1705 59.1186 66.7898 58.6413 68.1307C58.1641 69.4659 57.4737 70.4858 56.5703 71.1903C55.6669 71.8892 54.5732 72.2386 53.2891 72.2386ZM53.2891 70.3636C54.5618 70.3636 55.5504 69.75 56.255 68.5227C56.9595 67.2955 57.3118 65.5455 57.3118 63.2727C57.3118 61.7614 57.1499 60.4744 56.826 59.4119C56.5078 58.3494 56.0476 57.5398 55.4453 56.983C54.8487 56.4261 54.13 56.1477 53.2891 56.1477C52.0277 56.1477 51.0419 56.7699 50.3317 58.0142C49.6214 59.2528 49.2663 61.0057 49.2663 63.2727C49.2663 64.7841 49.4254 66.0682 49.7436 67.125C50.0618 68.1818 50.5192 68.9858 51.1158 69.5369C51.718 70.0881 52.4425 70.3636 53.2891 70.3636Z" fill="white"/>
<path d="M258.377 54.5455V72H256.263V56.7614H256.161L251.9 59.5909V57.4432L256.263 54.5455H258.377ZM269.192 72.2386C268.476 72.2273 267.76 72.0909 267.044 71.8295C266.328 71.5682 265.675 71.1278 265.084 70.5085C264.493 69.8835 264.019 69.0398 263.661 67.9773C263.303 66.9091 263.124 65.5682 263.124 63.9545C263.124 62.4091 263.269 61.0398 263.559 59.8466C263.848 58.6477 264.269 57.6392 264.82 56.821C265.371 55.9972 266.036 55.3722 266.814 54.946C267.598 54.5199 268.482 54.3068 269.465 54.3068C270.442 54.3068 271.311 54.5028 272.073 54.8949C272.84 55.2812 273.465 55.821 273.948 56.5142C274.431 57.2074 274.743 58.0057 274.885 58.9091H272.806C272.613 58.125 272.238 57.4744 271.681 56.9574C271.124 56.4403 270.385 56.1818 269.465 56.1818C268.113 56.1818 267.047 56.7699 266.269 57.946C265.496 59.1222 265.107 60.7727 265.101 62.8977H265.238C265.556 62.4148 265.934 62.0028 266.371 61.6619C266.814 61.3153 267.303 61.0483 267.837 60.8608C268.371 60.6733 268.936 60.5795 269.533 60.5795C270.533 60.5795 271.448 60.8295 272.277 61.3295C273.107 61.8239 273.772 62.5085 274.272 63.3835C274.772 64.2528 275.022 65.25 275.022 66.375C275.022 67.4545 274.78 68.4432 274.297 69.3409C273.814 70.233 273.135 70.9432 272.26 71.4716C271.391 71.9943 270.368 72.25 269.192 72.2386ZM269.192 70.3636C269.908 70.3636 270.55 70.1847 271.118 69.8267C271.692 69.4687 272.144 68.9886 272.473 68.3864C272.809 67.7841 272.976 67.1136 272.976 66.375C272.976 65.6534 272.814 64.9972 272.49 64.4062C272.172 63.8097 271.732 63.3352 271.169 62.983C270.613 62.6307 269.976 62.4545 269.26 62.4545C268.721 62.4545 268.218 62.5625 267.752 62.7784C267.286 62.9886 266.877 63.2784 266.525 63.6477C266.178 64.017 265.905 64.4403 265.706 64.9176C265.507 65.3892 265.408 65.8864 265.408 66.4091C265.408 67.1023 265.57 67.75 265.894 68.3523C266.223 68.9545 266.672 69.4403 267.24 69.8097C267.814 70.179 268.465 70.3636 269.192 70.3636ZM284.066 72.2386C282.782 72.2386 281.689 71.8892 280.785 71.1903C279.882 70.4858 279.191 69.4659 278.714 68.1307C278.237 66.7898 277.998 65.1705 277.998 63.2727C277.998 61.3864 278.237 59.7756 278.714 58.4403C279.197 57.0994 279.89 56.0767 280.794 55.3722C281.703 54.6619 282.794 54.3068 284.066 54.3068C285.339 54.3068 286.427 54.6619 287.331 55.3722C288.24 56.0767 288.933 57.0994 289.41 58.4403C289.893 59.7756 290.135 61.3864 290.135 63.2727C290.135 65.1705 289.896 66.7898 289.419 68.1307C288.941 69.4659 288.251 70.4858 287.348 71.1903C286.444 71.8892 285.35 72.2386 284.066 72.2386ZM284.066 70.3636C285.339 70.3636 286.328 69.75 287.032 68.5227C287.737 67.2955 288.089 65.5455 288.089 63.2727C288.089 61.7614 287.927 60.4744 287.603 59.4119C287.285 58.3494 286.825 57.5398 286.223 56.983C285.626 56.4261 284.907 56.1477 284.066 56.1477C282.805 56.1477 281.819 56.7699 281.109 58.0142C280.399 59.2528 280.044 61.0057 280.044 63.2727C280.044 64.7841 280.203 66.0682 280.521 67.125C280.839 68.1818 281.297 68.9858 281.893 69.5369C282.495 70.0881 283.22 70.3636 284.066 70.3636Z" fill="white"/>
<path d="M477.029 72V70.4659L482.791 64.1591C483.467 63.4205 484.024 62.7784 484.461 62.233C484.899 61.6818 485.223 61.1648 485.433 60.6818C485.649 60.1932 485.757 59.6818 485.757 59.1477C485.757 58.5341 485.609 58.0028 485.314 57.554C485.024 57.1051 484.626 56.7585 484.12 56.5142C483.615 56.2699 483.047 56.1477 482.416 56.1477C481.745 56.1477 481.16 56.2869 480.66 56.5653C480.166 56.8381 479.782 57.2216 479.51 57.7159C479.243 58.2102 479.109 58.7898 479.109 59.4545H477.098C477.098 58.4318 477.333 57.5341 477.805 56.7614C478.277 55.9886 478.919 55.3864 479.731 54.9545C480.549 54.5227 481.467 54.3068 482.484 54.3068C483.507 54.3068 484.413 54.5227 485.203 54.9545C485.993 55.3864 486.612 55.9687 487.061 56.7017C487.51 57.4347 487.734 58.25 487.734 59.1477C487.734 59.7898 487.618 60.4176 487.385 61.0312C487.157 61.6392 486.76 62.3182 486.191 63.0682C485.629 63.8125 484.848 64.7216 483.848 65.7955L479.927 69.9886V70.125H488.041V72H477.029ZM490.777 68.4205V66.6818L498.447 54.5455H499.708V57.2386H498.856L493.061 66.4091V66.5455H503.39V68.4205H490.777ZM498.993 72V67.892V67.0824V54.5455H501.004V72H498.993ZM512.277 72.2386C510.993 72.2386 509.9 71.8892 508.996 71.1903C508.093 70.4858 507.402 69.4659 506.925 68.1307C506.448 66.7898 506.209 65.1705 506.209 63.2727C506.209 61.3864 506.448 59.7756 506.925 58.4403C507.408 57.0994 508.101 56.0767 509.005 55.3722C509.914 54.6619 511.005 54.3068 512.277 54.3068C513.55 54.3068 514.638 54.6619 515.542 55.3722C516.451 56.0767 517.144 57.0994 517.621 58.4403C518.104 59.7756 518.346 61.3864 518.346 63.2727C518.346 65.1705 518.107 66.7898 517.63 68.1307C517.152 69.4659 516.462 70.4858 515.559 71.1903C514.655 71.8892 513.561 72.2386 512.277 72.2386ZM512.277 70.3636C513.55 70.3636 514.539 69.75 515.243 68.5227C515.948 67.2955 516.3 65.5455 516.3 63.2727C516.3 61.7614 516.138 60.4744 515.814 59.4119C515.496 58.3494 515.036 57.5398 514.434 56.983C513.837 56.4261 513.118 56.1477 512.277 56.1477C511.016 56.1477 510.03 56.7699 509.32 58.0142C508.61 59.2528 508.255 61.0057 508.255 63.2727C508.255 64.7841 508.414 66.0682 508.732 67.125C509.05 68.1818 509.507 68.9858 510.104 69.5369C510.706 70.0881 511.431 70.3636 512.277 70.3636Z" fill="white"/>
<path d="M707.798 72.2386C706.673 72.2386 705.67 72.0455 704.79 71.6591C703.915 71.2727 703.219 70.7358 702.702 70.0483C702.19 69.3551 701.912 68.5511 701.866 67.6364H704.014C704.06 68.1989 704.253 68.6847 704.594 69.0938C704.935 69.4972 705.381 69.8097 705.932 70.0312C706.483 70.2528 707.094 70.3636 707.764 70.3636C708.514 70.3636 709.179 70.233 709.759 69.9716C710.338 69.7102 710.793 69.3466 711.122 68.8807C711.452 68.4148 711.616 67.875 711.616 67.2614C711.616 66.6193 711.457 66.054 711.139 65.5653C710.821 65.071 710.355 64.6847 709.741 64.4062C709.128 64.1278 708.378 63.9886 707.491 63.9886H706.094V62.1136H707.491C708.185 62.1136 708.793 61.9886 709.315 61.7386C709.844 61.4886 710.256 61.1364 710.551 60.6818C710.852 60.2273 711.003 59.6932 711.003 59.0795C711.003 58.4886 710.872 57.9744 710.611 57.5369C710.349 57.0994 709.98 56.7585 709.503 56.5142C709.031 56.2699 708.474 56.1477 707.832 56.1477C707.23 56.1477 706.662 56.2585 706.128 56.4801C705.599 56.696 705.168 57.0114 704.832 57.4261C704.497 57.8352 704.315 58.3295 704.287 58.9091H702.241C702.276 57.9943 702.551 57.1932 703.068 56.5057C703.585 55.8125 704.261 55.2727 705.097 54.8864C705.938 54.5 706.861 54.3068 707.866 54.3068C708.946 54.3068 709.872 54.5256 710.645 54.9631C711.418 55.3949 712.011 55.9659 712.426 56.6761C712.841 57.3864 713.048 58.1534 713.048 58.9773C713.048 59.9602 712.79 60.7983 712.273 61.4915C711.761 62.1847 711.065 62.6648 710.185 62.9318V63.0682C711.287 63.25 712.148 63.7187 712.767 64.4744C713.386 65.2244 713.696 66.1534 713.696 67.2614C713.696 68.2102 713.438 69.0625 712.92 69.8182C712.409 70.5682 711.71 71.1591 710.824 71.5909C709.938 72.0227 708.929 72.2386 707.798 72.2386ZM717.182 72V70.4659L722.943 64.1591C723.619 63.4205 724.176 62.7784 724.614 62.233C725.051 61.6818 725.375 61.1648 725.585 60.6818C725.801 60.1932 725.909 59.6818 725.909 59.1477C725.909 58.5341 725.761 58.0028 725.466 57.554C725.176 57.1051 724.778 56.7585 724.273 56.5142C723.767 56.2699 723.199 56.1477 722.568 56.1477C721.898 56.1477 721.312 56.2869 720.812 56.5653C720.318 56.8381 719.935 57.2216 719.662 57.7159C719.395 58.2102 719.261 58.7898 719.261 59.4545H717.25C717.25 58.4318 717.486 57.5341 717.957 56.7614C718.429 55.9886 719.071 55.3864 719.884 54.9545C720.702 54.5227 721.619 54.3068 722.636 54.3068C723.659 54.3068 724.565 54.5227 725.355 54.9545C726.145 55.3864 726.764 55.9687 727.213 56.7017C727.662 57.4347 727.886 58.25 727.886 59.1477C727.886 59.7898 727.77 60.4176 727.537 61.0312C727.31 61.6392 726.912 62.3182 726.344 63.0682C725.781 63.8125 725 64.7216 724 65.7955L720.08 69.9886V70.125H728.193V72H717.182ZM737.406 72.2386C736.122 72.2386 735.028 71.8892 734.125 71.1903C733.222 70.4858 732.531 69.4659 732.054 68.1307C731.577 66.7898 731.338 65.1705 731.338 63.2727C731.338 61.3864 731.577 59.7756 732.054 58.4403C732.537 57.0994 733.23 56.0767 734.134 55.3722C735.043 54.6619 736.134 54.3068 737.406 54.3068C738.679 54.3068 739.767 54.6619 740.67 55.3722C741.58 56.0767 742.273 57.0994 742.75 58.4403C743.233 59.7756 743.474 61.3864 743.474 63.2727C743.474 65.1705 743.236 66.7898 742.759 68.1307C742.281 69.4659 741.591 70.4858 740.688 71.1903C739.784 71.8892 738.69 72.2386 737.406 72.2386ZM737.406 70.3636C738.679 70.3636 739.668 69.75 740.372 68.5227C741.077 67.2955 741.429 65.5455 741.429 63.2727C741.429 61.7614 741.267 60.4744 740.943 59.4119C740.625 58.3494 740.165 57.5398 739.562 56.983C738.966 56.4261 738.247 56.1477 737.406 56.1477C736.145 56.1477 735.159 56.7699 734.449 58.0142C733.739 59.2528 733.384 61.0057 733.384 63.2727C733.384 64.7841 733.543 66.0682 733.861 67.125C734.179 68.1818 734.636 68.9858 735.233 69.5369C735.835 70.0881 736.56 70.3636 737.406 70.3636Z" fill="white"/>
<path d="M925.699 68.4205V66.6818L933.369 54.5455H934.63V57.2386H933.778L927.983 66.4091V66.5455H938.312V68.4205H925.699ZM933.914 72V67.892V67.0824V54.5455H935.926V72H933.914ZM947.199 72.2386C945.915 72.2386 944.821 71.8892 943.918 71.1903C943.015 70.4858 942.324 69.4659 941.847 68.1307C941.37 66.7898 941.131 65.1705 941.131 63.2727C941.131 61.3864 941.37 59.7756 941.847 58.4403C942.33 57.0994 943.023 56.0767 943.926 55.3722C944.836 54.6619 945.926 54.3068 947.199 54.3068C948.472 54.3068 949.56 54.6619 950.463 55.3722C951.373 56.0767 952.066 57.0994 952.543 58.4403C953.026 59.7756 953.267 61.3864 953.267 63.2727C953.267 65.1705 953.029 66.7898 952.551 68.1307C952.074 69.4659 951.384 70.4858 950.48 71.1903C949.577 71.8892 948.483 72.2386 947.199 72.2386ZM947.199 70.3636C948.472 70.3636 949.461 69.75 950.165 68.5227C950.87 67.2955 951.222 65.5455 951.222 63.2727C951.222 61.7614 951.06 60.4744 950.736 59.4119C950.418 58.3494 949.958 57.5398 949.355 56.983C948.759 56.4261 948.04 56.1477 947.199 56.1477C945.938 56.1477 944.952 56.7699 944.242 58.0142C943.532 59.2528 943.176 61.0057 943.176 63.2727C943.176 64.7841 943.336 66.0682 943.654 67.125C943.972 68.1818 944.429 68.9858 945.026 69.5369C945.628 70.0881 946.353 70.3636 947.199 70.3636ZM962.199 72.2386C960.915 72.2386 959.821 71.8892 958.918 71.1903C958.015 70.4858 957.324 69.4659 956.847 68.1307C956.37 66.7898 956.131 65.1705 956.131 63.2727C956.131 61.3864 956.37 59.7756 956.847 58.4403C957.33 57.0994 958.023 56.0767 958.926 55.3722C959.836 54.6619 960.926 54.3068 962.199 54.3068C963.472 54.3068 964.56 54.6619 965.463 55.3722C966.373 56.0767 967.066 57.0994 967.543 58.4403C968.026 59.7756 968.267 61.3864 968.267 63.2727C968.267 65.1705 968.029 66.7898 967.551 68.1307C967.074 69.4659 966.384 70.4858 965.48 71.1903C964.577 71.8892 963.483 72.2386 962.199 72.2386ZM962.199 70.3636C963.472 70.3636 964.461 69.75 965.165 68.5227C965.87 67.2955 966.222 65.5455 966.222 63.2727C966.222 61.7614 966.06 60.4744 965.736 59.4119C965.418 58.3494 964.958 57.5398 964.355 56.983C963.759 56.4261 963.04 56.1477 962.199 56.1477C960.938 56.1477 959.952 56.7699 959.242 58.0142C958.532 59.2528 958.176 61.0057 958.176 63.2727C958.176 64.7841 958.336 66.0682 958.654 67.125C958.972 68.1818 959.429 68.9858 960.026 69.5369C960.628 70.0881 961.353 70.3636 962.199 70.3636Z" fill="white"/>
<path d="M0 266.5H39L41 127L43 266.5H56L58.5 84.5L60.5 266.5H156.5L158 257L160 266.5H167L169.5 136.5L172 266.5H179.5L182 171.5L184.5 266.5H257.5L259 261L260.5 266.5H263.5L265 265H269L271 131.5L273 266.5H345L347 265L348 262L350.5 266.5H353L357.5 263.5L360 146.5L362 264L363.5 266.5H416.5L418 265H427.5L429.5 190.5L432 265L433.5 266.5H446L447.5 265L449.5 165.5L452.5 266.5H568L570 261L572.5 266.5H578L579 265L582 169L584.5 266.5H590.5L593 178.5L596 266.5H712L714 263L716.5 266.5H721L723 265L726 157L728.5 265L730 266.5H734.5L737 262L739.5 266.5L746.5 264L749 173L751.5 265L753.5 266.5H874L877 264.5L880 171.5L883 265L884.5 266.5H933L946 263.5L949 179L952.5 266.5H1013" stroke="white" stroke-width="2" stroke-miterlimit="1.11658" stroke-linejoin="round"/>
<path d="M45.5 77.5H46.5V88H45.5V77.5Z" fill="white"/>
<path d="M158 77.5H159V88H158V77.5Z" fill="white"/>
<path d="M271 77.5H272V88H271V77.5Z" fill="white"/>
<path d="M384 77.5H385V88H384V77.5Z" fill="white"/>
<path d="M497 77.5H498V88H497V77.5Z" fill="white"/>
<path d="M610 77.5H611V88H610V77.5Z" fill="white"/>
<path d="M722 77.5H723V88H722V77.5Z" fill="white"/>
<path d="M835 77.5H836V88H835V77.5Z" fill="white"/>
<path d="M948 77.5H949V88H948V77.5Z" fill="white"/>
<path d="M40 83.5H1004" stroke="white"/>
</svg>
