<svg width="419" height="752" viewBox="0 0 419 752" fill="none" xmlns="http://www.w3.org/2000/svg">
<g clip-path="url(#clip0_3567_1182)">
<rect width="419" height="752" fill="#053249"/>
<path fill-rule="evenodd" clip-rule="evenodd" d="M62.439 347.218C60.7793 340.767 54.9238 336 47.9549 336C39.6955 336 33 342.696 33 350.955C33 359.215 39.6955 365.91 47.9549 365.91C54.9228 365.91 60.7777 361.145 62.4383 354.695L91.5739 354.695L91.5739 347.218L62.439 347.218Z" fill="#FF0000"/>
<path fill-rule="evenodd" clip-rule="evenodd" d="M203.885 436.283L232.346 434.403L338.67 313.038L318.442 295.318L203.259 426.796L203.885 436.283ZM293.431 349.381C296.051 349.208 298.034 346.944 297.861 344.324C297.688 341.704 295.424 339.721 292.804 339.894C290.184 340.067 288.201 342.331 288.374 344.951C288.547 347.57 290.811 349.554 293.431 349.381Z" fill="#CDCDCD"/>
<path fill-rule="evenodd" clip-rule="evenodd" d="M348.788 321.897C369.746 320.512 385.613 302.4 384.229 281.442C382.844 260.484 364.732 244.616 343.774 246.001C322.816 247.385 306.949 265.498 308.333 286.456C309.718 307.414 327.83 323.281 348.788 321.897ZM347.537 302.925C358.017 302.233 365.95 293.177 365.258 282.698C364.566 272.219 355.51 264.285 345.031 264.977C334.552 265.669 326.618 274.725 327.31 285.204C328.002 295.684 337.058 303.617 347.537 302.925Z" fill="#9D1A1A"/>
<path fill-rule="evenodd" clip-rule="evenodd" d="M348.788 321.897C369.746 320.512 385.613 302.4 384.229 281.442C382.844 260.484 364.732 244.616 343.774 246.001C322.816 247.385 306.949 265.498 308.333 286.456C309.718 307.414 327.83 323.281 348.788 321.897ZM347.537 302.925C358.017 302.233 365.95 293.177 365.258 282.698C364.566 272.219 355.51 264.285 345.031 264.977C334.552 265.669 326.618 274.725 327.31 285.204C328.002 295.684 337.058 303.617 347.537 302.925Z" fill="#9D1A1A"/>
<path fill-rule="evenodd" clip-rule="evenodd" d="M75.4388 219.217C73.7789 212.767 67.9235 208 60.9549 208C52.6955 208 46 214.696 46 222.955C46 231.215 52.6955 237.91 60.9549 237.91C67.9231 237.91 73.7782 233.144 75.4386 226.695L104.573 226.695L104.573 219.217L75.4388 219.217Z" fill="#FF0000"/>
<path fill-rule="evenodd" clip-rule="evenodd" d="M59.4388 122.217C57.7789 115.767 51.9235 111 44.9549 111C36.6955 111 30 117.696 30 125.955C30 134.215 36.6955 140.91 44.9549 140.91C51.9231 140.91 57.7782 136.144 59.4386 129.695L88.5726 129.695L88.5726 122.217L59.4388 122.217Z" fill="#FF0000"/>
<path fill-rule="evenodd" clip-rule="evenodd" d="M74.4388 535.693C72.7789 542.144 66.9235 546.91 59.9549 546.91C51.6955 546.91 45 540.214 45 531.955C45 523.696 51.6955 517 59.9549 517C66.9231 517 72.7782 521.766 74.4386 528.216L103.573 528.216L103.573 535.693L74.4388 535.693Z" fill="#FF0000"/>
<path fill-rule="evenodd" clip-rule="evenodd" d="M76.4388 672.693C74.7789 679.144 68.9235 683.91 61.9549 683.91C53.6955 683.91 47 677.214 47 668.955C47 660.696 53.6955 654 61.9549 654C68.9231 654 74.7782 658.766 76.4386 665.216L105.573 665.216L105.573 672.693L76.4388 672.693Z" fill="#FF0000"/>
<path fill-rule="evenodd" clip-rule="evenodd" d="M229.135 440.218C230.795 433.767 236.65 429 243.619 429C251.879 429 258.574 435.696 258.574 443.955C258.574 452.215 251.879 458.91 243.619 458.91C236.651 458.91 230.796 454.145 229.136 447.695L200 447.695L200 440.218L229.135 440.218Z" fill="#FF0000"/>
<path fill-rule="evenodd" clip-rule="evenodd" d="M245.135 622.218C246.795 615.767 252.65 611 259.619 611C267.879 611 274.574 617.696 274.574 625.955C274.574 634.215 267.879 640.91 259.619 640.91C252.651 640.91 246.796 636.145 245.136 629.695L216 629.695L216 622.218L245.135 622.218Z" fill="#FF0000"/>
<path d="M76 606V595.227C76 570.27 81.2131 550.027 91.6393 534.496C102.065 518.965 116.446 503.3 134.782 487.5C116.446 471.7 102.065 456.035 91.6393 440.504C81.2131 424.973 76 404.73 76 379.773V369H97.5714V379.773C97.5714 381.748 97.6164 383.588 97.7063 385.294C97.7961 386.999 97.931 388.75 98.1107 390.545H204.889C205.069 388.75 205.204 386.999 205.294 385.294C205.384 383.588 205.429 381.748 205.429 379.773V369H227V379.773C227 404.73 221.787 424.973 211.361 440.504C200.935 456.035 186.554 471.7 168.218 487.5C186.554 503.3 200.935 518.965 211.361 534.496C221.787 550.027 227 570.27 227 595.227V606H205.429V595.227C205.429 593.252 205.384 591.412 205.294 589.706C205.204 588.001 205.069 586.25 204.889 584.455H98.1107C97.931 586.25 97.7961 588.001 97.7063 589.706C97.6164 591.412 97.5714 593.252 97.5714 595.227V606H76ZM113.211 433.636H189.789C192.126 430.225 194.149 426.814 195.856 423.402C197.564 419.991 199.137 416.22 200.575 412.091H102.425C103.863 416.041 105.436 419.766 107.144 423.268C108.851 426.769 110.874 430.225 113.211 433.636ZM151.5 473.495C155.095 470.443 158.601 467.391 162.016 464.339C165.432 461.286 168.667 458.234 171.723 455.182H131.277C134.333 458.234 137.568 461.286 140.984 464.339C144.399 467.391 147.905 470.443 151.5 473.495ZM131.277 519.818H171.723C168.667 516.766 165.432 513.714 162.016 510.661C158.601 507.609 155.095 504.557 151.5 501.505C147.905 504.557 144.399 507.609 140.984 510.661C137.568 513.714 134.333 516.766 131.277 519.818ZM102.425 562.909H200.575C199.137 558.959 197.564 555.234 195.856 551.732C194.149 548.231 192.126 544.775 189.789 541.364H113.211C110.874 544.775 108.851 548.186 107.144 551.598C105.436 555.009 103.863 558.78 102.425 562.909Z" fill="white"/>
<path d="M76 829V818.227C76 793.27 81.2131 773.027 91.6393 757.496C102.065 741.965 116.446 726.3 134.782 710.5C116.446 694.7 102.065 679.035 91.6393 663.504C81.2131 647.973 76 627.73 76 602.773V592H97.5714V602.773C97.5714 604.748 97.6164 606.588 97.7063 608.294C97.7961 609.999 97.931 611.75 98.1107 613.545H204.889C205.069 611.75 205.204 609.999 205.294 608.294C205.384 606.588 205.429 604.748 205.429 602.773V592H227V602.773C227 627.73 221.787 647.973 211.361 663.504C200.935 679.035 186.554 694.7 168.218 710.5C186.554 726.3 200.935 741.965 211.361 757.496C221.787 773.027 227 793.27 227 818.227V829H205.429V818.227C205.429 816.252 205.384 814.412 205.294 812.706C205.204 811.001 205.069 809.25 204.889 807.455H98.1107C97.931 809.25 97.7961 811.001 97.7063 812.706C97.6164 814.412 97.5714 816.252 97.5714 818.227V829H76ZM113.211 656.636H189.789C192.126 653.225 194.149 649.814 195.856 646.402C197.564 642.991 199.137 639.22 200.575 635.091H102.425C103.863 639.041 105.436 642.766 107.144 646.268C108.851 649.769 110.874 653.225 113.211 656.636ZM151.5 696.495C155.095 693.443 158.601 690.391 162.016 687.339C165.432 684.286 168.667 681.234 171.723 678.182H131.277C134.333 681.234 137.568 684.286 140.984 687.339C144.399 690.391 147.905 693.443 151.5 696.495ZM131.277 742.818H171.723C168.667 739.766 165.432 736.714 162.016 733.661C158.601 730.609 155.095 727.557 151.5 724.505C147.905 727.557 144.399 730.609 140.984 733.661C137.568 736.714 134.333 739.766 131.277 742.818ZM102.425 785.909H200.575C199.137 781.959 197.564 778.234 195.856 774.732C194.149 771.231 192.126 767.775 189.789 764.364H113.211C110.874 767.775 108.851 771.186 107.144 774.598C105.436 778.009 103.863 781.78 102.425 785.909Z" fill="white"/>
<path d="M76 383V372.227C76 347.27 81.2131 327.027 91.6393 311.496C102.065 295.965 116.446 280.3 134.782 264.5C116.446 248.7 102.065 233.035 91.6393 217.504C81.2131 201.973 76 181.73 76 156.773V146H97.5714V156.773C97.5714 158.748 97.6164 160.588 97.7063 162.294C97.7961 163.999 97.931 165.75 98.1107 167.545H204.889C205.069 165.75 205.204 163.999 205.294 162.294C205.384 160.588 205.429 158.748 205.429 156.773V146H227V156.773C227 181.73 221.787 201.973 211.361 217.504C200.935 233.035 186.554 248.7 168.218 264.5C186.554 280.3 200.935 295.965 211.361 311.496C221.787 327.027 227 347.27 227 372.227V383H205.429V372.227C205.429 370.252 205.384 368.412 205.294 366.706C205.204 365.001 205.069 363.25 204.889 361.455H98.1107C97.931 363.25 97.7961 365.001 97.7063 366.706C97.6164 368.412 97.5714 370.252 97.5714 372.227V383H76ZM113.211 210.636H189.789C192.126 207.225 194.149 203.814 195.856 200.402C197.564 196.991 199.137 193.22 200.575 189.091H102.425C103.863 193.041 105.436 196.766 107.144 200.268C108.851 203.769 110.874 207.225 113.211 210.636ZM151.5 250.495C155.095 247.443 158.601 244.391 162.016 241.339C165.432 238.286 168.667 235.234 171.723 232.182H131.277C134.333 235.234 137.568 238.286 140.984 241.339C144.399 244.391 147.905 247.443 151.5 250.495ZM131.277 296.818H171.723C168.667 293.766 165.432 290.714 162.016 287.661C158.601 284.609 155.095 281.557 151.5 278.505C147.905 281.557 144.399 284.609 140.984 287.661C137.568 290.714 134.333 293.766 131.277 296.818ZM102.425 339.909H200.575C199.137 335.959 197.564 332.234 195.856 328.732C194.149 325.231 192.126 321.775 189.789 318.364H113.211C110.874 321.775 108.851 325.186 107.144 328.598C105.436 332.009 103.863 335.78 102.425 339.909Z" fill="white"/>
<path d="M76 160V149.227C76 124.27 81.2131 104.027 91.6393 88.496C102.065 72.9653 116.446 57.3 134.782 41.5C116.446 25.7 102.065 10.0347 91.6393 -5.49602C81.2131 -21.0267 76 -41.2705 76 -66.2273V-77H97.5714V-66.2273C97.5714 -64.2523 97.6164 -62.4119 97.7063 -60.7062C97.7961 -59.0006 97.931 -57.25 98.1107 -55.4545H204.889C205.069 -57.25 205.204 -59.0006 205.294 -60.7062C205.384 -62.4119 205.429 -64.2523 205.429 -66.2273V-77H227V-66.2273C227 -41.2705 221.787 -21.0267 211.361 -5.49602C200.935 10.0347 186.554 25.7 168.218 41.5C186.554 57.3 200.935 72.9653 211.361 88.496C221.787 104.027 227 124.27 227 149.227V160H205.429V149.227C205.429 147.252 205.384 145.412 205.294 143.706C205.204 142.001 205.069 140.25 204.889 138.455H98.1107C97.931 140.25 97.7961 142.001 97.7063 143.706C97.6164 145.412 97.5714 147.252 97.5714 149.227V160H76ZM113.211 -12.3636H189.789C192.126 -15.775 194.149 -19.1864 195.856 -22.5977C197.564 -26.0091 199.137 -29.7795 200.575 -33.9091H102.425C103.863 -29.9591 105.436 -26.2335 107.144 -22.7324C108.851 -19.2312 110.874 -15.775 113.211 -12.3636ZM151.5 27.4955C155.095 24.4432 158.601 21.3909 162.016 18.3386C165.432 15.2864 168.667 12.2341 171.723 9.18182H131.277C134.333 12.2341 137.568 15.2864 140.984 18.3386C144.399 21.3909 147.905 24.4432 151.5 27.4955ZM131.277 73.8182H171.723C168.667 70.7659 165.432 67.7136 162.016 64.6614C158.601 61.6091 155.095 58.5568 151.5 55.5045C147.905 58.5568 144.399 61.6091 140.984 64.6614C137.568 67.7136 134.333 70.7659 131.277 73.8182ZM102.425 116.909H200.575C199.137 112.959 197.564 109.234 195.856 105.732C194.149 102.231 192.126 98.775 189.789 95.3636H113.211C110.874 98.775 108.851 102.186 107.144 105.598C105.436 109.009 103.863 112.78 102.425 116.909Z" fill="white"/>
<g filter="url(#filter0_d_3567_1182)">
<path fill-rule="evenodd" clip-rule="evenodd" d="M168 318.076L192.702 303.815L348.554 345.575L341.594 371.551L172.754 326.31L168 318.076ZM295.499 348.754C297.772 347.442 298.551 344.534 297.239 342.261C295.926 339.987 293.019 339.208 290.745 340.521C288.471 341.833 287.692 344.741 289.005 347.014C290.318 349.288 293.225 350.067 295.499 348.754Z" fill="#E0E0E0"/>
</g>
<path fill-rule="evenodd" clip-rule="evenodd" d="M390.062 398.453C408.252 387.952 414.484 364.692 403.982 346.503C393.48 328.313 370.221 322.08 352.031 332.582C333.841 343.084 327.609 366.343 338.111 384.533C348.613 402.723 371.872 408.955 390.062 398.453ZM380.557 381.985C389.652 376.734 392.768 365.104 387.517 356.009C382.266 346.914 370.637 343.798 361.542 349.049C352.447 354.3 349.331 365.93 354.582 375.024C359.833 384.119 371.462 387.235 380.557 381.985Z" fill="#9D1A1A"/>
<path fill-rule="evenodd" clip-rule="evenodd" d="M390.062 398.453C408.252 387.952 414.484 364.692 403.982 346.503C393.48 328.313 370.221 322.08 352.031 332.582C333.841 343.084 327.609 366.343 338.111 384.533C348.613 402.723 371.872 408.955 390.062 398.453ZM380.557 381.985C389.652 376.734 392.768 365.104 387.517 356.009C382.266 346.914 370.637 343.798 361.542 349.049C352.447 354.3 349.331 365.93 354.582 375.024C359.833 384.119 371.462 387.235 380.557 381.985Z" fill="#9D1A1A"/>
</g>
<defs>
<filter id="filter0_d_3567_1182" x="167" y="303.814" width="182.555" height="69.7363" filterUnits="userSpaceOnUse" color-interpolation-filters="sRGB">
<feFlood flood-opacity="0" result="BackgroundImageFix"/>
<feColorMatrix in="SourceAlpha" type="matrix" values="0 0 0 0 0 0 0 0 0 0 0 0 0 0 0 0 0 0 127 0" result="hardAlpha"/>
<feOffset dy="1"/>
<feGaussianBlur stdDeviation="0.5"/>
<feComposite in2="hardAlpha" operator="out"/>
<feColorMatrix type="matrix" values="0 0 0 0 0 0 0 0 0 0 0 0 0 0 0 0 0 0 0.08 0"/>
<feBlend mode="normal" in2="BackgroundImageFix" result="effect1_dropShadow_3567_1182"/>
<feBlend mode="normal" in="SourceGraphic" in2="effect1_dropShadow_3567_1182" result="shape"/>
</filter>
<clipPath id="clip0_3567_1182">
<rect width="419" height="752" fill="white"/>
</clipPath>
</defs>
</svg>
