<svg width="80" height="80" viewBox="0 0 80 80" fill="none" xmlns="http://www.w3.org/2000/svg">
<path d="M60.5705 39.9587L61.6623 39.0902C61.6623 39.0902 77.9425 25.5484 73.5874 21.1715C73.557 21.1465 73.5286 21.1194 73.5024 21.0905C72.5524 20.2202 71.5817 19.3709 70.5909 18.543C70.5401 18.5071 70.4951 18.4642 70.4575 18.4157C70.2391 18.2651 68.7045 17.0204 68.4134 17.0204C68.2548 17.0214 68.098 17.0529 67.9524 17.113L67.4853 17.4604L53.3281 27.5053C53.3281 27.5053 45.922 33.2833 46.9592 34.8928C47.1274 35.098 47.3521 35.2544 47.6082 35.3444C49.9132 36.1376 53.3099 33.6017 60.6008 39.976" fill="url(#paint0_linear_167_8)"/>
<path style="mix-blend-mode:multiply" d="M61.2022 40.5228L62.294 39.6544C62.294 39.6544 78.5681 26.1068 74.213 21.7299L74.1341 21.6488C73.3213 20.9077 72.4964 20.1667 71.623 19.4314L71.2226 19.1072C71.2226 19.1072 74.1948 21.1393 72.1931 24.0515C68.1838 29.8584 55.5127 35.5901 55.5127 35.5901C55.5127 35.5901 60.0255 39.4691 61.2022 40.517V40.5228Z" fill="url(#paint1_linear_167_8)"/>
<path d="M79.5091 27.6109C79.3342 27.274 79.1049 26.9653 78.8298 26.6962L78.7934 26.6614C77.6828 25.2651 76.4815 23.9366 75.1965 22.684C74.687 22.1803 73.8074 21.2135 73.2555 20.704C77.6045 25.0867 61.6701 39.0917 61.6701 39.0917L60.5723 39.9601C61.6398 40.9154 62.1675 41.4075 62.1675 41.4075C62.1675 41.4075 78.023 55.0304 73.5284 58.9846C74.4625 58.1336 75.3481 57.2883 76.1609 56.443C77.1473 55.4314 78.0766 54.3704 78.945 53.2645L79.4303 52.6335C79.7978 52.0448 79.9946 51.3734 80.0004 50.6882V29.4057C79.9951 28.7778 79.8263 28.1611 79.5091 27.6109Z" fill="url(#paint2_linear_167_8)"/>
<path d="M62.1678 41.4C62.1678 41.4 61.64 40.9137 60.5725 39.9584L56.3872 43.189C52.1114 46.4623 47.8128 49.7084 43.4917 52.927C42.3585 53.7753 41.212 54.6071 40.0525 55.4223C51.8805 63.5451 58.583 66.4688 58.583 66.4688C59.5961 66.9659 60.7373 67.1755 61.8713 67.0729C63.0054 66.9703 64.0849 66.5598 64.9822 65.8899C64.9991 65.8708 65.0197 65.8551 65.0429 65.8435C67.9932 63.715 70.8181 61.4323 73.5044 59.0061C73.5101 59.0044 73.5153 59.0014 73.5196 58.9974C73.5238 58.9933 73.5269 58.9884 73.5287 58.9829C78.0172 55.0286 62.1678 41.4 62.1678 41.4Z" fill="url(#paint3_linear_167_8)"/>
<path style="mix-blend-mode:multiply" d="M64.2871 66.3185C61.0844 68.6633 59.0342 66.2027 59.0342 66.2027C59.0342 66.2027 52.3317 63.279 40.5159 55.1562C41.6077 54.3746 46.2964 50.9008 46.2964 50.9008C46.2964 50.9008 46.8787 50.345 46.9636 50.5014C56.796 66.7585 63.2377 66.6717 63.8867 66.4806C64.6146 66.278 64.2992 66.3011 64.2871 66.3185Z" fill="url(#paint4_linear_167_8)"/>
<path d="M19.0582 39.6513L18.4516 39.136C18.4516 39.136 1.90461 25.1426 6.38711 21.1884C5.82907 21.6805 5.30136 22.1957 4.78578 22.7052C3.504 23.9459 2.31046 25.267 1.21313 26.6595L1.17673 26.6942C0.90363 26.9637 0.676447 27.2724 0.503447 27.609C0.179894 28.1572 0.00671822 28.7746 0 29.4038V50.6862C0.00468909 51.3716 0.201563 52.0433 0.570169 52.6315L1.06149 53.2684C2.17513 54.689 3.3869 56.0372 4.68873 57.3037C5.23464 57.8364 5.823 58.3748 6.41137 58.9132C2.96609 55.5437 10.6573 47.1199 19.0582 39.6513Z" fill="url(#paint5_linear_167_8)"/>
<path d="M36.6021 53.0221L33.9697 51.1173C29.825 48.1415 25.7598 45.0663 21.7778 41.8945C20.8073 41.1187 20.0612 40.505 19.5335 40.0535L19.0604 39.6482C10.6655 47.1167 2.96825 55.5406 6.41353 58.9101C6.43637 58.9267 6.45677 58.9462 6.47419 58.968C9.11319 61.3534 11.8852 63.6011 14.778 65.7013L14.8387 65.7476C18.4174 68.4166 21.523 66.3844 21.523 66.3844C21.523 66.3844 28.4014 63.6981 40.0535 55.419C38.9435 54.6605 37.8092 53.8732 36.5961 53.0163L36.6021 53.0221Z" fill="url(#paint6_linear_167_8)"/>
<path style="mix-blend-mode:multiply" d="M23.5382 43.3737C23.7747 43.2405 22.786 42.2737 22.7314 42.1289C22.5252 41.5963 20.6873 41.0579 20.2688 40.7047L19.7896 40.2994C11.8982 47.3164 3.82487 55.3986 6.25112 58.745C6.51759 59.0464 6.81872 59.3183 7.14883 59.5555L7.20949 59.6134C7.20949 59.6134 2.36912 55.6302 23.5382 43.3737Z" fill="url(#paint7_linear_167_8)"/>
<path d="M58.3218 9.54648C58.1944 9.44806 58.0549 9.36122 57.9275 9.27437C53.5064 6.36309 48.9828 3.59601 44.3648 0.977917C43.0076 0.334704 41.5128 0 39.9975 0C38.4822 0 36.9875 0.334704 35.6303 0.977917L34.1745 1.81162C27.6237 5.60379 14.9768 13.3329 6.49707 21.0909C6.46674 21.1256 6.43034 21.1604 6.38789 21.1893C1.51112 25.4446 18.4585 39.1428 18.4585 39.1428L19.059 39.6581C27.1445 32.4732 35.8729 26.1741 35.8729 26.1741V26.1857L37.0011 25.3289L37.0314 25.3173C41.7232 21.8176 46.5338 18.4656 51.4555 15.2666C55.9987 12.3371 61.4213 12.7076 61.4213 12.7076C61.5913 12.5117 61.6874 12.2671 61.6943 12.0128C61.6943 11.6944 58.5341 9.74912 58.3218 9.54069V9.54648Z" fill="url(#paint8_linear_167_8)"/>
<path d="M58.6958 66.4558C58.6958 66.4558 51.975 63.5437 40.1228 55.4209C28.4343 63.7 21.5317 66.3748 21.5317 66.3748C21.5317 66.3748 18.42 68.4011 14.8352 65.7379C20.9259 70.1106 27.2574 74.1691 33.8024 77.8961L36.2529 79.2856C38.6964 80.2383 41.4339 80.2383 43.8774 79.2856L46.334 77.8961C52.8062 74.1674 59.0742 70.1248 65.1132 65.7843C64.216 66.4569 63.1396 66.8767 62.0057 66.9964C60.8717 67.1161 59.7253 66.9309 58.6958 66.4616V66.4558Z" fill="url(#paint9_linear_167_8)"/>
<path d="M70.4528 18.4318C70.4528 18.4318 72.4302 19.8618 73.0974 21.5639C73.4374 22.481 73.4417 23.4811 73.1095 24.4008C72.4848 26.2419 69.0092 32.0373 56.5382 41.6422C50.7477 46.0937 44.8399 50.4044 38.8206 54.5703L40.0943 55.4503C40.0943 55.4503 52.8564 46.0481 57.4663 42.4643C62.0701 38.8863 65.4305 36.1652 69.1729 31.9678C72.8851 27.7993 74.4258 25.2229 74.3409 22.7624C74.3409 22.7624 74.6441 21.1702 70.4589 18.4318H70.4528Z" fill="url(#paint10_linear_167_8)"/>
<path d="M38.8204 54.5737C38.8204 54.5737 28.0539 62.7544 20.8237 65.9213C18.4763 66.9345 16.323 66.8534 15.2251 66.0197C15.2251 66.0197 16.4018 67.4208 19.3922 67.0908C23.5775 66.6276 35.9271 58.4759 40.0942 55.4537L38.8204 54.5737Z" fill="url(#paint11_linear_167_8)"/>
<path d="M11.2803 47.0994C7.73798 50.8684 5.77878 54.2842 5.58468 56.2411C5.40271 58.198 6.33075 58.8059 6.33075 58.8059C5.29353 56.7043 7.71978 53.5374 7.71978 53.5374C10.3583 49.5715 15.0592 44.8646 19.9966 40.4472L19.0564 39.6482C15.3928 42.8788 13.0636 45.2062 11.2803 47.0994Z" fill="url(#paint12_linear_167_8)"/>
<path d="M54.1975 14.7556C50.8978 16.533 41.4718 23.191 37.1955 26.4505C34.6783 28.3843 27.1084 34.1044 19.9934 40.4439L19.0532 39.645C21.6796 37.2828 24.7549 34.6775 28.2245 32.0027C33.3014 28.0658 45.6874 18.2815 53.4939 13.9045C55.5259 12.7756 57.6488 12.0114 61.6946 12.0114C61.7062 12.1257 61.6922 12.2411 61.6535 12.3499C61.6148 12.4587 61.5523 12.5584 61.4702 12.6424C61.173 12.9898 57.4972 12.9724 54.1914 14.7556H54.1975Z" fill="url(#paint13_linear_167_8)"/>
<path d="M48.2578 35.503C48.2578 35.503 46.5351 34.5767 48.1547 32.5561C49.7681 30.5356 57.6777 25.4929 67.1522 17.7349C67.1522 17.7349 60.2495 22.3318 54.4204 26.6161C51.794 28.5556 49.3678 30.2345 47.8029 31.5951C47.0264 32.2308 46.5392 33.1297 46.4442 34.102C46.4315 34.3414 46.4868 34.5797 46.6042 34.7917C46.7217 35.0036 46.8969 35.1814 47.1114 35.3062C47.4741 35.4571 47.8688 35.5246 48.2638 35.503H48.2578Z" fill="url(#paint14_linear_167_8)"/>
<path d="M19.9915 40.4456C31.2249 49.854 43.3797 58.2101 56.2882 65.3987C56.2882 65.3987 59.1572 67.0198 60.9891 67.0892C62.8087 67.1471 63.573 66.8924 64.7497 66.0413C64.7497 66.0413 62.6753 67.5814 59.1997 66.1108C55.8515 64.6866 42.0946 55.1685 34.9554 50.1316C30.2172 46.7227 25.6026 43.16 21.1197 39.4498L19.9915 40.4456Z" fill="url(#paint15_linear_167_8)"/>
<path d="M19.0139 39.6815C19.0139 39.6815 1.60554 25.8734 6.17902 21.3865C6.17902 21.3865 2.4062 25.225 20.1239 38.6973L19.0139 39.6815Z" fill="url(#paint16_linear_167_8)"/>
<defs>
<linearGradient id="paint0_linear_167_8" x1="86.8347" y1="33.1154" x2="50.811" y2="24.9344" gradientUnits="userSpaceOnUse">
<stop offset="0.1" stop-color="#C02026"/>
<stop offset="0.74" stop-color="#F47B21"/>
<stop offset="1" stop-color="#F36D21"/>
</linearGradient>
<linearGradient id="paint1_linear_167_8" x1="82.3288" y1="16.0387" x2="63.334" y2="33.9052" gradientUnits="userSpaceOnUse">
<stop stop-color="#0C040B" stop-opacity="0.95"/>
<stop offset="1" stop-color="#0C040B" stop-opacity="0"/>
</linearGradient>
<linearGradient id="paint2_linear_167_8" x1="93.1992" y1="39.8443" x2="69.7374" y2="39.8443" gradientUnits="userSpaceOnUse">
<stop stop-color="#8F5021"/>
<stop offset="0.03" stop-color="#935520"/>
<stop offset="0.49" stop-color="#CA9817"/>
<stop offset="0.83" stop-color="#ECC111"/>
<stop offset="1" stop-color="#F9D10F"/>
</linearGradient>
<linearGradient id="paint3_linear_167_8" x1="50.5885" y1="62.7345" x2="67.1528" y2="46.5353" gradientUnits="userSpaceOnUse">
<stop stop-color="#988B33"/>
<stop offset="1" stop-color="#FFEF00"/>
</linearGradient>
<linearGradient id="paint4_linear_167_8" x1="2606.01" y1="2422.37" x2="2397.33" y2="1874.66" gradientUnits="userSpaceOnUse">
<stop stop-color="#0C040B" stop-opacity="0.95"/>
<stop offset="1" stop-color="#0C040B" stop-opacity="0"/>
</linearGradient>
<linearGradient id="paint5_linear_167_8" x1="-3.6697" y1="50.3968" x2="15.6256" y2="28.4671" gradientUnits="userSpaceOnUse">
<stop stop-color="#00464A"/>
<stop offset="0.46" stop-color="#007C78"/>
<stop offset="1" stop-color="#009285"/>
</linearGradient>
<linearGradient id="paint6_linear_167_8" x1="9.73749" y1="45.1135" x2="30.7779" y2="65.7532" gradientUnits="userSpaceOnUse">
<stop stop-color="#315B2C"/>
<stop offset="0.17" stop-color="#4A7734"/>
<stop offset="0.38" stop-color="#64953C"/>
<stop offset="0.6" stop-color="#77AA41"/>
<stop offset="0.8" stop-color="#82B745"/>
<stop offset="1" stop-color="#86BB46"/>
</linearGradient>
<linearGradient id="paint7_linear_167_8" x1="286.987" y1="2189.56" x2="643.831" y2="1699.22" gradientUnits="userSpaceOnUse">
<stop stop-color="#0C040B" stop-opacity="0.95"/>
<stop offset="1" stop-color="#0C040B" stop-opacity="0"/>
</linearGradient>
<linearGradient id="paint8_linear_167_8" x1="52.5837" y1="2.709" x2="13.4328" y2="34.8173" gradientUnits="userSpaceOnUse">
<stop stop-color="#005175"/>
<stop offset="0.39" stop-color="#227497"/>
<stop offset="0.77" stop-color="#3D91B1"/>
<stop offset="1" stop-color="#479BBB"/>
</linearGradient>
<linearGradient id="paint9_linear_167_8" x1="50.0765" y1="74.6307" x2="31.0683" y2="56.3099" gradientUnits="userSpaceOnUse">
<stop stop-color="#446B33"/>
<stop offset="0.13" stop-color="#4E7736"/>
<stop offset="0.47" stop-color="#65923C"/>
<stop offset="0.77" stop-color="#73A240"/>
<stop offset="1" stop-color="#78A841"/>
</linearGradient>
<linearGradient id="paint10_linear_167_8" x1="10.852" y1="66.41" x2="69.9446" y2="23.3833" gradientUnits="userSpaceOnUse">
<stop stop-color="#8F5021"/>
<stop offset="0.47" stop-color="#CB9216"/>
<stop offset="0.82" stop-color="#F1BB0F"/>
<stop offset="1" stop-color="#FFCB0C"/>
</linearGradient>
<linearGradient id="paint11_linear_167_8" x1="9.48701" y1="75.312" x2="42.6482" y2="46.1157" gradientUnits="userSpaceOnUse">
<stop stop-color="#467D3B"/>
<stop offset="0.11" stop-color="#50873D"/>
<stop offset="0.47" stop-color="#6EA342"/>
<stop offset="0.78" stop-color="#80B545"/>
<stop offset="1" stop-color="#86BB46"/>
</linearGradient>
<linearGradient id="paint12_linear_167_8" x1="2.70957" y1="59.0085" x2="47.0319" y2="10.4204" gradientUnits="userSpaceOnUse">
<stop stop-color="#00464A"/>
<stop offset="0.38" stop-color="#007C78"/>
<stop offset="1" stop-color="#009285"/>
</linearGradient>
<linearGradient id="paint13_linear_167_8" x1="4.98096" y1="61.3848" x2="49.7013" y2="12.3555" gradientUnits="userSpaceOnUse">
<stop stop-color="#003D60"/>
<stop offset="0.1" stop-color="#044366"/>
<stop offset="0.23" stop-color="#115376"/>
<stop offset="0.38" stop-color="#266F90"/>
<stop offset="0.54" stop-color="#4294B5"/>
<stop offset="0.57" stop-color="#479BBB"/>
<stop offset="1" stop-color="#6AC4DE"/>
</linearGradient>
<linearGradient id="paint14_linear_167_8" x1="1624.74" y1="1361.13" x2="2002.45" y2="854.238" gradientUnits="userSpaceOnUse">
<stop stop-color="#8F5021"/>
<stop offset="0.03" stop-color="#935520"/>
<stop offset="0.49" stop-color="#CA9817"/>
<stop offset="0.83" stop-color="#ECC111"/>
<stop offset="1" stop-color="#F9D10F"/>
</linearGradient>
<linearGradient id="paint15_linear_167_8" x1="1719.02" y1="2746.67" x2="5021.73" y2="2746.67" gradientUnits="userSpaceOnUse">
<stop stop-color="#446B33"/>
<stop offset="0.13" stop-color="#4E7736"/>
<stop offset="0.47" stop-color="#65923C"/>
<stop offset="0.77" stop-color="#73A240"/>
<stop offset="1" stop-color="#78A841"/>
</linearGradient>
<linearGradient id="paint16_linear_167_8" x1="22.6593" y1="41.3547" x2="7.39879" y2="24.1106" gradientUnits="userSpaceOnUse">
<stop stop-color="#00464A"/>
<stop offset="0.38" stop-color="#007C78"/>
<stop offset="0.63" stop-color="#22938C"/>
<stop offset="0.86" stop-color="#3AA399"/>
<stop offset="1" stop-color="#42A99E"/>
</linearGradient>
</defs>
</svg>
