<svg width="147" height="28" viewBox="0 0 167 32" fill="#09371f" xmlns="http://www.w3.org/2000/svg">
  <path d="M13.152 1.92C16.224 1.92 18.72 4.928 20.48 8.992H20.544L20.352 1.248C19.616 1.856 19.104 2.176 18.24 2.176C17.184 2.176 15.52 1.248 12.416 1.248C5.696 1.248 0 5.888 0 12.896C0 19.84 4.832 24.288 11.872 24.288C14.72 24.288 17.504 23.04 19.136 21.28L21.952 24.288H22.016V17.28C22.016 15.168 22.336 14.496 23.744 13.504V13.44H13.76V13.504C15.168 14.496 15.488 15.168 15.488 17.28V19.264C15.488 21.984 14.208 23.584 11.936 23.584C8.864 23.584 7.264 18.88 7.264 12.896C7.264 6.272 9.344 1.92 13.152 1.92Z"/>
  <path d="M32.3325 0H24.0445V0.0639992C25.5485 0.831999 25.9325 1.344 25.9325 3.552V20.48C25.9325 22.592 25.8685 22.944 24.5245 23.904V23.968H33.7405V23.904C32.3965 22.944 32.3325 22.592 32.3325 20.48V0Z"/>
  <path d="M42.3705 26.592C41.7305 28.032 40.9625 28.704 39.7465 28.704C38.6905 28.704 37.8905 27.936 37.8905 26.912C37.8905 26.176 38.1785 25.728 38.6905 25.408C38.4025 25.312 38.1785 25.28 37.8265 25.28C36.2265 25.28 34.9465 26.336 34.9465 28.16C34.9465 30.144 36.4185 31.264 38.3385 31.264C40.3545 31.264 41.6985 30.048 42.7545 27.424L49.2825 11.616C50.1145 9.632 50.6585 9.024 51.7465 8.128V8.064H46.8505V8.128C47.8745 8.512 48.5785 9.248 48.5785 10.368C48.5785 10.816 48.4825 11.264 48.2585 11.808L45.7625 18.016L42.5305 11.328C42.2425 10.72 42.0825 10.08 42.0825 9.568C42.0825 8.928 42.2745 8.544 42.9465 8.128V8.064H33.5065V8.128C34.5625 9.152 34.8825 9.6 35.8745 11.52L42.9465 25.312L42.3705 26.592Z"/>
  <path d="M60.2487 8.288C61.6567 8.288 62.4248 9.216 62.4248 10.752C62.4248 12.032 61.9768 13.12 60.7607 13.12C60.6007 13.12 60.3448 13.088 60.1528 12.992C60.2808 13.984 61.3047 14.944 63.1287 14.944C64.7288 14.944 66.2968 13.952 66.2968 11.936C66.2968 9.152 63.6088 7.744 60.1528 7.744C54.8088 7.744 50.7127 10.912 50.7127 16.32C50.7127 21.28 54.5528 24.288 59.0968 24.288C62.6808 24.288 65.6568 22.304 66.6168 18.912L66.3928 18.816C65.4008 20.64 63.8328 21.376 62.1688 21.376C59.1608 21.376 57.3368 19.104 57.3368 14.72C57.3368 11.104 58.1687 8.288 60.2487 8.288Z"/>
  <path d="M86.2118 22.72C85.9878 22.784 85.7317 22.784 85.5397 22.784C83.9077 22.784 83.7477 21.6 83.7477 19.424C83.7477 17.056 83.8118 15.136 83.8118 13.376C83.8118 9.344 81.0278 7.744 75.5238 7.744C71.3638 7.744 68.4837 9.28 68.4837 11.84C68.4837 13.536 69.9558 14.592 71.7158 14.592C73.4118 14.592 74.7558 13.952 75.4918 12.608C75.2678 12.672 75.0438 12.704 74.8518 12.704C73.8598 12.704 73.2838 12.064 73.2838 10.688C73.2838 9.344 74.0517 8.32 75.3637 8.32C76.9957 8.32 77.4758 9.824 77.4758 11.296V14.688L75.0437 15.136C71.2037 15.84 67.6837 16.512 67.6837 20.16C67.6837 22.912 69.9558 24.192 72.4518 24.192C75.1718 24.192 76.9957 22.88 77.5717 20.736C77.5717 20.832 77.6038 21.28 77.6357 21.408C77.9557 23.168 79.2998 24.288 82.1158 24.288C83.7158 24.288 85.3478 23.68 86.2118 22.784V22.72ZM77.4758 15.264V18.816C77.4438 20.384 76.8678 21.824 75.4918 21.824C74.3398 21.824 73.8278 20.736 73.8278 19.2C73.8278 17.184 74.5318 15.936 76.3238 15.552L77.4758 15.264Z"/>
  <path d="M85.9285 8.064V8.128C87.4005 9.056 87.5605 9.376 87.5605 11.616V20.48C87.5605 22.592 87.4965 22.944 86.1525 23.904V23.968H95.3685V23.904C94.0245 22.944 93.9605 22.592 93.9605 20.48V14.528C93.9605 11.808 94.9205 10.72 96.2965 10.72C97.5765 10.72 98.1845 11.712 98.1845 12.992V20.48C98.1845 22.592 98.1205 22.944 96.7765 23.904V23.968H105.993V23.904C104.648 22.944 104.585 22.592 104.585 20.48V13.28C104.585 10.304 103.08 7.744 99.4965 7.744C96.7765 7.744 94.7285 9.312 93.9605 12.16V8.064H85.9285Z"/>
  <path d="M115.349 9.472L118.741 16.608H112.085L115.349 9.472ZM112.053 23.904C110.805 23.328 110.229 22.464 110.229 21.44C110.229 20.896 110.389 20.384 110.613 19.84L111.637 17.568H119.221L120.501 20.288C120.821 20.96 120.981 21.472 120.981 22.08C120.981 22.816 120.597 23.328 119.669 23.904V23.968H130.549V23.904C129.461 23.104 128.917 22.336 127.957 20.384L118.453 1.248H118.325L109.333 20.128C108.405 22.08 107.509 23.104 106.357 23.904V23.968H112.053V23.904Z"/>
  <path d="M139.281 8.256C140.369 8.256 140.753 9.792 140.753 12.992C140.753 16.224 140.369 17.728 139.281 17.728C138.225 17.728 137.84 16.224 137.84 12.992C137.84 9.792 138.225 8.256 139.281 8.256ZM149.105 24.864C149.105 21.696 146.577 20.064 142.833 20.064H135.473C134.609 20.064 134.161 19.648 134.161 18.976C134.161 18.336 134.641 17.952 135.441 17.664C136.529 18.048 137.777 18.24 139.281 18.24C144.113 18.24 146.833 16.096 146.833 12.992C146.833 11.424 146.097 10.112 144.721 9.216C145.105 8.864 145.52 8.608 146.128 8.608C147.312 8.608 147.824 9.44 147.824 10.368C147.824 10.784 147.697 11.136 147.505 11.456V11.52C148.849 11.52 150.48 10.848 150.48 8.896C150.48 7.36 149.425 6.368 147.665 6.368C145.905 6.368 145.04 7.84 144.368 8.96C143.12 8.16 141.393 7.744 139.281 7.744C134.481 7.744 131.76 9.92 131.76 12.992C131.76 14.944 132.848 16.576 134.928 17.44C132.912 18.08 131.217 19.616 131.217 21.792C131.217 23.872 132.593 25.28 134.577 25.76C131.953 25.824 130.641 26.816 130.641 28.032C130.641 30.56 134.864 31.232 138.736 31.232C144.048 31.232 149.105 29.344 149.105 24.864ZM138.736 30.688C136.016 30.688 133.745 29.888 133.745 27.968C133.745 26.528 134.801 25.92 136.337 25.92H142.064C143.792 25.92 144.753 26.464 144.753 27.808C144.753 29.76 141.968 30.688 138.736 30.688Z"/>
  <path d="M158.508 7.744C153.804 7.744 149.9 10.944 149.9 16.032C149.9 21.28 153.74 24.288 158.444 24.288C162.092 24.288 165.068 22.304 166.06 18.912L165.868 18.816C164.844 20.64 163.244 21.376 161.388 21.376C158.444 21.376 156.364 19.2 156.364 15.264H166.284C166.284 11.104 163.788 7.744 158.508 7.744ZM156.364 14.624C156.428 10.848 157.004 8.288 158.508 8.288C160.044 8.288 160.236 10.944 160.236 14.624H156.364Z"/>
</svg>
